<svg width="24" height="21" viewBox="0 0 24 21" fill="none" xmlns="http://www.w3.org/2000/svg">
<path d="M23.5945 3.80717C23.4652 3.64002 23.2658 3.54212 23.0545 3.54212H5.69451L4.93629 0.625415C4.85813 0.3246 4.58661 0.114685 4.27579 0.114685H0.735164C0.358281 0.114685 0.0527344 0.420231 0.0527344 0.797115C0.0527344 1.174 0.358281 1.47954 0.735164 1.47954H3.74804L4.50627 4.39625C4.50627 4.39634 4.50627 4.39634 4.50636 4.39643L7.17975 14.6755C7.25791 14.9763 7.52943 15.1862 7.84016 15.1862H20.3807C20.6914 15.1862 20.9629 14.9763 21.0411 14.6755L23.7148 4.39625C23.7682 4.19188 23.7237 3.97423 23.5945 3.80717ZM10.7784 13.8214H8.36791L7.83179 11.7603H10.7784V13.8214ZM10.7784 10.3953H7.47684L6.94045 8.33286H10.7784V10.3953ZM10.7784 6.96801H6.5854L6.04938 4.90698H10.7784V6.96801ZM16.0779 13.8214H12.1433V11.7603H16.0779V13.8214ZM16.0779 10.3953H12.1433V8.33286H16.0779V10.3953ZM16.0779 6.96801H12.1433V4.90698H16.0779V6.96801ZM19.8531 13.8214H17.4428V11.7603H20.3892L19.8531 13.8214ZM20.7443 10.3953H17.4428V8.33286H21.2807L20.7443 10.3953ZM21.6358 6.96801H17.4429V4.90698H22.172L21.6358 6.96801Z" fill="white"/>
<path d="M9.65098 15.7416C8.27648 15.7416 7.1582 16.8599 7.1582 18.2343C7.1582 19.609 8.27648 20.7274 9.65098 20.7274C11.0254 20.7274 12.1437 19.609 12.1437 18.2343C12.1437 16.8599 11.0255 15.7416 9.65098 15.7416ZM9.65098 19.3625C9.02906 19.3625 8.52306 18.8564 8.52306 18.2343C8.52306 17.6123 9.02906 17.1064 9.65098 17.1064C10.2728 17.1064 10.7788 17.6124 10.7788 18.2343C10.7788 18.8565 10.2729 19.3625 9.65098 19.3625Z" fill="white"/>
<path d="M18.5705 15.7416C17.1962 15.7416 16.0781 16.8599 16.0781 18.2343C16.0781 19.609 17.1962 20.7274 18.5705 20.7274C19.9451 20.7274 21.0633 19.609 21.0633 18.2343C21.0633 16.8599 19.945 15.7416 18.5705 15.7416ZM18.5705 19.3625C17.9488 19.3625 17.443 18.8564 17.443 18.2343C17.443 17.6123 17.9488 17.1064 18.5705 17.1064C19.1925 17.1064 19.6985 17.6124 19.6985 18.2343C19.6985 18.8565 19.1925 19.3625 18.5705 19.3625Z" fill="white"/>
</svg>
