<svg width="420" height="316" viewBox="0 0 420 316" fill="none" xmlns="http://www.w3.org/2000/svg">
<rect y="0.000976562" width="420" height="316" rx="7" fill="white"/>
<path fill-rule="evenodd" clip-rule="evenodd" d="M153.258 115.061C153.224 115.094 152.852 115.138 152.432 115.159C152.012 115.18 151.429 115.229 151.137 115.268C150.845 115.306 150.352 115.365 150.041 115.398C149.305 115.476 148.953 115.537 147.319 115.867C144.346 116.466 141.145 117.486 138.563 118.657C137.533 119.124 135.617 120.1 135.101 120.42C134.791 120.613 134.365 120.858 134.156 120.965C133.59 121.253 131.683 122.517 130.859 123.15C130.654 123.308 130.352 123.531 130.188 123.648C129.263 124.302 127.52 125.807 126.249 127.048C124.347 128.905 122.737 130.831 120.959 133.379C120.283 134.347 119.811 135.096 118.843 136.74C118.614 137.13 118.576 137.385 118.739 137.448C118.876 137.501 192.361 137.501 192.499 137.448C192.557 137.426 192.604 137.331 192.604 137.237C192.604 136.835 190.08 132.873 188.863 131.365C188.153 130.485 187.602 129.827 186.984 129.122C186.265 128.302 184.136 126.169 183.474 125.603C180.887 123.396 178.675 121.809 176.402 120.531C175.754 120.167 172.632 118.606 172.146 118.404C169.687 117.379 167.027 116.524 164.815 116.045C164.56 115.989 164.126 115.895 163.852 115.834C163.579 115.774 163.19 115.698 162.989 115.666C162.788 115.634 162.43 115.574 162.192 115.533C161.955 115.492 161.507 115.431 161.196 115.398C160.886 115.365 160.393 115.306 160.101 115.268C159.809 115.229 159.226 115.18 158.806 115.159C158.386 115.138 158.014 115.094 157.979 115.061C157.897 114.981 153.341 114.981 153.258 115.061ZM44 127.516V137.489H62.9854C76.0144 137.489 82.0818 137.511 82.3245 137.559C83.1214 137.718 83.3534 137.784 83.9643 138.027C84.9866 138.434 85.5325 138.794 86.387 139.627C87.1435 140.363 87.4705 140.794 87.8391 141.538C88.4495 142.77 88.6208 143.526 88.6208 144.985C88.6208 146.443 88.4499 147.197 87.8396 148.432C87.0145 150.101 85.3949 151.515 83.5969 152.135C82.5311 152.503 83.8143 152.481 63.1067 152.481L44 152.481V174.97V197.459L66.8583 197.434C82.1017 197.418 89.8714 197.387 90.1814 197.341C90.437 197.303 90.9151 197.239 91.2438 197.2C91.5725 197.161 92.0057 197.083 92.2066 197.027C92.4075 196.971 92.65 196.924 92.7456 196.924C93.0841 196.922 95.5271 196.178 96.5652 195.76C101.206 193.892 104.829 190.983 107.845 186.7C109.018 185.035 110.18 182.676 110.892 180.513C111.16 179.698 111.644 177.809 111.737 177.212C111.772 176.991 111.829 176.645 111.864 176.442C112.172 174.684 112.171 170.861 111.864 169.08C111.829 168.878 111.772 168.531 111.738 168.31C111.704 168.089 111.645 167.788 111.606 167.641C111.567 167.494 111.49 167.152 111.435 166.882C111.274 166.096 110.882 164.851 110.355 163.458C110.121 162.838 109.028 160.674 108.531 159.844C108.002 158.961 107.167 157.786 106.499 156.984C104.965 155.142 104.942 155.119 102.913 153.449C102.348 152.983 101.926 152.587 101.915 152.51C101.902 152.418 102.14 152.127 102.708 151.543C103.875 150.342 104.883 149.052 105.635 147.796C106.007 147.175 106.806 145.569 107.034 144.985C107.626 143.469 108.159 141.43 108.285 140.199C108.506 138.043 108.53 137.339 108.419 136.15C108.256 134.382 108.158 133.769 107.849 132.569C107.261 130.283 106.312 128.137 105.075 126.293C104.553 125.515 102.89 123.516 102.499 123.196C102.371 123.091 102.072 122.821 101.835 122.596C101.107 121.906 99.5294 120.754 98.5478 120.196C97.34 119.51 97.1717 119.428 95.759 118.836C94.892 118.474 92.8689 117.921 91.9742 117.802C91.7186 117.768 91.3152 117.706 91.0778 117.664C90.765 117.61 84.2257 117.583 67.3231 117.566L44 117.543V127.516ZM185.923 117.639C185.865 117.792 185.955 117.893 186.661 118.463C187.026 118.758 187.511 119.161 187.737 119.359C187.964 119.557 188.398 119.934 188.7 120.197C189.308 120.726 192.268 123.734 192.912 124.476C194.188 125.949 195.416 127.526 196.319 128.855C196.607 129.278 196.915 129.73 197.003 129.859C197.671 130.834 198.541 132.289 199.324 133.74C199.72 134.474 200.371 135.787 200.812 136.743C200.954 137.051 201.129 137.345 201.201 137.396C201.312 137.474 203.807 137.489 217.341 137.489C233.122 137.489 233.359 137.491 233.976 137.623C234.852 137.811 235.166 137.923 235.963 138.331C237.694 139.217 238.969 140.723 239.615 142.642C240.232 144.478 240.115 146.446 239.287 148.177C238.845 149.1 238.401 149.738 237.779 150.345C237.071 151.035 236.221 151.64 235.764 151.779C235.673 151.807 235.46 151.899 235.292 151.984C235.123 152.07 234.684 152.216 234.317 152.31L233.648 152.481H219.478C205.465 152.481 205.306 152.483 205.189 152.613C205.085 152.729 205.077 152.816 205.122 153.332C205.209 154.314 205.19 161.123 205.098 161.885C205.054 162.253 204.989 162.81 204.955 163.123C204.842 164.153 204.765 164.757 204.693 165.181C204.552 166.015 204.493 166.378 204.425 166.829C204.386 167.081 204.342 167.309 204.327 167.334C204.312 167.359 204.221 167.77 204.126 168.246C204.031 168.723 203.861 169.466 203.749 169.896L203.545 170.679L203.682 170.9C203.88 171.219 229.558 196.987 229.984 197.294L230.212 197.459L252.228 197.442L274.243 197.425L274.266 197.264C274.285 197.128 272.127 194.925 260.338 183.041C250.091 172.711 246.388 168.939 246.388 168.829C246.388 168.717 246.508 168.602 246.869 168.367C247.134 168.195 247.593 167.896 247.889 167.703C248.943 167.015 250.699 165.52 251.941 164.252C253.384 162.779 254.451 161.442 255.566 159.71C256.142 158.816 257.063 157.125 257.312 156.507C257.396 156.299 257.575 155.873 257.711 155.56C258.023 154.841 258.681 152.913 258.899 152.08C259.196 150.944 259.549 148.94 259.713 147.461C259.794 146.732 259.77 143.002 259.68 142.341C259.635 142.01 259.571 141.513 259.538 141.237C259.389 139.998 259.196 139.058 258.795 137.623C258.615 136.978 258.441 136.376 258.409 136.284C258.334 136.072 257.972 135.104 257.771 134.577C257.538 133.969 256.879 132.524 256.747 132.335C256.683 132.243 256.548 132.002 256.448 131.8C255.552 129.997 253.776 127.607 251.904 125.686C250.278 124.017 248.568 122.659 246.521 121.41C245.891 121.026 243.242 119.685 242.67 119.461C240.409 118.577 237.808 117.937 235.366 117.664C234.941 117.617 226.769 117.586 210.347 117.568C189.13 117.546 185.955 117.555 185.923 117.639ZM254.456 117.611C254.379 117.735 254.489 117.923 254.772 118.149C255.678 118.873 257.533 120.696 258.621 121.93C259.431 122.849 259.914 123.465 260.797 124.702C261.609 125.841 261.76 126.079 262.958 128.118C263.212 128.551 264.066 130.311 264.343 130.971C264.448 131.224 264.609 131.597 264.698 131.8C265.105 132.715 265.715 134.565 266.14 136.166C266.293 136.746 266.474 137.28 266.54 137.354C266.66 137.488 266.72 137.489 282.271 137.489C295.226 137.489 297.955 137.504 298.313 137.58C300.084 137.956 301.118 138.517 302.303 139.742C303.132 140.6 303.28 140.802 303.717 141.676C304.187 142.619 304.371 143.329 304.534 144.843C304.588 145.351 304.38 146.636 304.112 147.445C303.622 148.925 302.608 150.24 301.162 151.27C300.788 151.537 299.876 151.977 299.293 152.173C298.333 152.495 299.092 152.481 282.332 152.481L266.65 152.481L266.519 152.648C266.448 152.74 266.337 153.034 266.273 153.301C266.103 154.01 265.661 155.583 265.469 156.162C264.927 157.795 263.579 160.829 262.824 162.119C262.705 162.322 262.478 162.713 262.32 162.989C261.943 163.643 261.139 164.862 260.455 165.813C259.68 166.889 259.602 167.011 259.602 167.131C259.602 167.243 288.805 196.737 289.372 197.197L289.693 197.459H324.238C357.62 197.459 358.787 197.454 358.893 197.336C358.995 197.223 359.003 194.359 359.003 157.489C359.003 119.09 358.999 117.761 358.881 117.654C358.769 117.552 357.654 117.543 344.184 117.543C330.15 117.543 329.604 117.548 329.498 117.666C329.396 117.779 329.387 120.575 329.372 156.227C329.356 192.773 329.349 194.67 329.239 194.74C329.138 194.804 327.56 193.239 317.467 183.068C307.68 173.204 305.815 171.296 305.831 171.159C305.847 171.018 305.932 170.966 306.447 170.781C314.052 168.054 320.316 161.545 322.908 153.675C323.228 152.703 323.717 150.827 323.817 150.189C323.85 149.977 323.909 149.616 323.947 149.386C324.103 148.46 324.15 148.052 324.219 147.026C324.365 144.852 324.263 142.435 323.948 140.584C323.909 140.354 323.85 139.993 323.817 139.781C323.6 138.394 322.689 135.426 322.066 134.075C321.973 133.873 321.758 133.406 321.588 133.038C321.419 132.67 321.158 132.158 321.008 131.9C320.859 131.642 320.615 131.221 320.467 130.963C319.49 129.263 317.527 126.728 316.165 125.408C314.825 124.109 313.057 122.689 311.826 121.922C311.643 121.808 311.24 121.556 310.929 121.362C310.271 120.95 308.102 119.844 307.476 119.602C307.239 119.51 306.806 119.342 306.513 119.23C305.933 119.006 305.232 118.789 303.957 118.44C302.591 118.066 301.747 117.907 299.84 117.664C299.069 117.566 254.515 117.514 254.456 117.611ZM368.626 117.642C367.946 117.793 367.474 117.963 366.836 118.289C365.664 118.887 364.845 119.723 364.216 120.962C363.862 121.66 363.807 121.846 363.582 123.142C363.536 123.409 363.519 123.764 363.543 123.945C363.568 124.124 363.615 124.481 363.65 124.738C363.79 125.796 364.107 126.536 364.842 127.526C365.396 128.271 365.989 128.759 366.905 129.223C367.823 129.688 368.861 129.951 369.76 129.946C370.627 129.942 371.949 129.636 372.63 129.282C373.07 129.054 373.853 128.485 374.179 128.156C374.827 127.503 375.46 126.422 375.728 125.508C375.81 125.232 375.904 124.937 375.939 124.852C376.018 124.658 376.021 122.679 375.942 122.593C375.91 122.558 375.809 122.289 375.718 121.994C375.383 120.913 374.999 120.242 374.264 119.45C373.349 118.464 372.395 117.937 370.988 117.641C370.435 117.525 369.156 117.525 368.626 117.642ZM370.59 118.468C371.604 118.6 372.577 119.123 373.387 119.97C374.33 120.957 374.691 121.786 374.919 123.49C374.955 123.761 374.894 124.258 374.726 125.073C374.576 125.797 374.001 126.914 373.502 127.452C373.114 127.87 372.224 128.506 371.765 128.692C370.779 129.093 369.445 129.173 368.47 128.888C367.449 128.589 366.958 128.29 366.206 127.507C365.444 126.713 365.149 126.213 364.876 125.254C364.713 124.681 364.704 124.571 364.728 123.552C364.751 122.605 364.776 122.396 364.924 121.95C365.351 120.663 366.288 119.567 367.475 118.97C367.837 118.788 368.312 118.605 368.531 118.563C368.75 118.522 369.064 118.458 369.229 118.422C369.534 118.354 369.775 118.362 370.59 118.468ZM367.483 120.205C367.379 120.321 367.369 120.617 367.369 123.713C367.369 127.55 367.334 127.315 367.912 127.315C368.417 127.315 368.432 127.272 368.432 125.802C368.432 124.237 368.432 124.236 369.085 124.236C369.365 124.236 369.582 124.272 369.667 124.332C369.742 124.385 369.992 124.724 370.224 125.085C371.399 126.92 371.585 127.194 371.693 127.252C371.872 127.349 372.454 127.329 372.542 127.223C372.583 127.173 372.596 127.075 372.57 127.006C372.505 126.836 372.006 126.022 371.46 125.198C370.882 124.324 370.884 124.223 371.48 123.983C372.323 123.644 372.682 123.066 372.681 122.051C372.68 121.196 372.215 120.539 371.424 120.272C371.03 120.139 370.826 120.123 369.292 120.102C367.698 120.08 367.59 120.086 367.483 120.205ZM371.03 121.21C371.354 121.38 371.398 121.431 371.516 121.772C371.626 122.092 371.633 122.185 371.565 122.413C371.457 122.777 371.249 123.025 370.927 123.173C370.704 123.274 370.487 123.297 369.707 123.298C368.787 123.299 368.753 123.294 368.595 123.135C368.439 122.978 368.432 122.933 368.432 122.146C368.432 120.974 368.378 121.024 369.656 121.024C370.641 121.024 370.686 121.03 371.03 121.21ZM113.837 152.598C113.77 152.675 113.719 152.914 113.693 153.284C113.67 153.597 113.619 154.29 113.578 154.824C113.483 156.079 113.482 158.956 113.578 160.111C113.619 160.608 113.68 161.376 113.714 161.818C113.775 162.605 113.839 163.122 113.986 163.993C114.026 164.233 114.086 164.647 114.119 164.915C114.152 165.183 114.193 165.424 114.21 165.452C114.227 165.479 114.332 165.953 114.445 166.504C114.968 169.068 115.993 172.251 117.083 174.693C117.436 175.485 118.579 177.812 118.797 178.183C118.916 178.385 119.144 178.777 119.303 179.053C119.77 179.864 121.396 182.302 122.026 183.135C122.566 183.851 123.299 184.744 124.453 186.094C125.202 186.97 127.177 188.88 128.461 189.97C129.758 191.071 131.788 192.577 132.916 193.275C133.213 193.459 133.64 193.729 133.864 193.874C134.724 194.43 137.554 195.926 138.521 196.335C141.711 197.686 144.11 198.47 146.687 199.004C147.234 199.117 147.701 199.222 147.725 199.237C147.79 199.278 149.042 199.468 150.141 199.605C150.433 199.641 150.896 199.701 151.17 199.738C151.444 199.774 152.012 199.822 152.432 199.843C152.852 199.864 153.224 199.908 153.258 199.941C153.341 200.021 157.764 200.021 157.847 199.941C157.881 199.907 158.283 199.863 158.74 199.843C159.196 199.822 159.794 199.775 160.068 199.738C160.342 199.701 160.805 199.641 161.097 199.605C162.464 199.435 162.96 199.351 164.35 199.054C166.029 198.695 167.39 198.323 168.999 197.783C171.082 197.084 172.353 196.554 174.309 195.568C177.624 193.897 180.49 191.985 183.307 189.563C183.984 188.981 186.657 186.307 187.182 185.687C188.385 184.266 188.608 183.991 189.144 183.264C190.951 180.812 191.388 180.124 192.798 177.51C192.977 177.177 193.153 176.868 193.188 176.824C193.312 176.666 194.501 173.974 194.879 172.995C195.566 171.213 195.862 170.346 196.149 169.264C196.58 167.642 196.655 167.344 196.751 166.888C196.807 166.621 196.901 166.184 196.959 165.917C197.017 165.651 197.092 165.259 197.125 165.047C197.158 164.836 197.217 164.474 197.255 164.244C197.426 163.219 197.479 162.759 197.662 160.714C197.76 159.613 197.759 155.361 197.659 154.255C197.538 152.895 197.511 152.723 197.401 152.598C197.303 152.487 195.229 152.481 155.619 152.481C116.008 152.481 113.935 152.487 113.837 152.598Z" fill="#1D1D1D"/>
</svg>
