<svg width="24" height="21" viewBox="0 0 24 21" fill="none" xmlns="http://www.w3.org/2000/svg">
<path d="M23.5417 3.69249C23.4125 3.52534 23.2131 3.42743 23.0018 3.42743H5.64178L4.88356 0.51073C4.80539 0.209915 4.53388 0 4.22305 0H0.682429C0.305546 0 0 0.305546 0 0.682429C0 1.05931 0.305546 1.36486 0.682429 1.36486H3.69531L4.45353 4.28156C4.45344 4.28147 4.45353 4.28165 4.45353 4.28156L7.12702 14.5609C7.20518 14.8616 7.4767 15.0715 7.78743 15.0715H20.3279C20.6387 15.0715 20.9102 14.8616 20.9883 14.5609L23.6621 4.28156C23.7154 4.0772 23.6709 3.85955 23.5417 3.69249ZM10.7257 13.7067H8.31517L7.77906 11.6456H10.7257V13.7067ZM10.7257 10.2807H7.4241L6.88771 8.21818H10.7257V10.2807ZM10.7257 6.85332H6.53267L5.99664 4.79229H10.7257V6.85332ZM16.0252 13.7067H12.0906V11.6456H16.0252V13.7067ZM16.0252 10.2807H12.0906V8.21818H16.0252V10.2807ZM16.0252 6.85332H12.0906V4.79229H16.0252V6.85332ZM19.8004 13.7067H17.39V11.6456H20.3365L19.8004 13.7067ZM20.6915 10.2807H17.39V8.21818H21.228L20.6915 10.2807ZM21.5831 6.85332H17.3901V4.79229H22.1193L21.5831 6.85332Z" fill="white"/>
<path d="M9.59837 15.6269C8.22387 15.6269 7.10559 16.7452 7.10559 18.1196C7.10559 19.4943 8.22387 20.6127 9.59837 20.6127C10.9728 20.6127 12.0911 19.4943 12.0911 18.1196C12.0911 16.7452 10.9729 15.6269 9.59837 15.6269ZM9.59837 19.2479C8.97645 19.2479 8.47045 18.7417 8.47045 18.1196C8.47045 17.4977 8.97645 16.9918 9.59837 16.9918C10.2202 16.9918 10.7262 17.4978 10.7262 18.1196C10.7262 18.7418 10.2203 19.2479 9.59837 19.2479Z" fill="white"/>
<path d="M18.5179 15.6269C17.1435 15.6269 16.0254 16.7452 16.0254 18.1196C16.0254 19.4943 17.1435 20.6127 18.5179 20.6127C19.8924 20.6127 21.0106 19.4943 21.0106 18.1196C21.0106 16.7452 19.8924 15.6269 18.5179 15.6269ZM18.5179 19.2479C17.8961 19.2479 17.3903 18.7417 17.3903 18.1196C17.3903 17.4977 17.8961 16.9918 18.5179 16.9918C19.1399 16.9918 19.6458 17.4978 19.6458 18.1196C19.6458 18.7418 19.1398 19.2479 18.5179 19.2479Z" fill="white"/>
<path d="M9.5 16.4643L8 16.9643L7.5 17.9643L8.5 19.4643L10.5 19.9643L11 18.4643V16.9643L9.5 16.4643Z" fill="white"/>
<path d="M19 16.4643L17.5 16.9643L17 17.9643L18 19.4643L20 19.9643L20.5 18.4643V16.9643L19 16.4643Z" fill="white"/>
<path d="M23 3.96426H5.5L8 14.4643H20L23 3.96426Z" fill="white"/>
</svg>
