<svg width="82" height="94" viewBox="0 0 82 94" fill="none" xmlns="http://www.w3.org/2000/svg">
<path d="M22.5359 62.3151C18.066 58.5267 14.8625 53.4498 13.3589 47.7716C11.8554 42.0934 12.1245 36.0881 14.1298 30.5686C16.1351 25.0492 19.7797 20.2821 24.5703 16.9126C29.361 13.5431 35.0663 11.734 40.914 11.7301C46.7617 11.7263 52.4694 13.5278 57.2645 16.891C62.0595 20.2541 65.7104 25.0164 67.7229 30.5332C69.7354 36.05 70.0124 42.0549 68.5163 47.7351C67.0202 53.4153 63.8233 58.4965 59.3584 62.2908" stroke="#1D1D1D" stroke-width="2" stroke-linecap="round"/>
<line x1="24.626" y1="73.2601" x2="57.2399" y2="73.2601" stroke="#1D1D1D" stroke-width="2" stroke-linecap="round"/>
<line x1="27.4326" y1="79.84" x2="55.369" y2="79.84" stroke="#1D1D1D" stroke-width="2" stroke-linecap="round"/>
<line x1="30.2397" y1="86.42" x2="52.5631" y2="86.42" stroke="#1D1D1D" stroke-width="2" stroke-linecap="round"/>
<line x1="33.9814" y1="93" x2="48.8207" y2="93" stroke="#1D1D1D" stroke-width="2" stroke-linecap="round"/>
<path d="M52.6274 23.5001C54.3284 24.0372 57.8323 26.2932 58.2405 31.0201" stroke="#1D1D1D" stroke-width="2" stroke-linecap="round"/>
</svg>
