<svg width="108" height="61" viewBox="0 0 108 61" fill="none" xmlns="http://www.w3.org/2000/svg">
<rect x="1" y="1" width="105.089" height="59" rx="3" stroke="#1D1D1D" stroke-width="2"/>
<rect x="61.75" y="12.95" width="33.7444" height="33.7444" rx="3.25" stroke="#1D1D1D" stroke-width="1.5"/>
<circle cx="78.6224" cy="29.8222" r="11.45" stroke="#1D1D1D" stroke-width="1.5"/>
<circle cx="74.5554" cy="29.8222" r="2.21111" stroke="#1D1D1D"/>
<circle cx="82.6887" cy="29.8222" r="2.21111" stroke="#1D1D1D"/>
<rect x="12.9502" y="18.3722" width="14.7667" height="25.6111" rx="3.25" stroke="#1D1D1D" stroke-width="1.5"/>
<rect x="55.5776" y="12.2" width="17.6222" height="1.35556" rx="0.677778" transform="rotate(180 55.5776 12.2)" fill="#1D1D1D"/>
<rect x="55.5776" y="17.6223" width="17.6222" height="1.35556" rx="0.677778" transform="rotate(180 55.5776 17.6223)" fill="#1D1D1D"/>
<rect x="55.5776" y="23.0445" width="17.6222" height="1.35556" rx="0.677778" transform="rotate(180 55.5776 23.0445)" fill="#1D1D1D"/>
<rect x="55.5776" y="28.4667" width="17.6222" height="1.35556" rx="0.677778" transform="rotate(180 55.5776 28.4667)" fill="#1D1D1D"/>
<rect x="55.5776" y="33.8889" width="17.6222" height="1.35556" rx="0.677778" transform="rotate(180 55.5776 33.8889)" fill="#1D1D1D"/>
<rect x="55.5776" y="39.3112" width="17.6222" height="1.35556" rx="0.677778" transform="rotate(180 55.5776 39.3112)" fill="#1D1D1D"/>
<rect x="55.5776" y="44.7333" width="17.6222" height="1.35556" rx="0.677778" transform="rotate(180 55.5776 44.7333)" fill="#1D1D1D"/>
<rect x="55.5776" y="50.1556" width="17.6222" height="1.35556" rx="0.677778" transform="rotate(180 55.5776 50.1556)" fill="#1D1D1D"/>
<rect x="17.6221" y="24.4" width="5.42222" height="12.2" rx="1" fill="#1D1D1D"/>
</svg>
