<svg width="66" height="87" viewBox="0 0 66 87" fill="none" xmlns="http://www.w3.org/2000/svg">
<rect x="61" y="5" width="77" height="56" rx="2" transform="rotate(90 61 5)" stroke="#1D1D1D" stroke-width="2"/>
<rect x="65" y="0.999969" width="85" height="64" rx="3" transform="rotate(90 65 0.999969)" stroke="#1D1D1D" stroke-width="2"/>
<rect x="33.5166" y="11" width="19" height="15" rx="4" stroke="#1D1D1D" stroke-width="2"/>
<circle cx="41.0166" cy="18.5" r="3.5" transform="rotate(-90 41.0166 18.5)" stroke="#1D1D1D" stroke-width="2"/>
<circle cx="32.6931" cy="54.9427" r="20.1765" transform="rotate(-90 32.6931 54.9427)" stroke="#1D1D1D" stroke-width="2"/>
<circle cx="32.6929" cy="54.9427" r="10.7647" transform="rotate(-90 32.6929 54.9427)" stroke="#1D1D1D" stroke-width="2"/>
<line x1="19.9837" y1="39.6402" x2="14.9837" y2="33.6402" stroke="#1D1D1D" stroke-width="2"/>
<line x1="18.3719" y1="31.7651" x2="12.3959" y2="36.7938" stroke="#1D1D1D" stroke-width="2"/>
<rect x="46.5591" y="40.5269" width="2" height="40.0168" transform="rotate(45 46.5591 40.5269)" fill="#1D1D1D"/>
<rect x="47.4961" y="68.5814" width="2" height="40.1216" transform="rotate(135 47.4961 68.5814)" fill="#1D1D1D"/>
</svg>
