<svg width="440" height="316" viewBox="0 0 440 316" fill="none" xmlns="http://www.w3.org/2000/svg">
<rect y="0.000976562" width="440" height="316" rx="7" fill="white"/>
<path fill-rule="evenodd" clip-rule="evenodd" d="M105.065 97.0642C104.568 97.2481 104.056 97.9618 102.267 100.96C101.34 102.514 100.401 104.058 100.179 104.391C99.9572 104.724 99.5519 105.404 99.2781 105.903C99.0042 106.402 98.5127 107.169 98.186 107.607C97.8592 108.046 97.2811 109.032 96.9014 109.8C96.5215 110.568 95.9238 111.605 95.5731 112.104C95.2225 112.603 94.6744 113.488 94.3552 114.07C94.036 114.652 93.4983 115.537 93.1603 116.036C92.2916 117.319 90.1896 120.739 87.6285 125.037C86.9088 126.245 86.0096 127.718 85.6302 128.311C85.2507 128.903 84.7913 129.685 84.6091 130.047C84.4268 130.409 83.8876 131.284 83.4107 131.991C82.9338 132.698 82.3229 133.719 82.053 134.26C81.783 134.8 81.3087 135.583 80.9991 135.999C80.394 136.812 79.0453 138.973 78.0738 140.687C77.256 142.13 76.9133 142.694 74.9974 145.754C73.3278 148.42 72.218 150.243 70.4866 153.164C69.969 154.038 69.1343 155.399 68.6318 156.189C68.1291 156.979 67.0992 158.704 66.343 160.021C65.5867 161.339 64.6047 162.938 64.1608 163.575C63.7167 164.212 63.0653 165.311 62.7127 166.016C62.3603 166.721 61.6808 167.878 61.2027 168.587C60.7246 169.296 60.1913 170.159 60.0174 170.504C59.8436 170.85 59.1322 172.007 58.4363 173.075C57.7406 174.144 56.8115 175.63 56.3718 176.379C55.932 177.127 55.2985 178.182 54.9639 178.723C54.6295 179.264 53.7625 180.664 53.0373 181.835C52.3123 183.005 51.5009 184.4 51.2343 184.935C50.9675 185.469 50.3473 186.465 49.856 187.147C49.3646 187.828 48.533 189.193 48.0078 190.178C47.4826 191.164 46.6825 192.478 46.2298 193.097C45.2124 194.491 44.734 195.267 43.5481 197.45C43.0364 198.392 42.2063 199.775 41.7034 200.524C40.1618 202.819 39 205.032 39 205.671C39 206.385 39.4285 206.81 40.2682 206.929C40.6091 206.977 70.1185 206.996 105.845 206.972C167.733 206.931 170.82 206.916 171.21 206.66C171.832 206.252 171.781 205.361 171.068 204.197C170.765 203.703 169.993 202.414 169.354 201.333C168.714 200.251 167.823 198.774 167.374 198.05C166.388 196.459 165.317 194.703 164.265 192.955C162.53 190.068 161.528 188.453 160.621 187.079C160.097 186.285 159.494 185.288 159.281 184.863C159.068 184.439 158.527 183.527 158.079 182.836C157.631 182.145 157.064 181.192 156.817 180.719C156.571 180.245 155.623 178.632 154.71 177.135C153.797 175.638 152.597 173.664 152.042 172.749C151.488 171.834 150.714 170.609 150.323 170.027C149.933 169.445 149.273 168.356 148.857 167.607C148.441 166.859 147.538 165.327 146.849 164.204C146.161 163.081 145.349 161.72 145.045 161.178C144.269 159.794 142.594 157.102 141.564 155.584C141.085 154.877 140.437 153.788 140.125 153.164C139.812 152.54 139.366 151.752 139.133 151.412C138.9 151.071 137.934 149.506 136.987 147.933C134.375 143.597 130.102 136.635 129.095 135.075C128.82 134.65 128.343 133.8 128.034 133.185C127.725 132.57 127.221 131.693 126.914 131.235C126.607 130.778 125.995 129.757 125.553 128.967C125.112 128.176 124.432 127.053 124.042 126.471C123.652 125.889 123.04 124.902 122.682 124.278C122.323 123.654 121.385 122.191 120.597 121.027C119.809 119.862 118.871 118.297 118.512 117.548C118.152 116.8 117.27 115.268 116.551 114.145C115.832 113.023 114.905 111.491 114.49 110.743C114.075 109.994 113.345 108.837 112.866 108.172C112.387 107.506 111.78 106.534 111.517 106.011C110.913 104.81 109.981 103.283 109.245 102.288C108.931 101.864 108.31 100.812 107.864 99.9502C107.032 98.3403 106.13 97.1477 105.647 97.0214C105.496 96.9821 105.234 97.0013 105.065 97.0642ZM118.828 140.989C120.305 141.302 123.457 142.36 124.719 142.966C126.171 143.663 127.3 144.612 128.821 146.415C130.243 148.1 130.656 148.875 131.568 151.576C132.977 155.745 132.986 159.133 131.604 164.328C130.833 167.225 130.827 167.566 131.531 168.613C132.324 169.79 132.535 170.257 133.303 172.522C134.168 175.071 134.533 177.136 134.414 178.811C134.303 180.388 133.654 183.305 133.082 184.795C132.539 186.212 132.181 186.751 130.508 188.675C129.092 190.305 127.712 191.333 125.261 192.586C123.045 193.719 122.062 193.908 118.375 193.908C114.849 193.908 113.984 193.757 111.77 192.762C110.068 191.996 109.503 192.049 107.645 193.151C106.817 193.642 105.614 194.412 104.97 194.863C104.327 195.313 103.171 195.941 102.402 196.259C101.633 196.577 100.48 197.08 99.8382 197.377C98.0676 198.199 96.3872 198.753 93.3973 199.504C89.9344 200.374 89.2394 200.443 84.8425 200.348L81.2174 200.27L79.1782 199.571C76.3084 198.586 75.6806 198.274 73.9468 196.972C71.8599 195.405 70.5138 193.906 69.4779 191.993C67.9487 189.17 67.3964 187.017 67.3971 183.883C67.3977 181.415 67.6287 179.701 68.2553 177.513C69.3223 173.788 71.5105 169.045 73.279 166.624C73.674 166.084 74.2919 165.199 74.6521 164.658C75.9694 162.681 78.4034 159.834 80.8999 157.349C83.8398 154.423 85.5317 153.003 90.483 149.308C91.6882 148.408 96.1268 145.844 97.8324 145.062C98.497 144.757 99.8225 144.148 100.778 143.709C103.493 142.459 108.804 141.118 112.424 140.769C114.254 140.592 117.477 140.703 118.828 140.989ZM113.906 146.874C113.872 146.908 113.028 147.008 112.031 147.096C109.89 147.285 105.751 148.416 103.634 149.391C102.92 149.719 102.286 149.988 102.224 149.988C101.954 149.988 99.8321 150.998 98.5877 151.719C97.84 152.152 96.8429 152.72 96.372 152.981C93.8941 154.354 89.1731 158.127 85.1665 161.936C82.4575 164.511 77.6965 171.177 75.7782 175.08C74.7052 177.263 73.4385 181.858 73.4385 183.566C73.4385 186.305 74.8295 189.238 77.1634 191.42C78.6709 192.83 79.8832 193.411 82.3692 193.914C85.0382 194.455 86.86 194.437 90.0706 193.84C91.432 193.587 92.8857 193.271 93.301 193.138C96.629 192.072 102.477 189.226 103.675 188.09C104.535 187.274 104.605 186.803 104.049 185.604C102.523 182.321 102.02 178.264 102.723 174.901C103.564 170.879 104.585 169.046 107.619 166.11C108.59 165.17 109.283 164.639 109.916 164.35C113.854 162.551 113.782 162.577 115.7 162.311C118.118 161.976 120.083 162.064 122.5 162.616C124.288 163.025 124.381 163.032 124.888 162.789C125.286 162.6 125.518 162.322 125.823 161.669C126.218 160.825 126.229 160.725 126.228 158.004C126.227 154.943 126.15 154.564 125.06 152.257C124.194 150.424 121.579 148.197 119.562 147.573C118.083 147.116 114.154 146.63 113.906 146.874ZM198.945 154.218C197.529 154.361 196.942 154.546 195.408 155.334C194.419 155.842 193.885 156.273 192.463 157.708C190.594 159.595 189.952 160.525 189.318 162.263L188.913 163.373L188.873 184.261C188.841 200.801 188.872 205.272 189.024 205.737C189.175 206.199 189.36 206.397 189.895 206.669C190.572 207.013 190.596 207.014 196.314 206.971C202.731 206.923 202.673 206.933 203.237 205.878L203.565 205.265L203.64 191.2C203.7 180.132 203.757 177.063 203.91 176.795C204.202 176.283 204.841 176.348 205.398 176.946C206.162 177.767 207.708 179.922 208.123 180.745C208.562 181.616 210.759 184.825 212.175 186.663C212.688 187.328 213.867 188.996 214.796 190.368C215.724 191.741 216.756 193.238 217.089 193.695C217.838 194.725 217.988 195.442 217.564 195.967L217.262 196.342L213.502 196.418C208.206 196.524 208.474 196.244 208.474 201.674C208.474 205.109 208.49 205.308 208.813 205.951C209.366 207.049 209.114 207.025 219.192 206.966C229.19 206.908 228.586 206.976 231.143 205.623C232.863 204.714 233.979 203.651 234.655 202.279C236.41 198.717 235.816 194.673 233.096 191.668C232.627 191.15 231.979 190.288 231.657 189.753C231.335 189.218 230.422 187.877 229.628 186.772C228.834 185.668 227.85 184.273 227.44 183.672C225.335 180.587 223.579 178.076 222.817 177.059C222.35 176.436 221.233 174.836 220.335 173.505C218.576 170.896 217.845 169.9 216.397 168.137C215.885 167.513 214.838 166.015 214.071 164.809C211.436 160.665 210.072 158.936 207.935 157.031C205.279 154.663 202.654 153.842 198.945 154.218ZM385.52 154.304C384.293 154.584 382.131 155.723 380.906 156.735C379.99 157.492 378.12 159.567 377.419 160.605C377.234 160.879 376.618 161.819 376.051 162.692C375.483 163.565 374.628 164.773 374.151 165.375C373.673 165.977 373.033 166.946 372.728 167.528C372.422 168.109 371.778 169.046 371.295 169.609C370.29 170.78 365.994 176.721 365.251 177.967C364.978 178.424 364.405 179.241 363.977 179.782C363.107 180.881 361.273 183.428 360.275 184.924C359.914 185.464 358.69 187.166 357.555 188.705C353.523 194.173 352.879 195.508 352.875 198.414C352.872 200.285 353.289 201.384 354.704 203.246C355.778 204.659 356.351 205.144 357.866 205.922C359.979 207.007 360.144 207.021 369.866 206.972C379.435 206.924 379.146 206.955 379.719 205.905C380.112 205.186 380.206 198.653 379.838 197.689C379.4 196.539 379.267 196.503 375.153 196.418C370.857 196.328 370.729 196.29 370.843 195.132C370.892 194.642 372.795 191.772 376.159 187.117C376.7 186.368 377.78 184.803 378.558 183.638C379.337 182.474 380.22 181.206 380.522 180.82C380.823 180.435 381.396 179.562 381.795 178.88C382.997 176.828 383.933 176.083 384.577 176.666C384.934 176.99 385.073 179.354 385.079 185.226C385.082 187.597 385.086 190.302 385.089 191.238C385.1 194.756 385.073 199.322 385.023 202.417C384.973 205.461 384.986 205.64 385.284 206.047C385.456 206.282 385.83 206.596 386.115 206.745C386.593 206.994 387.107 207.01 392.901 206.954C396.348 206.921 399.356 206.843 399.585 206.78L400 206.666V185.27C400 164.468 399.992 163.862 399.712 163.468C399.554 163.246 399.308 162.657 399.166 162.159C398.672 160.427 397.931 159.249 396.305 157.611C394.665 155.959 393.799 155.434 391.315 154.586C390.314 154.244 389.795 154.166 388.294 154.129C387.101 154.1 386.152 154.16 385.52 154.304ZM240.441 155.135C240.204 155.206 239.872 155.387 239.703 155.537C238.957 156.203 238.985 155.29 238.985 178.773C238.985 192.911 239.039 201.049 239.137 201.566C239.459 203.263 240.491 204.83 241.767 205.558C242.106 205.752 243.029 206.139 243.818 206.419L245.253 206.928H262.699H280.145L280.772 206.593C281.117 206.408 281.613 205.999 281.873 205.685C282.678 204.711 282.812 203.932 282.759 200.518C282.707 197.144 282.646 196.93 281.569 196.38C281.088 196.134 280.136 196.116 268.197 196.115C259.421 196.115 255.195 196.064 254.877 195.953C253.901 195.612 253.868 195.448 253.814 190.671C253.764 186.15 253.83 185.508 254.406 184.986C254.713 184.708 255.167 184.694 266.103 184.621C277.347 184.546 277.485 184.542 277.906 184.229C278.745 183.607 278.786 183.379 278.786 179.226C278.786 175.613 278.77 175.396 278.473 174.991C277.743 173.995 278.253 174.035 266.357 174.035C254.608 174.035 254.792 174.048 254.341 173.175C254.174 172.852 254.106 172.011 254.066 169.792C254.019 167.132 254.042 166.796 254.29 166.416C254.863 165.541 254.452 165.566 268.363 165.566C282.273 165.566 281.864 165.59 282.437 164.716C282.683 164.34 282.717 163.874 282.755 160.431C282.803 156.07 282.74 155.749 281.731 155.244C281.235 154.996 279.948 154.98 261.038 154.992C249.947 154.999 240.679 155.063 240.441 155.135ZM289.275 155.112C288.499 155.369 288.195 155.621 287.914 156.239C287.638 156.848 287.628 157.608 287.627 178.874C287.626 202.885 287.593 201.917 288.483 203.554C289.023 204.549 290.152 205.572 291.289 206.097C293.266 207.012 293.119 207.004 309.328 207C317.659 206.998 324.358 206.937 324.692 206.859C325.541 206.662 326.437 205.977 326.966 205.121L327.422 204.381V201.028C327.422 198.552 327.371 197.577 327.224 197.303C326.775 196.462 327.288 196.499 314.961 196.418C306.512 196.362 303.476 196.295 303.243 196.161C302.457 195.709 302.505 196.903 302.424 176.009C302.353 157.75 302.332 156.529 302.082 156.147C301.491 155.243 301.318 155.207 297.597 155.2C295.724 155.196 293.173 155.146 291.927 155.089C290.68 155.031 289.487 155.041 289.275 155.112ZM317.842 155.239C317.557 155.387 317.183 155.7 317.011 155.935C316.719 156.333 316.695 156.6 316.651 159.966C316.597 164.056 316.679 164.614 317.419 165.142C317.906 165.489 317.919 165.49 324.484 165.566C330.525 165.635 331.096 165.664 331.483 165.918C332.372 166.502 332.331 165.534 332.34 186.091C332.346 200.305 332.393 205.09 332.529 205.477C332.628 205.761 332.901 206.135 333.135 206.309C333.544 206.613 333.761 206.628 338.545 206.671C342.742 206.71 343.66 206.679 344.352 206.477C345.391 206.175 346.426 205.226 346.664 204.357C346.78 203.933 346.83 198.289 346.831 185.486C346.832 165.586 346.792 166.501 347.681 165.918C348.067 165.664 348.635 165.635 354.604 165.566C361.599 165.484 361.531 165.492 361.965 164.68C362.114 164.401 362.163 163.323 362.163 160.336C362.163 154.849 362.337 155.047 357.556 155.068C355.853 155.076 353.678 155.084 352.723 155.086C351.767 155.088 350.476 155.116 349.853 155.148C349.23 155.18 347.326 155.193 345.623 155.178C321.146 154.957 318.372 154.963 317.842 155.239Z" fill="#1D1D1D"/>
</svg>
