<svg width="440" height="316" viewBox="0 0 440 316" fill="none" xmlns="http://www.w3.org/2000/svg">
<rect y="0.000976562" width="440" height="316" rx="7" fill="white"/>
<path fill-rule="evenodd" clip-rule="evenodd" d="M38.366 109.368C38.0356 109.699 38 114.412 38 157.768C38 201.123 38.0356 205.837 38.366 206.168C38.6948 206.497 41.5314 206.534 66.1073 206.534C82.5861 206.534 93.6441 206.448 93.8882 206.317C94.2904 206.101 95.169 203.586 97.8885 194.868C98.5488 192.75 99.5977 189.39 100.219 187.401C102.618 179.724 102.472 180.368 101.939 179.834C101.614 179.509 99.9313 179.468 86.9281 179.468C73.9249 179.468 72.242 179.427 71.9167 179.101C71.6159 178.8 71.5507 178.1 71.5507 175.181C71.5507 172.728 71.6374 171.541 71.8303 171.348C72.0423 171.135 76.0344 171.068 88.3727 171.068C103.557 171.068 104.662 171.041 105.043 170.659C105.44 170.261 106.176 168.157 107.677 163.134C109.016 158.653 110.256 154.663 111.689 150.219C112.766 146.88 113.049 145.728 112.865 145.436C112.644 145.085 110.864 145.041 92.4174 144.934C72.756 144.821 72.2031 144.806 71.8813 144.365C71.6364 144.029 71.5507 143.136 71.5507 140.923C71.5507 138.245 71.5992 137.886 72.0167 137.468C72.4759 137.008 72.7933 137.001 93.8118 137.001H115.141L115.713 136.428C116.028 136.113 116.285 135.667 116.284 135.436C116.283 135.206 116.609 133.968 117.007 132.684C117.406 131.401 118.043 129.301 118.424 128.018C118.805 126.734 119.299 125.159 119.524 124.518C120.515 121.685 120.77 120.876 121.396 118.568C122.706 113.74 122.832 113.301 123.284 112.019C123.807 110.531 123.862 109.683 123.461 109.281C123.246 109.065 113.488 109.001 80.9568 109.001C42.8816 109.001 38.6962 109.037 38.366 109.368ZM172.103 109.834C171.779 110.159 171.737 111.697 171.737 123.234C171.737 134.772 171.779 136.31 172.103 136.634C172.427 136.959 174.014 137.001 186.046 137.001C199.271 137.001 199.634 137.013 200.04 137.462C200.406 137.867 200.446 138.296 200.368 141.02C200.32 142.724 200.281 157.61 200.282 174.101C200.283 204.424 200.331 206.287 201.121 206.79C201.302 206.905 210.857 206.971 222.875 206.94C247.285 206.877 245.62 207.047 242.888 204.897C241.092 203.483 238.955 201.378 237.44 199.53C236.864 198.827 236.2 198.041 235.966 197.784C235.386 197.148 233.082 193.87 232.111 192.301C231.149 190.744 227.578 183.629 227.055 182.227C226.211 179.961 224.683 174.343 224.369 172.351C223.818 168.859 223.628 166.192 223.628 161.968C223.628 154.309 224.393 149.576 226.696 142.998C228.128 138.909 228.276 138.548 229.629 135.847C232.128 130.856 235.309 126.381 239.071 122.563C244.515 117.038 248.06 114.656 256.604 110.78C257.976 110.158 258.224 109.859 257.575 109.609C257.372 109.531 238.14 109.468 214.838 109.468C176.632 109.468 172.433 109.504 172.103 109.834ZM307.238 109.834C306.907 110.165 306.872 114.879 306.872 158.234C306.872 201.59 306.907 206.303 307.238 206.634C307.562 206.959 309.161 207.001 321.317 207.001C333.473 207.001 335.072 206.959 335.396 206.634C335.725 206.305 335.763 203.309 335.766 177.176C335.768 161.014 335.86 147.941 335.973 147.763C336.43 147.04 336.448 147.084 339.033 155.494C339.536 157.131 340.36 159.808 340.864 161.444C341.367 163.079 341.908 164.943 342.066 165.584C342.224 166.226 342.748 168.011 343.23 169.551C343.712 171.091 344.314 173.086 344.568 173.984C346.211 179.801 346.911 182.205 347.865 185.301C348.36 186.905 348.989 189.005 349.264 189.968C349.538 190.93 350.062 192.715 350.427 193.934C350.793 195.153 351.317 196.938 351.592 197.901C352.129 199.777 353.322 203.796 353.74 205.134C353.88 205.583 354.099 206.082 354.227 206.243C354.41 206.472 359.364 206.534 377.588 206.534C398.464 206.534 400.731 206.498 400.859 206.165C400.936 205.962 401 184.287 401 157.999C401 114.857 400.964 110.165 400.634 109.834C400.309 109.509 398.717 109.468 386.596 109.471C378.39 109.473 372.785 109.563 372.575 109.696C372.272 109.888 372.203 112.353 372.054 128.417C371.789 157.005 371.648 167.423 371.521 167.769C371.347 168.245 370.784 167.697 370.517 166.791C370.396 166.384 369.983 165.001 369.597 163.718C369.211 162.434 368.67 160.597 368.395 159.634C368.12 158.672 367.491 156.572 366.996 154.968C366.502 153.363 365.767 150.948 365.362 149.601C364.192 145.702 363.28 142.654 362.568 140.268C362.204 139.048 361.583 136.974 361.188 135.658C359.322 129.438 358.99 128.333 358.355 126.208C357.98 124.955 357.351 122.855 356.957 121.541C356.562 120.226 355.926 118.101 355.543 116.818C354.005 111.66 353.37 109.897 352.974 109.685C352.731 109.555 343.537 109.468 330.086 109.468C309.958 109.468 307.565 109.506 307.238 109.834ZM154.906 130.266C154.722 130.569 154.243 131.868 153.842 133.151C153.157 135.341 152.781 136.623 151.65 140.618C151.396 141.516 150.785 143.563 150.292 145.168C149.467 147.853 148.713 150.35 147.545 154.268C147.296 155.102 146.958 156.329 146.793 156.995C146.289 159.029 145.891 158.934 154.971 158.934C159.302 158.934 163.011 158.871 163.214 158.793C163.937 158.515 163.612 156.899 161.27 149.134C160.903 147.915 160.379 146.13 160.107 145.168C159.834 144.205 159.512 143.103 159.39 142.718C159.268 142.333 158.911 141.02 158.596 139.801C157.398 135.164 155.926 130.479 155.526 130.032C155.289 129.768 155.184 129.807 154.906 130.266ZM276.466 141.888C276.21 142.006 275.547 142.109 274.993 142.118C273.591 142.141 270.82 143.119 268.826 144.294C267.782 144.91 266.25 146.177 264.776 147.645C262.644 149.768 262.279 150.261 261.149 152.545C260.458 153.941 259.757 155.557 259.59 156.134C259.423 156.712 259.194 157.489 259.081 157.861C258.968 158.233 258.875 160.291 258.875 162.434C258.875 164.578 258.968 166.636 259.081 167.008C259.194 167.38 259.423 168.157 259.59 168.734C260.434 171.667 263.05 175.58 265.518 177.601C268.93 180.397 272.864 181.801 277.282 181.801C280.537 181.801 282.651 181.296 285.684 179.794C288.985 178.16 290.566 176.771 293.051 173.319C294.323 171.553 295.042 169.895 295.828 166.915C296.224 165.414 296.269 159.675 295.898 158.063C295.003 154.169 293.924 151.687 292.12 149.368C288.979 145.328 284.997 142.777 280.777 142.099C278.584 141.746 276.951 141.667 276.466 141.888ZM139.661 181.482C139.512 181.544 138.81 183.399 138.102 185.606C136.898 189.358 136.51 190.62 134.664 196.791C134.27 198.107 133.539 200.471 133.038 202.045C132.143 204.859 131.932 206.152 132.33 206.398C132.441 206.467 142.637 206.529 154.989 206.536L177.445 206.548L177.411 205.55C177.392 205 177.167 203.868 176.911 203.034C176.656 202.2 176.229 200.755 175.963 199.824C174.776 195.664 174.472 194.618 173.846 192.534C173.479 191.315 173.05 189.793 172.891 189.151C172.733 188.509 172.298 186.987 171.924 185.768C171.551 184.548 171.128 183.151 170.983 182.662C170.839 182.172 170.537 181.674 170.312 181.553C169.901 181.333 140.195 181.264 139.661 181.482Z" fill="#1D1D1D"/>
</svg>
