<svg width="24" height="22" viewBox="0 0 24 22" fill="none" xmlns="http://www.w3.org/2000/svg">
<path d="M21.7712 2.36415C20.531 1.12396 18.8891 0.446124 17.1368 0.446124C15.3844 0.446124 13.7375 1.12898 12.4973 2.36918L11.8496 3.01689L11.1919 2.35913C9.95169 1.11894 8.29977 0.431061 6.54744 0.431061C4.80012 0.431061 3.15323 1.11392 1.91806 2.34909C0.677865 3.58928 -0.00499353 5.23618 2.74937e-05 6.98852C2.74937e-05 8.74085 0.687907 10.3827 1.9281 11.6229L11.3576 21.0524C11.4881 21.1829 11.6639 21.2532 11.8346 21.2532C12.0053 21.2532 12.181 21.188 12.3116 21.0574L21.7611 11.643C23.0013 10.4028 23.6842 8.75592 23.6842 7.00358C23.6892 5.25124 23.0114 3.60435 21.7712 2.36415ZM20.8071 10.684L11.8346 19.6214L2.88209 10.6689C1.89797 9.6848 1.3557 8.37934 1.3557 6.98852C1.3557 5.59769 1.89295 4.29223 2.87707 3.31313C3.85617 2.33403 5.16163 1.79176 6.54744 1.79176C7.93826 1.79176 9.24874 2.33403 10.2329 3.31815L11.3676 4.4529C11.6337 4.71901 12.0605 4.71901 12.3266 4.4529L13.4513 3.32819C14.4355 2.34407 15.7459 1.8018 17.1317 1.8018C18.5175 1.8018 19.823 2.34407 20.8071 3.32317C21.7913 4.30729 22.3285 5.61276 22.3285 7.00358C22.3335 8.3944 21.7913 9.69987 20.8071 10.684Z" fill="white"/>
</svg>
