<svg width="24" height="22" viewBox="0 0 24 22" fill="none" xmlns="http://www.w3.org/2000/svg">
<path d="M23.5945 4.1754C23.4652 4.00825 23.2658 3.91034 23.0545 3.91034H5.69451L4.93629 0.99364C4.85813 0.692825 4.58661 0.48291 4.27579 0.48291H0.735164C0.358281 0.48291 0.0527344 0.788457 0.0527344 1.16534C0.0527344 1.54222 0.358281 1.84777 0.735164 1.84777H3.74804L4.50627 4.76447C4.50627 4.76456 4.50627 4.76456 4.50636 4.76465L7.17975 15.0438C7.25791 15.3445 7.52943 15.5544 7.84016 15.5544H20.3807C20.6914 15.5544 20.9629 15.3445 21.0411 15.0438L23.7148 4.76447C23.7682 4.56011 23.7237 4.34246 23.5945 4.1754ZM10.7784 14.1896H8.36791L7.83179 12.1285H10.7784V14.1896ZM10.7784 10.7636H7.47684L6.94045 8.70109H10.7784V10.7636ZM10.7784 7.33623H6.5854L6.04938 5.2752H10.7784V7.33623ZM16.0779 14.1896H12.1433V12.1285H16.0779V14.1896ZM16.0779 10.7636H12.1433V8.70109H16.0779V10.7636ZM16.0779 7.33623H12.1433V5.2752H16.0779V7.33623ZM19.8531 14.1896H17.4428V12.1285H20.3892L19.8531 14.1896ZM20.7443 10.7636H17.4428V8.70109H21.2807L20.7443 10.7636ZM21.6358 7.33623H17.4429V5.2752H22.172L21.6358 7.33623Z" fill="white"/>
<path d="M9.65098 16.1099C8.27648 16.1099 7.1582 17.2281 7.1582 18.6026C7.1582 19.9772 8.27648 21.0957 9.65098 21.0957C11.0254 21.0957 12.1437 19.9772 12.1437 18.6026C12.1437 17.2281 11.0255 16.1099 9.65098 16.1099ZM9.65098 19.7308C9.02906 19.7308 8.52306 19.2247 8.52306 18.6026C8.52306 17.9806 9.02906 17.4747 9.65098 17.4747C10.2728 17.4747 10.7788 17.9807 10.7788 18.6026C10.7788 19.2247 10.2729 19.7308 9.65098 19.7308Z" fill="white"/>
<path d="M18.5705 16.1099C17.1962 16.1099 16.0781 17.2281 16.0781 18.6026C16.0781 19.9772 17.1962 21.0957 18.5705 21.0957C19.9451 21.0957 21.0633 19.9772 21.0633 18.6026C21.0633 17.2281 19.945 16.1099 18.5705 16.1099ZM18.5705 19.7308C17.9488 19.7308 17.443 19.2247 17.443 18.6026C17.443 17.9806 17.9488 17.4747 18.5705 17.4747C19.1925 17.4747 19.6985 17.9807 19.6985 18.6026C19.6985 19.2247 19.1925 19.7308 18.5705 19.7308Z" fill="white"/>
</svg>
