<svg width="24" height="22" viewBox="0 0 24 22" fill="none" xmlns="http://www.w3.org/2000/svg">
<path d="M21.7717 2.36412C20.5315 1.12393 18.8896 0.446093 17.1373 0.446093C15.3849 0.446093 13.738 1.12895 12.4978 2.36914L11.8501 3.01686L11.1924 2.3591C9.95218 1.11891 8.30026 0.43103 6.54792 0.43103C4.80061 0.43103 3.15372 1.11389 1.91855 2.34906C0.678353 3.58925 -0.00450524 5.23615 0.000515775 6.98849C0.000515775 8.74082 0.688395 10.3827 1.92859 11.6229L11.3581 21.0524C11.4886 21.1829 11.6643 21.2532 11.8351 21.2532C12.0058 21.2532 12.1815 21.1879 12.3121 21.0574L21.7616 11.643C23.0018 10.4028 23.6847 8.75589 23.6847 7.00355C23.6897 5.25121 23.0118 3.60432 21.7717 2.36412Z" fill="#45A6FF"/>
</svg>
