<svg width="18" height="16" viewBox="0 0 18 16" fill="none" xmlns="http://www.w3.org/2000/svg">
<path d="M16.5466 1.46915C15.604 0.526605 14.3562 0.011448 13.0244 0.011448C11.6927 0.011448 10.441 0.530421 9.49847 1.47297L9.00621 1.96523L8.50632 1.46534C7.56377 0.522789 6.30831 0 4.97654 0C3.64858 0 2.39694 0.518973 1.45821 1.4577C0.515666 2.40025 -0.0033068 3.65189 0.000509176 4.98367C0.000509176 6.31544 0.523298 7.56327 1.46584 8.50581L8.63224 15.6722C8.73146 15.7714 8.86502 15.8249 8.99476 15.8249C9.1245 15.8249 9.25806 15.7752 9.35728 15.676L16.5389 8.52108C17.4815 7.57853 18.0005 6.32689 18.0005 4.99511C18.0043 3.66334 17.4891 2.4117 16.5466 1.46915ZM15.8139 7.79223L8.99476 14.5847L2.19088 7.78078C1.44295 7.03285 1.03082 6.04069 1.03082 4.98367C1.03082 3.92664 1.43913 2.93449 2.18706 2.19037C2.93118 1.44626 3.92333 1.03413 4.97654 1.03413C6.03356 1.03413 7.02953 1.44626 7.77746 2.19419L8.63987 3.0566C8.84212 3.25884 9.16648 3.25884 9.36873 3.0566L10.2235 2.20182C10.9714 1.45389 11.9674 1.04176 13.0206 1.04176C14.0738 1.04176 15.066 1.45389 15.8139 2.198C16.5618 2.94593 16.9701 3.93809 16.9701 4.99511C16.974 6.05214 16.5618 7.04429 15.8139 7.79223Z" fill="white"/>
<path d="M12 0.912415L9 2.41241L6 0.912415H3L0 4.91241L1 7.91241L9 14.9124L17 7.91241L17.5 4.91241L16.5 2.41241L15 0.912415H12Z" fill="white"/>
</svg>
