<svg width="440" height="316" viewBox="0 0 440 316" fill="none" xmlns="http://www.w3.org/2000/svg">
<rect y="0.000976562" width="440" height="316" rx="7" fill="white"/>
<path fill-rule="evenodd" clip-rule="evenodd" d="M267.576 124.276C267.162 124.41 266.408 124.534 265.9 124.551C264.505 124.597 258.753 126.567 256.484 127.776C251.811 130.267 247.891 134.244 245.403 139.018C244.258 141.214 242.885 145.703 242.885 147.246C242.885 147.74 242.725 148.926 242.53 149.882C242.172 151.634 242.21 152.091 243.192 157.772C244.282 164.072 247.858 170.245 252.543 173.91C255.058 175.877 259.351 178.261 261.399 178.828C265.049 179.838 266.725 180.001 273.45 180.001C279.792 180.001 280.594 179.941 282.935 179.286C289.383 177.484 292.755 174.633 295.933 168.295C297.609 164.95 298.16 163.349 298.456 160.952C298.631 159.538 298.582 159.311 298.04 159.018C297.659 158.811 295.268 158.686 291.732 158.686C286.598 158.686 285.989 158.74 285.539 159.243C285.265 159.549 285.041 160.204 285.041 160.697C285.041 162.905 281.647 168.108 279.231 169.603C277.679 170.565 274.534 171.475 272.764 171.475C268.783 171.475 265.069 169.779 261.975 166.551C259.264 163.72 258.679 162.841 257.783 160.247C256.125 155.448 255.857 152.211 256.696 147.114C257.589 141.69 260.922 136.839 265.331 134.546C266.983 133.688 269.875 133.107 272.499 133.107C275.443 133.107 277.934 133.862 280.515 135.537C282.827 137.037 285.02 140.599 285.034 142.874C285.039 143.613 285.265 144.176 285.738 144.625C286.4 145.254 286.705 145.287 291.844 145.287C298.586 145.287 298.715 145.231 298.409 142.445C297.954 138.313 296.351 135.175 292.847 131.561C290.957 129.611 290.028 128.934 287.436 127.619C282.277 125.001 277.851 123.956 272.114 124.002C270.032 124.019 267.99 124.142 267.576 124.276ZM58.4983 125.747C58.0431 126.256 58 128.498 58 151.735C58 175.985 58.0256 177.189 58.5507 177.67C59.019 178.098 59.8904 178.174 64.3758 178.174C69.103 178.174 69.7019 178.116 70.1485 177.617C70.5911 177.122 70.6468 175.936 70.6468 167.027C70.6468 158.439 70.7143 156.897 71.1157 156.317L71.5842 155.641H84.2277H96.8713L97.6102 156.388L98.3494 157.135V167.151C98.3494 176.467 98.388 177.201 98.9002 177.67C99.3657 178.096 100.219 178.174 104.424 178.174C108.86 178.174 109.451 178.114 109.896 177.617C110.351 177.108 110.394 174.866 110.394 151.629C110.394 127.378 110.368 126.174 109.843 125.694C109.378 125.268 108.524 125.19 104.319 125.19C99.8839 125.19 99.2922 125.25 98.8478 125.747C98.4076 126.239 98.3494 127.36 98.3494 135.353V144.402L97.6102 145.149L96.8713 145.896H84.2277H71.5842L71.1157 145.219C70.7164 144.643 70.6468 143.179 70.6468 135.37C70.6468 126.871 70.6065 126.161 70.0961 125.694C69.6279 125.266 68.7564 125.19 64.271 125.19C59.5438 125.19 58.9449 125.248 58.4983 125.747ZM121.13 125.747C120.675 126.256 120.632 128.498 120.632 151.735C120.632 175.985 120.658 177.189 121.183 177.67C121.657 178.105 122.585 178.174 127.911 178.174C133.514 178.174 134.135 178.122 134.587 177.617C135.042 177.108 135.086 174.866 135.086 151.629C135.086 127.378 135.06 126.174 134.535 125.694C134.06 125.259 133.132 125.19 127.806 125.19C122.204 125.19 121.582 125.242 121.13 125.747ZM139.799 125.747C139.388 126.207 139.301 127.017 139.301 130.42C139.301 134.107 139.362 134.591 139.886 135.07C140.422 135.561 141.094 135.591 147.941 135.432C152.049 135.337 156.044 135.17 156.818 135.06C158.068 134.882 158.312 134.948 159.001 135.645L159.777 136.429V156.798C159.777 176.143 159.805 177.191 160.328 177.67C160.795 178.098 161.662 178.174 166.068 178.174C169.071 178.174 171.504 178.041 171.841 177.859C172.408 177.552 172.424 176.999 172.424 156.986V136.429L173.163 135.682L173.902 134.934H182.601C190.647 134.934 191.338 134.892 191.799 134.377C192.207 133.922 192.297 133.128 192.297 130.009C192.297 126.704 192.224 126.131 191.747 125.694C191.243 125.233 189.005 125.19 165.747 125.19C141.475 125.19 140.275 125.216 139.799 125.747ZM205.643 125.875C205.308 126.252 204.395 127.999 203.616 129.758C202.22 132.905 201.551 134.387 197.567 143.156C196.464 145.584 194.973 148.873 194.256 150.464C193.538 152.055 192.27 154.864 191.439 156.706C189.479 161.051 183.655 174.075 183.095 175.368C182.527 176.678 182.545 177.759 183.138 177.989C183.4 178.091 186.357 178.174 189.71 178.174C196.88 178.174 196.435 178.384 198.116 174.215C199.877 169.851 200.421 168.774 201.106 168.288C201.671 167.888 203.403 167.821 213.142 167.821C226.325 167.821 225.052 167.485 226.828 171.427C227.406 172.71 228.238 174.561 228.678 175.542C229.117 176.524 229.746 177.517 230.075 177.75C230.538 178.078 232.046 178.174 236.754 178.174C240.099 178.174 243.05 178.091 243.312 177.989C243.952 177.741 243.912 176.64 243.205 175.061C242.292 173.02 239.904 167.536 239.124 165.689C238.736 164.768 237.661 162.368 236.737 160.355C235.812 158.342 235.056 156.604 235.056 156.494C235.056 156.315 232.704 150.901 229.79 144.374C228.604 141.716 226.294 136.43 225.265 134.021C222.593 127.76 221.719 125.906 221.283 125.571C220.919 125.29 218.87 125.19 213.521 125.19C206.366 125.19 206.244 125.201 205.643 125.875ZM305.413 125.747C304.958 126.256 304.915 128.498 304.915 151.735C304.915 175.985 304.94 177.189 305.465 177.67C305.942 178.106 306.889 178.174 312.495 178.174C318.484 178.174 319.013 178.13 319.493 177.594C319.963 177.068 319.996 176.372 319.842 170.209C319.748 166.467 319.594 161.991 319.499 160.262C319.358 157.692 319.414 156.985 319.806 156.38L320.285 155.641H332.036H343.786L344.525 156.388L345.264 157.135V167.151C345.264 176.467 345.302 177.201 345.815 177.67C346.289 178.105 347.217 178.174 352.543 178.174C358.146 178.174 358.767 178.122 359.219 177.617C359.674 177.108 359.717 174.866 359.717 151.629C359.717 127.378 359.692 126.174 359.167 125.694C358.692 125.259 357.764 125.19 352.438 125.19C346.836 125.19 346.214 125.242 345.762 125.747C345.323 126.238 345.264 127.339 345.264 135.048V143.793L344.525 144.54L343.786 145.287H332.046H320.305L319.837 144.61C319.439 144.036 319.368 142.599 319.368 135.066C319.368 126.861 319.327 126.16 318.817 125.694C318.343 125.259 317.415 125.19 312.089 125.19C306.486 125.19 305.865 125.242 305.413 125.747ZM370.454 125.747C369.998 126.256 369.955 128.498 369.955 151.735C369.955 175.985 369.981 177.189 370.506 177.67C370.972 178.096 371.825 178.174 376.03 178.174C380.466 178.174 381.057 178.114 381.502 177.617C381.957 177.108 382 174.866 382 151.629C382 127.378 381.974 126.174 381.449 125.694C380.984 125.268 380.13 125.19 375.925 125.19C371.49 125.19 370.898 125.25 370.454 125.747ZM214.187 138.664C215.536 141.69 220.903 155.705 220.903 156.204C220.903 156.552 220.641 156.979 220.321 157.152C219.697 157.49 206.558 157.607 205.722 157.283C205.46 157.181 205.245 156.756 205.245 156.339C205.245 155.512 207.228 150.262 209.361 145.44C210.102 143.765 211.066 141.572 211.503 140.568C211.94 139.563 212.422 138.569 212.573 138.36C213.007 137.757 213.853 137.916 214.187 138.664Z" fill="#1D1D1D"/>
</svg>
