<svg width="60" height="42" viewBox="0 0 60 42" fill="none" xmlns="http://www.w3.org/2000/svg">
<path d="M0 0V3.99926H44.5952V31.1371H56.4502V3.99926H59.7353V0H0Z" fill="white"/>
<path d="M19.9158 6.57016H11.3459V33.708H8.56985V6.57016H0V37.7073H44.5952V41.8494H56.593V33.708H19.9158V6.57016Z" fill="white"/>
<path d="M31.1853 26.1031H22.4038V31.072H31.2801L31.3261 31.0704C37.787 30.8318 42.3152 25.5114 42.0931 18.4194C41.8755 11.4741 37.1021 6.47013 30.7838 6.52579H22.4939V11.495L30.805 11.4949C30.826 11.4947 30.8466 11.4946 30.8675 11.4946C34.0087 11.4946 35.906 13.5089 36.6983 16.0126H25.8841V20.9818H36.9086C36.3121 23.6867 34.4922 25.9621 31.1853 26.1031Z" fill="#FF5B4F"/>
</svg>
