<svg width="23" height="22" viewBox="0 0 23 22" fill="none" xmlns="http://www.w3.org/2000/svg">
<path d="M11.4095 12.2369C14.793 12.2369 17.5373 9.49248 17.5373 6.10904C17.5373 2.7256 14.7929 0 11.4095 0C8.02604 0 5.28166 2.74438 5.28166 6.10904C5.28166 9.47371 8.026 12.2369 11.4095 12.2369ZM11.4095 1.59775C13.8907 1.59775 15.9208 3.62781 15.9208 6.10904C15.9208 8.59027 13.8907 10.6203 11.4095 10.6203C8.92829 10.6203 6.89819 8.59023 6.89819 6.109C6.89819 3.62777 8.92825 1.59775 11.4095 1.59775Z" fill="white"/>
<path d="M7.89453 10.6654L11.3945 11.6654L14.8945 10.6654L16.8945 6.16542L14.8945 2.16542L11.3945 0.665424L7.89453 2.16542L5.89453 6.16542L7.89453 10.6654Z" fill="white"/>
<path d="M0.808262 21.8045H22.0865C22.5376 21.8045 22.8947 21.4474 22.8947 20.9962C22.8947 16.7669 19.4549 13.3083 15.2068 13.3083H7.68798C3.45865 13.3083 0 16.7481 0 20.9962C0 21.4474 0.357137 21.8045 0.808262 21.8045ZM7.68798 14.9248H15.2068C18.2895 14.9248 20.827 17.218 21.2218 20.1879H1.67293C2.06765 17.2369 4.60528 14.9248 7.68798 14.9248Z" fill="white"/>
<path d="M21.8945 21.1654H0.894531L1.39453 18.1654L4.39453 14.6654L11.3945 14.1654L17.8945 14.6654L21.3945 18.1654L21.8945 21.1654Z" fill="white"/>
</svg>
