<svg width="23" height="24" viewBox="0 0 23 24" fill="none" xmlns="http://www.w3.org/2000/svg">
<g clip-path="url(#clip0)">
<path d="M11.5145 12.94C14.898 12.94 17.6423 10.1956 17.6423 6.81217C17.6423 3.42873 14.898 0.703125 11.5145 0.703125C8.1311 0.703125 5.38672 3.4475 5.38672 6.81217C5.38672 10.1768 8.13106 12.94 11.5145 12.94ZM11.5145 2.30088C13.9957 2.30088 16.0258 4.33094 16.0258 6.81217C16.0258 9.2934 13.9957 11.3234 11.5145 11.3234C9.03335 11.3234 7.00324 9.29335 7.00324 6.81213C7.00324 4.3309 9.03331 2.30088 11.5145 2.30088Z" fill="white"/>
<path d="M0.913731 22.5075H22.1919C22.6431 22.5075 23.0002 22.1503 23.0002 21.6992C23.0002 17.4699 19.5604 14.0112 15.3122 14.0112H7.79345C3.56412 14.0112 0.105469 17.4511 0.105469 21.6992C0.105469 22.1503 0.462606 22.5075 0.913731 22.5075ZM7.79345 15.6278H15.3122C18.3949 15.6278 20.9325 17.921 21.3273 20.8909H1.77839C2.17312 17.9398 4.71075 15.6278 7.79345 15.6278Z" fill="white"/>
</g>
<defs>
<clipPath id="clip0">
<rect width="22.8947" height="22.8947" fill="white" transform="translate(0.105469 0.157959)"/>
</clipPath>
</defs>
</svg>
