<svg width="440" height="316" viewBox="0 0 440 316" fill="none" xmlns="http://www.w3.org/2000/svg">
<rect y="0.000976562" width="440" height="316" rx="7" fill="white"/>
<path fill-rule="evenodd" clip-rule="evenodd" d="M46.1201 149.923V188.845L46.3403 189.066L46.5604 189.286L58.7639 189.267L70.9675 189.247L71.1365 189.078C71.2867 188.927 71.3109 188.806 71.3543 187.987C71.4544 186.094 71.8361 184.201 72.5643 181.984C73.3564 179.571 74.185 177.702 75.3789 175.635C76.7792 173.21 77.488 172.167 79.3777 169.752C81.4584 167.092 83.3966 164.83 91.0232 156.157C93.9091 152.875 96.5156 149.743 98.0328 147.734C101.243 143.485 102.776 140.783 103.447 138.192C103.653 137.399 103.697 136.238 103.549 135.525C103.328 134.462 102.611 133.536 101.37 132.707C99.9338 131.749 98.0577 131.154 95.3688 130.806C94.5844 130.704 90.9001 130.695 90.2067 130.794C89.9303 130.833 89.3663 130.903 88.9534 130.95C85.956 131.291 82.6815 131.933 79.5683 132.791C73.6534 134.422 68.1982 136.427 61.7743 139.331C60.6357 139.846 60.4995 139.738 60.3098 138.175C59.7397 133.474 59.2863 131.249 58.3464 128.54C57.5616 126.277 56.7291 124.669 55.6393 123.31C55.0571 122.584 54.7631 122.347 52.8975 121.099C51.8324 120.387 51.5176 120.14 51.4784 119.983C51.4063 119.695 51.6372 119.539 52.2954 119.431C52.5948 119.382 53.279 119.26 53.8158 119.159C56.8272 118.595 62.2741 117.718 64.3083 117.47C65.0323 117.382 65.9034 117.273 66.7109 117.169C67.0515 117.125 67.6512 117.059 68.0435 117.021C68.4358 116.984 69.0778 116.917 69.4701 116.873C75.415 116.204 84.2638 116.132 88.7469 116.716C89.0876 116.761 89.6281 116.829 89.9482 116.867C92.3004 117.152 95.2696 117.801 97.4374 118.506C103.82 120.581 108.285 124.135 110.658 129.029C111.842 131.472 112.477 133.991 112.657 136.97C112.757 138.613 112.757 138.812 112.653 140.433C112.529 142.356 112.446 143.105 112.199 144.549C111.403 149.188 109.848 154.04 107.366 159.627C106.561 161.44 104.408 165.83 103.645 167.214C101.743 170.665 99.9798 173.679 97.8889 177.053C96.3144 179.594 96.1063 179.96 95.3452 181.532C94.25 183.794 93.5348 185.893 93.1829 187.878C93.0078 188.866 93.0404 189.079 93.3871 189.211C93.5111 189.259 98.973 189.285 108.597 189.285H123.614L123.834 189.065L124.053 188.845V149.923V111.001H85.0867H46.1201V149.923ZM167.149 116.351V121.701L167.37 121.923L167.591 122.144L172.887 122.124L178.182 122.104L178.353 121.932L178.524 121.761L178.544 116.381L178.564 111.001H172.857H167.149V116.351ZM227.814 149.697V188.393L228.035 188.615L228.256 188.836L233.551 188.816L238.847 188.796L239.018 188.624L239.189 188.453L239.208 149.727L239.227 111.001H233.52H227.814V149.697ZM246.734 149.697V188.393L246.954 188.613L247.173 188.833H252.365H257.557L257.777 188.613L257.996 188.393V149.697V111.001H252.365H246.734V149.697ZM153.147 133.361C152.982 133.396 152.623 133.426 152.349 133.428C152.075 133.43 151.399 133.501 150.847 133.584C149.028 133.859 147.636 134.316 145.916 135.201C144.046 136.164 142.271 137.565 140.922 139.141C139.096 141.275 138.02 143.303 137.381 145.815C137.144 146.746 137.076 147.173 136.889 148.901C136.831 149.429 136.814 155.451 136.831 169.053L136.855 188.453L137.025 188.624L137.197 188.796L142.482 188.816L147.767 188.836L147.979 188.653L148.192 188.47L148.229 168.686L148.267 148.901L148.478 148.301C148.966 146.918 150.077 145.581 151.167 145.065C152.19 144.581 152.27 144.573 155.834 144.573H159.052L159.272 144.353L159.491 144.133V138.927V133.722L159.272 133.502L159.052 133.282L156.25 133.29C154.708 133.295 153.312 133.327 153.147 133.361ZM167.37 133.5L167.149 133.722V161.058V188.393L167.37 188.615L167.591 188.836L172.887 188.816L178.182 188.796L178.353 188.624L178.524 188.453V161.058V133.662L178.353 133.491L178.182 133.319L172.887 133.299L167.591 133.279L167.37 133.5ZM202.55 133.357C202.384 133.394 201.991 133.426 201.676 133.428C201.361 133.43 200.652 133.501 200.1 133.584C196.15 134.181 192.357 136.259 189.809 139.221C187.648 141.734 186.599 144.29 186.147 148.148C186.022 149.219 186.076 174.288 186.205 175.209C186.33 176.094 186.778 177.869 187.117 178.819C188.169 181.771 190.118 184.207 192.944 186.103C193.973 186.793 194.764 187.209 195.86 187.637C198.137 188.527 201.701 189.025 203.897 188.76C204.23 188.72 204.823 188.649 205.215 188.603C206.188 188.487 207.71 188.088 208.951 187.623C212.989 186.111 216.501 183.044 218.299 179.458C218.697 178.665 219.289 177.023 219.587 175.886C219.921 174.613 220.18 172.949 220.084 172.696C219.917 172.257 220.138 172.273 214.551 172.273C211.478 172.273 209.354 172.302 209.241 172.345C208.962 172.451 208.818 172.726 208.738 173.303C208.575 174.47 208.128 175.374 207.356 176.096C206.702 176.709 206.238 176.954 205.252 177.208C204.561 177.386 204.402 177.399 203.225 177.374C201.978 177.347 201.93 177.34 201.107 177.06C199.797 176.614 198.746 175.858 198.135 174.924C197.42 173.829 197.315 173.126 197.347 169.622C197.369 167.095 197.37 167.083 197.54 166.912L197.711 166.741L208.752 166.703L219.794 166.665L219.975 166.454L220.156 166.243V157.3C220.156 148.685 220.15 148.32 220.002 147.312C219.412 143.287 217.721 140.112 214.842 137.622C212.607 135.688 210.69 134.668 207.956 133.955C206.625 133.608 206.109 133.523 204.802 133.432C204.265 133.394 203.606 133.347 203.338 133.327C203.07 133.307 202.715 133.32 202.55 133.357ZM281.834 133.357C281.669 133.394 281.277 133.426 280.963 133.428C279.65 133.438 277.16 133.971 275.689 134.557C274.044 135.212 272.134 136.365 270.898 137.448C268.067 139.93 266.406 143.061 265.806 147.047C265.659 148.026 265.655 148.401 265.655 161.058C265.655 173.714 265.659 174.089 265.806 175.068C265.971 176.166 266.358 177.731 266.669 178.555C266.965 179.342 267.848 181.043 268.297 181.695C269.411 183.31 271.024 184.891 272.674 185.984C273.51 186.538 274.858 187.232 275.855 187.622C278.157 188.521 281.948 189.036 284.233 188.76C284.566 188.72 285.158 188.649 285.551 188.601C286.333 188.507 288.032 188.109 288.898 187.817C292.817 186.499 296.195 183.651 297.976 180.166C298.816 178.521 299.352 176.669 299.662 174.343C299.716 173.937 299.742 169.618 299.741 161.05C299.741 148.66 299.737 148.333 299.587 147.312C299.296 145.328 298.85 143.865 298.043 142.248C296.885 139.93 295.08 137.923 292.692 136.302C290.248 134.643 287.271 133.649 284.087 133.431C283.55 133.394 282.891 133.347 282.623 133.327C282.354 133.307 281.999 133.32 281.834 133.357ZM284.913 144.751C286.96 145.332 288.086 146.745 288.349 149.063C288.481 150.23 288.482 172.031 288.349 173.195C288.106 175.34 287.202 176.588 285.421 177.238C284.777 177.473 283.456 177.693 282.69 177.693C281.986 177.693 280.813 177.502 280.15 177.28C278.309 176.663 277.348 175.441 277.031 173.314C276.859 172.159 276.859 150.109 277.032 148.933C277.171 147.979 277.305 147.54 277.642 146.926C278.072 146.141 278.634 145.599 279.422 145.21C280.575 144.641 280.968 144.571 282.848 144.599C284.083 144.617 284.568 144.653 284.913 144.751ZM204.652 144.842C205.414 144.975 206.273 145.294 206.74 145.618C207.3 146.006 207.984 146.79 208.223 147.318C208.655 148.275 208.686 148.516 208.758 151.573C208.794 153.126 208.832 154.573 208.84 154.789C208.853 155.111 208.825 155.213 208.685 155.354L208.514 155.525H203.113H197.711L197.54 155.354C197.37 155.183 197.369 155.168 197.347 152.719C197.309 148.68 197.518 147.823 198.861 146.49C199.445 145.91 199.663 145.751 200.335 145.415C200.833 145.165 201.358 144.967 201.761 144.878C202.564 144.7 203.753 144.685 204.652 144.842ZM317.828 150.966L317.608 151.187L317.633 164.685C317.651 174.389 317.683 178.383 317.746 178.897C317.909 180.224 318.364 181.772 318.912 182.864C319.489 184.012 320.853 185.56 322.114 186.495C322.795 187.001 324.171 187.727 324.964 188C325.23 188.091 325.872 188.274 326.39 188.406C327.333 188.645 327.333 188.645 329.323 188.645C331.121 188.645 331.388 188.628 332.1 188.471C335.065 187.819 337.478 186.295 339.154 184.018C340.178 182.628 340.835 180.818 341.053 178.793C341.108 178.283 341.144 173.608 341.161 164.61L341.187 151.187L340.967 150.966L340.746 150.745H337.206H333.666L333.446 150.965L333.227 151.185V164.732C333.227 178.26 333.226 178.28 333.07 178.795C332.659 180.145 331.808 180.814 330.222 181.034C329.55 181.128 329.344 181.129 328.808 181.042C327.99 180.908 327.195 180.529 326.646 180.011C326.136 179.529 325.923 179.205 325.721 178.605C325.57 178.153 325.569 178.032 325.569 164.667V151.185L325.349 150.965L325.13 150.745H321.589H318.049L317.828 150.966ZM357.349 150.902C354.336 151.464 351.789 153.073 349.982 155.557C349.661 155.998 348.988 157.34 348.774 157.967C348.54 158.652 348.347 159.527 348.208 160.531C348.1 161.309 348.09 163.514 348.109 182.49L348.13 203.584L348.338 203.792L348.546 204.001H352.109H355.671L355.842 203.83L356.014 203.658L356.051 196.361L356.089 189.063L356.259 188.892C356.429 188.722 356.45 188.72 359.075 188.678L361.72 188.636L362.583 188.401C364.638 187.842 366.07 187.077 367.801 185.614C369.712 184 370.866 182.043 371.37 179.563C371.517 178.838 371.52 178.59 371.498 169.393C371.477 160.804 371.463 159.919 371.346 159.439C370.797 157.186 369.788 155.351 368.382 154.047C366.635 152.428 364.598 151.378 362.333 150.93C361.528 150.77 361.222 150.749 359.768 150.754C358.482 150.758 357.946 150.791 357.349 150.902ZM388.824 150.837C387.376 151.026 385.761 151.507 384.587 152.098C382.236 153.28 380.176 155.687 379.334 158.235C378.909 159.52 378.785 160.287 378.746 161.886C378.715 163.154 378.732 163.474 378.869 164.24C379.4 167.21 381.003 169.82 383.298 171.451C384.131 172.043 384.661 172.345 385.447 172.676C386.706 173.207 388.651 173.628 389.845 173.628C391.815 173.629 393.225 174.315 393.787 175.545C394.465 177.029 394.24 179.099 393.288 180.134C392.711 180.761 391.64 181.156 390.513 181.156C389.389 181.156 388.46 180.82 387.761 180.162C387.207 179.641 386.945 179.22 386.717 178.483C386.479 177.713 386.407 177.578 386.184 177.475C386.058 177.418 384.928 177.392 382.583 177.392H379.164L378.945 177.612C378.756 177.801 378.725 177.89 378.725 178.239C378.725 179.335 379.282 181.4 379.897 182.586C380.899 184.518 382.692 186.356 384.694 187.503C385.93 188.212 388.398 188.833 389.975 188.833C390.971 188.833 392.783 188.547 393.967 188.202C396.478 187.47 398.606 185.868 400.173 183.527C400.906 182.432 401.305 181.515 401.662 180.102C401.772 179.668 401.894 179.274 401.933 179.226C401.976 179.174 401.995 178.357 401.98 177.193C401.956 175.278 401.951 175.233 401.718 174.381C401.148 172.304 400.278 170.762 398.89 169.37C398.035 168.513 397.151 167.879 396.106 167.372C394.598 166.641 393.172 166.246 391.489 166.094C391.055 166.054 390.38 165.992 389.987 165.955C389.308 165.891 388.695 165.725 388.216 165.477C387.952 165.34 387.229 164.587 386.999 164.209C386.781 163.852 386.534 162.871 386.534 162.368C386.534 161.8 386.729 160.937 386.967 160.456C387.212 159.961 388.097 159.034 388.54 158.809C389.378 158.383 390.699 158.293 391.572 158.602C392.871 159.062 393.872 160.142 394.123 161.354C394.18 161.625 394.28 161.835 394.42 161.975L394.631 162.187H398.315H402V161.223C402 160.693 401.97 160.228 401.932 160.188C401.895 160.149 401.777 159.791 401.67 159.393C401.298 158.009 400.921 157.168 400.174 156.053C399.272 154.706 397.993 153.397 396.764 152.564C396.021 152.06 394.526 151.367 393.741 151.162C392.239 150.771 390.304 150.643 388.824 150.837ZM361.018 158.462C362.039 158.667 362.944 159.304 363.316 160.079C363.71 160.9 363.709 160.882 363.709 169.665C363.709 178.435 363.718 178.216 363.324 178.994C363.235 179.168 362.901 179.574 362.582 179.894C361.53 180.951 360.691 181.18 358.023 181.141C356.481 181.119 356.425 181.113 356.259 180.946L356.089 180.775L356.069 170.973C356.049 161.225 356.049 161.168 356.205 160.644C356.61 159.283 357.459 158.641 359.192 158.386C359.877 158.285 360.201 158.299 361.018 158.462Z" fill="#1D1D1D"/>
</svg>
