<svg width="98" height="12" viewBox="0 0 98 12" fill="none" xmlns="http://www.w3.org/2000/svg">
<path d="M38.3223 8.86778H40.9441V11.7689H38.3223V8.86778Z" fill="#CC342B"/>
<path d="M15.3179 2.56739C13.451 2.56739 11.9768 3.93325 11.9768 5.99743C11.9768 7.58922 12.8542 8.76508 14.1141 9.22208C14.1957 9.25289 14.2824 9.27856 14.3691 9.30424V11.9281C14.2824 11.9127 14.1957 11.8973 14.1141 11.8819C11.4004 11.3376 9.35498 8.97047 9.35498 6.00257C9.35498 2.60847 12.0227 0 15.3179 0C18.6079 0 21.2807 2.60334 21.2807 6.00257C21.2807 6.7009 21.1634 8.0154 20.3218 9.30424C19.0007 11.3325 16.8685 11.8203 16.4094 11.9127V9.26829C16.7104 9.17073 17.2256 8.95507 17.7 8.48267C18.6436 7.53787 18.664 6.31065 18.664 6.00257C18.6589 3.93838 17.1848 2.56739 15.3179 2.56739Z" fill="white"/>
<path d="M2.62183 11.7689H0L0 5.66872L4.58565 5.66872C5.30486 5.66872 5.89656 5.02687 5.89656 4.18477C5.89656 3.34266 5.30486 2.70081 4.58565 2.70081L0 2.70081L0 0.225845L4.58565 0.225845C6.7637 0.225845 8.51839 1.99221 8.51839 4.18477C8.51839 5.60197 7.66655 6.8908 6.40664 7.53265L8.84484 11.7689H6.02918L3.86643 7.97424L2.62183 7.97424L2.62183 11.7689Z" fill="white"/>
<path d="M37.8585 0.225845L37.18 2.70081L34.497 2.70081L35.104 0.225845L37.8585 0.225845ZM33.1249 8.308L30.9162 0.23098L28.7892 0.23098L26.5805 8.308L24.6014 0.23098L21.8521 0.23098L25.0146 11.7689L27.9934 11.7689L29.8604 4.96012L31.7273 11.7689H34.7061L36.4149 5.53008L33.8135 5.53008L33.1249 8.308Z" fill="white"/>
<path d="M82.1058 0.231065L84.7276 0.231065V11.7689H82.1058V0.231065ZM48.3689 4.88318C47.6394 4.76508 47.012 4.78562 46.6958 4.30809C46.5326 4.06675 46.4867 3.74326 46.5836 3.46598C46.7366 3.02439 47.2569 2.72657 47.8741 2.77792L50.2613 2.77792L48.8126 0.241336L47.869 0.241336C47.7211 0.236201 45.3186 0.15918 44.2321 1.82799C43.7067 2.62901 43.6863 3.52247 43.6863 3.52247C43.6812 3.7638 43.6914 4.45186 44.074 5.12965C44.6657 6.18229 45.8541 6.69576 47.063 7.03466C48.782 7.51219 49.44 7.79461 49.44 8.50321C49.44 8.94994 49.1289 9.44288 47.8843 9.44288C46.5887 9.44288 45.8848 8.80103 45.4767 7.84595L43.2119 9.15019C43.8495 10.8498 45.39 12 47.7976 12C50.2868 12 52.0568 10.6804 52.0568 8.457C52.0568 7.76893 51.9037 7.22978 51.6436 6.79332C50.7458 5.2991 48.5372 4.90886 48.3689 4.88318ZM52.623 2.77279L55.5967 2.77279V11.7741H58.2186V0.231065L51.1794 0.231065L52.623 2.77279ZM75.4492 0.231065L66.3595 0.231065V7.61489C66.3595 8.4878 65.9514 9.23235 64.5589 9.23235C63.1664 9.23235 62.7583 8.49294 62.7583 7.61489V0.231065L60.1365 0.231065V7.84595C60.1365 10.3209 62.034 11.8049 64.5589 11.8049C67.0787 11.8049 68.9813 10.3209 68.9813 7.84595V2.76765C71.139 2.76765 73.2915 2.76765 75.4492 2.76765C77.2498 2.76765 78.4944 4.02054 78.4944 5.99743C78.4944 7.97432 77.2498 9.22721 75.4492 9.22721H73.4854V4.61104H70.8636V11.7638H75.4492C78.6117 11.7638 81.0193 9.25802 81.0193 5.9923C81.0193 2.72657 78.6117 0.231065 75.4492 0.231065ZM92.0371 0C88.7471 0 86.0742 2.60334 86.0742 6.00257C86.0742 9.03723 88.2064 11.4403 91.0119 11.9178V9.28883C89.6601 8.88318 88.6961 7.67137 88.6961 6.0077C88.6961 3.94865 90.1702 2.57766 92.0371 2.57766C93.904 2.57766 95.3782 3.94352 95.3782 6.0077C95.3782 7.67137 94.4141 8.88318 93.0624 9.28883V11.9178C95.8679 11.4403 98 9.04236 98 6.00257C97.9949 2.60847 95.3272 0 92.0371 0Z" fill="white"/>
</svg>
