<svg width="26" height="28" viewBox="0 0 26 28" fill="none" xmlns="http://www.w3.org/2000/svg">
<path d="M25.1475 25.4953L19.1844 19.0531C20.6625 17.1062 21.5535 14.6125 21.5535 11.8945C21.5535 5.66016 16.8711 0.601562 11.1005 0.601562C5.32473 0.601562 0.647461 5.66016 0.647461 11.8945C0.647461 18.1289 5.32473 23.1875 11.1005 23.1875C13.6163 23.1875 15.9195 22.2305 17.7215 20.6336L23.6845 27.0703C24.0895 27.5078 24.7425 27.5078 25.1475 27.0703C25.5524 26.6383 25.5524 25.9273 25.1475 25.4953ZM11.1005 20.9398C6.47887 20.9398 2.72287 16.882 2.72287 11.8945C2.72287 6.90703 6.47887 2.84375 11.1005 2.84375C15.717 2.84375 19.478 6.90703 19.478 11.8945C19.478 16.882 15.717 20.9398 11.1005 20.9398Z" fill="#1D1D1D"/>
</svg>
