<svg width="418" height="418" viewBox="0 0 418 418" fill="none" xmlns="http://www.w3.org/2000/svg">
<g opacity="0.2" clip-path="url(#clip0)">
<path d="M370.373 17.6866C371.111 16.9451 371.66 16.0372 371.974 15.0391C372.289 14.041 372.358 12.9821 372.178 11.9515C371.997 10.9209 371.572 9.94867 370.937 9.11679C370.303 8.28492 369.477 7.61769 368.531 7.17129C353.935 0.27822 337.563 -1.92694 321.663 0.858684C305.763 3.6443 291.116 11.2841 279.732 22.7287C257.552 45.0526 249.806 80.1123 260.151 109.425L109.423 260.153C101.05 257.201 92.2292 255.716 83.3505 255.764C60.9614 255.764 39.2515 264.672 23.7986 280.217C12.4553 291.511 4.78844 305.969 1.80259 321.695C-1.18327 337.422 0.651158 353.683 7.0655 368.349C7.48594 369.331 8.14165 370.194 8.97475 370.863C9.80784 371.531 10.7927 371.984 11.8423 372.182C12.8919 372.379 13.974 372.315 14.9931 371.995C16.0121 371.676 16.9367 371.11 17.6853 370.348L63.2865 324.512C66.2909 321.481 71.1371 321.076 73.6451 323.623L93.3302 344.223C96.1909 347.11 96.0603 351.564 93.0429 354.608L47.6115 400.326C46.8731 401.067 46.3237 401.974 46.0095 402.971C45.6952 403.968 45.6255 405.026 45.8061 406.056C45.9867 407.086 46.4123 408.057 47.0471 408.887C47.6819 409.718 48.5072 410.384 49.4533 410.829C60.0242 415.872 71.5861 418.496 83.2982 418.509C103.832 418.509 123.335 410.254 138.252 395.258C160.432 372.947 168.178 337.888 157.82 308.575L308.548 157.834C316.927 160.785 325.751 162.27 334.634 162.223C357.023 162.223 378.733 153.315 394.186 137.77C405.529 126.476 413.196 112.018 416.182 96.2916C419.168 80.5651 417.333 64.3035 410.919 49.6375C410.498 48.6557 409.843 47.7925 409.01 47.1242C408.176 46.4558 407.192 46.0029 406.142 45.8054C405.092 45.6078 404.01 45.6718 402.991 45.9916C401.972 46.3114 401.048 46.8771 400.299 47.6389L354.698 93.4753C353.289 94.8372 351.399 95.5876 349.439 95.5631C347.48 95.5387 345.609 94.7413 344.235 93.3446L324.654 73.7639C323.956 73.0933 323.399 72.2886 323.019 71.398C322.639 70.5074 322.442 69.5493 322.441 68.5809C322.44 67.6125 322.634 66.6539 323.012 65.7623C323.39 64.8708 323.944 64.0647 324.641 63.3923L370.373 17.6866ZM315.406 82.9991L334.987 102.58C342.811 110.443 356.213 110.483 363.959 102.697L402.232 64.2414C405.264 75.5403 405.261 87.4389 402.225 98.7365C399.188 110.034 393.225 120.331 384.938 128.587C371.914 141.689 353.601 149.187 334.647 149.187C325.725 149.187 317.274 147.515 309.528 144.223C308.33 143.713 307.008 143.573 305.73 143.819C304.453 144.066 303.278 144.689 302.356 145.608L145.606 302.358C144.689 303.275 144.066 304.444 143.817 305.717C143.568 306.99 143.704 308.308 144.209 309.503C154.698 334.452 148.31 366.651 129.017 386.062C120.704 394.495 110.237 400.485 98.7562 403.383C87.2751 406.28 75.2192 405.973 63.9004 402.495L102.317 363.83C110.429 355.666 110.56 343.008 102.696 335.118L83.0239 314.519C75.4346 306.877 61.9411 307.348 54.0513 315.329L15.7782 353.785C12.7465 342.486 12.7491 330.587 15.7856 319.29C18.8222 307.992 24.7852 297.695 33.0729 289.439C46.0962 276.337 64.4099 268.839 83.3636 268.839C92.2852 268.839 100.737 270.511 108.483 273.803C109.679 274.317 111.003 274.459 112.281 274.212C113.56 273.965 114.735 273.34 115.654 272.418L272.404 115.668C273.321 114.752 273.944 113.582 274.193 112.309C274.442 111.036 274.306 109.718 273.802 108.523C263.313 83.5739 269.7 51.3617 288.993 31.9509C297.304 23.5268 307.764 17.5412 319.237 14.6441C330.71 11.747 342.757 12.0494 354.071 15.5182L315.406 54.1963C313.494 56.0758 311.975 58.3172 310.939 60.7898C309.902 63.2624 309.368 65.9166 309.368 68.5977C309.368 71.2788 309.902 73.933 310.939 76.4056C311.975 78.8782 313.494 81.1196 315.406 82.9991Z" fill="white"/>
<path d="M381.556 400.326C380.103 401.723 378.165 402.502 376.149 402.497C374.134 402.492 372.199 401.704 370.753 400.3L239.736 269.675C238.488 268.559 236.859 267.963 235.184 268.012C233.51 268.06 231.918 268.749 230.737 269.936C229.555 271.122 228.873 272.717 228.832 274.392C228.79 276.066 229.392 277.693 230.514 278.936L361.518 409.535C365.437 413.467 370.636 415.635 376.174 415.635C381.713 415.635 386.911 413.467 390.909 409.444L409.575 389.941C411.483 388.058 412.998 385.814 414.032 383.341C415.065 380.867 415.597 378.212 415.596 375.531C415.595 372.85 415.061 370.196 414.025 367.723C412.989 365.25 411.472 363.007 409.562 361.126L278.937 230.501C277.705 229.311 276.055 228.653 274.343 228.667C272.63 228.682 270.992 229.369 269.781 230.58C268.57 231.791 267.883 233.429 267.869 235.142C267.854 236.854 268.512 238.504 269.702 239.736L400.314 370.348C403.305 373.352 403.305 377.715 400.222 380.824L381.556 400.326Z" fill="white"/>
<path d="M76.4663 41.0949L37.2788 1.90738C36.054 0.682958 34.3931 -0.00488281 32.6612 -0.00488281C30.9294 -0.00488281 29.2684 0.682958 28.0436 1.90738L1.91861 28.0324C0.694189 29.2572 0.00634766 30.9181 0.00634766 32.65C0.00634766 34.3818 0.694189 36.0428 1.91861 37.2676L41.1061 76.4551C42.3325 77.6749 43.9913 78.3607 45.721 78.3631C47.4508 78.3656 49.1114 77.6845 50.3413 76.4681L58.7797 68.0167L158.656 167.893C159.257 168.517 159.977 169.016 160.773 169.359C161.57 169.702 162.427 169.884 163.294 169.893C164.161 169.901 165.021 169.737 165.824 169.41C166.627 169.083 167.357 168.599 167.971 167.986C168.585 167.374 169.071 166.646 169.401 165.843C169.73 165.041 169.897 164.181 169.891 163.314C169.884 162.447 169.705 161.59 169.364 160.793C169.023 159.995 168.527 159.274 167.904 158.67L68.0149 58.7815L76.4532 50.3431C77.0623 49.7373 77.5459 49.0172 77.8763 48.2242C78.2067 47.4312 78.3774 46.5808 78.3786 45.7217C78.3798 44.8626 78.2115 44.0117 77.8834 43.2178C77.5552 42.4238 77.0737 41.7024 76.4663 41.0949ZM45.7172 62.6088L15.7649 32.6565L32.6547 15.7667L62.607 45.719L45.7172 62.6088Z" fill="white"/>
</g>
<defs>
<clipPath id="clip0">
<rect width="418" height="418" fill="white"/>
</clipPath>
</defs>
</svg>
