<svg width="27" height="23" viewBox="0 0 27 23" fill="#000" xmlns="http://www.w3.org/2000/svg">
<path d="M23.9854 2.13528C22.6447 0.765373 20.8696 0.0166386 18.9751 0.0166386C17.0806 0.0166386 15.3001 0.770919 13.9593 2.14082L13.2591 2.85628L12.548 2.12973C11.2072 0.759826 9.42128 0 7.52679 0C5.63774 0 3.85725 0.75428 2.52189 2.11864C1.18109 3.48855 0.442844 5.30769 0.448272 7.24331C0.448272 9.17893 1.19195 10.9925 2.53274 12.3624L12.7271 22.7782C12.8683 22.9224 13.0582 23 13.2428 23C13.4274 23 13.6174 22.9279 13.7585 22.7837L23.9746 12.3846C25.3154 11.0147 26.0536 9.19556 26.0536 7.25995C26.0591 5.32433 25.3262 3.50518 23.9854 2.13528ZM22.9432 11.3253L13.2428 21.1975L3.56412 11.3087C2.50017 10.2216 1.91392 8.7796 1.91392 7.24331C1.91392 5.70702 2.49475 4.26501 3.5587 3.18351C4.61722 2.102 6.02858 1.50301 7.52679 1.50301C9.03044 1.50301 10.4472 2.102 11.5112 3.18905L12.738 4.44249C13.0257 4.73644 13.4871 4.73644 13.7748 4.44249L14.9907 3.20014C16.0547 2.11309 17.4715 1.51411 18.9697 1.51411C20.4679 1.51411 21.8793 2.11309 22.9432 3.1946C24.0072 4.28165 24.588 5.72366 24.588 7.25995C24.5934 8.79624 24.0072 10.2382 22.9432 11.3253Z" fill="#45A6FF"/>
</svg>
