<svg width="440" height="316" viewBox="0 0 440 316" fill="none" xmlns="http://www.w3.org/2000/svg">
<rect y="0.000976562" width="440" height="316" rx="7" fill="white"/>
<path d="M130.72 198.241H106.48V139.321H85V118.201H152.08V139.321H130.72V198.241Z" fill="#1D1D1D"/>
<path d="M224.195 199.681C208.835 199.681 196.435 195.441 186.995 186.961L199.595 168.961C206.795 175.841 215.395 179.281 225.395 179.281C231.315 179.281 234.275 177.841 234.275 174.961C234.275 173.601 232.715 172.561 229.595 171.841C226.555 171.121 222.835 170.361 218.435 169.561C214.115 168.761 209.755 167.601 205.355 166.081C201.035 164.561 197.315 161.881 194.195 158.041C191.155 154.201 189.635 149.361 189.635 143.521C189.635 136.241 192.555 130.001 198.395 124.801C204.315 119.601 212.475 117.001 222.875 117.001C236.395 117.001 247.715 120.721 256.835 128.161L243.875 145.321C236.915 140.041 229.075 137.401 220.355 137.401C216.275 137.401 214.235 138.601 214.235 141.001C214.235 142.121 215.315 143.081 217.475 143.881C219.715 144.681 222.475 145.321 225.755 145.801C229.035 146.201 232.595 147.001 236.435 148.201C240.355 149.321 243.955 150.681 247.235 152.281C250.515 153.881 253.235 156.401 255.395 159.841C257.635 163.201 258.755 167.201 258.755 171.841C258.755 180.641 255.675 187.481 249.515 192.361C243.435 197.241 234.995 199.681 224.195 199.681Z" fill="#1D1D1D"/>
<path d="M354.909 198.241H300.309V118.201H324.549V177.121H354.909V198.241Z" fill="#1D1D1D"/>
</svg>
