<svg width="24" height="22" viewBox="0 0 24 22" fill="none" xmlns="http://www.w3.org/2000/svg">
<path d="M21.7712 2.73265C20.531 1.49246 18.8891 0.814624 17.1368 0.814624C15.3844 0.814624 13.7375 1.49748 12.4973 2.73768L11.8496 3.38539L11.1919 2.72763C9.95169 1.48744 8.29977 0.799561 6.54744 0.799561C4.80012 0.799561 3.15323 1.48242 1.91806 2.71759C0.677865 3.95778 -0.00499353 5.60468 2.74937e-05 7.35702C2.74937e-05 9.10935 0.687907 10.7512 1.9281 11.9914L11.3576 21.4209C11.4881 21.5514 11.6639 21.6217 11.8346 21.6217C12.0053 21.6217 12.181 21.5565 12.3116 21.4259L21.7611 12.0115C23.0013 10.7713 23.6842 9.12442 23.6842 7.37208C23.6892 5.61974 23.0114 3.97285 21.7712 2.73265ZM20.8071 11.0525L11.8346 19.9899L2.88209 11.0374C1.89797 10.0533 1.3557 8.74784 1.3557 7.35702C1.3557 5.96619 1.89295 4.66073 2.87707 3.68163C3.85617 2.70253 5.16163 2.16026 6.54744 2.16026C7.93826 2.16026 9.24874 2.70253 10.2329 3.68665L11.3676 4.8214C11.6337 5.08751 12.0605 5.08751 12.3266 4.8214L13.4513 3.69669C14.4355 2.71257 15.7459 2.1703 17.1317 2.1703C18.5175 2.1703 19.823 2.71257 20.8071 3.69167C21.7913 4.67579 22.3285 5.98126 22.3285 7.37208C22.3335 8.7629 21.7913 10.0684 20.8071 11.0525Z" fill="white"/>
</svg>
