<svg width="85" height="22" viewBox="0 0 85 22" fill="none" xmlns="http://www.w3.org/2000/svg">
<path fill-rule="evenodd" clip-rule="evenodd" d="M27.9728 0.0154504C27.9639 0.0240774 27.8686 0.03558 27.7611 0.0410022C27.6536 0.0464416 27.5044 0.0590529 27.4296 0.0690657C27.3548 0.0790612 27.2286 0.0942537 27.1491 0.102794C26.9607 0.123062 26.8704 0.138774 26.4521 0.224022C25.691 0.379151 24.8715 0.643174 24.2104 0.946244C23.9468 1.06709 23.4562 1.31972 23.3241 1.40266C23.2446 1.45255 23.1357 1.51595 23.0821 1.54355C22.9373 1.61807 22.449 1.94526 22.2379 2.10924C22.1855 2.14995 22.1082 2.20788 22.0661 2.238C21.8294 2.40735 21.383 2.79695 21.0578 3.11793C20.5706 3.59871 20.1587 4.09711 19.7033 4.75662C19.5303 5.00715 19.4095 5.20119 19.1617 5.62661C19.1029 5.72752 19.0933 5.79356 19.135 5.80984C19.1701 5.8236 37.9841 5.8236 38.0193 5.80984C38.0341 5.80406 38.0462 5.77946 38.0462 5.75519C38.0462 5.65121 37.3999 4.62573 37.0883 4.23528C36.9067 4.00767 36.7656 3.83746 36.6073 3.65496C36.4231 3.44275 35.8782 2.89043 35.7086 2.74412C35.0464 2.17283 34.4801 1.76219 33.8981 1.43138C33.7323 1.33711 32.9329 0.933166 32.8084 0.880746C32.1788 0.615614 31.498 0.394102 30.9316 0.270137C30.8662 0.25581 30.7553 0.231298 30.6851 0.215655C30.615 0.20003 30.5156 0.18042 30.4641 0.17207C30.4127 0.16372 30.3209 0.148216 30.2601 0.137614C30.1993 0.127012 30.0846 0.111352 30.0051 0.102794C29.9256 0.0942539 29.7994 0.0790614 29.7246 0.0690659C29.6498 0.0590531 29.5006 0.0464418 29.3931 0.0410023C29.2856 0.0355801 29.1903 0.0240775 29.1815 0.0154505C29.1603 -0.00514678 27.994 -0.00514688 27.9728 0.0154504ZM-2.8317e-07 3.23909L-5.08832e-07 5.82035L4.86073 5.82035C8.19646 5.82036 9.74985 5.82607 9.812 5.8386C10.016 5.87972 10.0754 5.89685 10.2318 5.95972C10.4936 6.06494 10.6333 6.15819 10.8521 6.37368C11.0458 6.56441 11.1295 6.67583 11.2239 6.86841C11.3802 7.1874 11.424 7.38293 11.424 7.76056C11.424 8.13798 11.3803 8.33317 11.224 8.6527C11.0127 9.08469 10.5981 9.45058 10.1378 9.61114C9.86488 9.70634 10.1934 9.70072 4.89177 9.70074L-8.48067e-07 9.70076L-1.35693e-06 15.5215L-1.86579e-06 21.3421L5.85227 21.3357C9.75494 21.3314 11.7442 21.3233 11.8235 21.3114C11.889 21.3016 12.0114 21.2853 12.0955 21.2751C12.1797 21.265 12.2906 21.2448 12.342 21.2303C12.3935 21.2157 12.4556 21.2037 12.48 21.2036C12.5667 21.2032 13.1922 21.0106 13.458 20.9025C14.6462 20.419 15.5737 19.6659 16.346 18.5575C16.6463 18.1265 16.9437 17.5159 17.1259 16.9562C17.1945 16.7452 17.3184 16.2563 17.3423 16.1017C17.3512 16.0445 17.3658 15.9549 17.3749 15.9025C17.4536 15.4474 17.4535 14.4579 17.3747 13.9969C17.3658 13.9445 17.3513 13.8549 17.3426 13.7977C17.3339 13.7405 17.3187 13.6626 17.3087 13.6245C17.2988 13.5864 17.2791 13.4979 17.265 13.428C17.2238 13.2246 17.1233 12.9023 16.9885 12.5418C16.9286 12.3815 16.6488 11.8212 16.5214 11.6063C16.3859 11.3779 16.1722 11.0738 16.0012 10.8661C15.6086 10.3894 15.6026 10.3834 15.0833 9.95115C14.9384 9.83058 14.8305 9.72802 14.8276 9.70826C14.8242 9.68432 14.8852 9.6091 15.0306 9.45787C15.3293 9.14721 15.5875 8.81313 15.78 8.48813C15.8753 8.32729 16.0799 7.91174 16.1383 7.76056C16.2898 7.36825 16.4263 6.84054 16.4586 6.52195C16.5152 5.96393 16.5212 5.78157 16.4929 5.47389C16.451 5.01614 16.426 4.8577 16.3469 4.5471C16.1964 3.95536 15.9535 3.3999 15.6366 2.92253C15.5029 2.72118 15.0772 2.2038 14.9771 2.12098C14.9443 2.09392 14.8678 2.02411 14.8071 1.96587C14.6208 1.7873 14.2169 1.48914 13.9656 1.34469C13.6563 1.16694 13.6132 1.1457 13.2516 0.992721C13.0296 0.898847 12.5116 0.75567 12.2826 0.724852C12.2171 0.716052 12.1138 0.700063 12.053 0.68934C11.973 0.675186 10.2987 0.66817 5.97127 0.663822L-5.75106e-08 0.657845L-2.8317e-07 3.23909ZM36.3357 0.68288C36.3208 0.722498 36.3439 0.748552 36.5246 0.896164C36.6182 0.972507 36.7422 1.07683 36.8003 1.128C36.8583 1.17917 36.9693 1.27679 37.0468 1.34494C37.2023 1.48169 37.9603 2.26019 38.125 2.45239C38.4518 2.83363 38.7661 3.24185 38.9974 3.58566C39.0711 3.69523 39.1499 3.81216 39.1725 3.84551C39.3436 4.09796 39.5662 4.47448 39.7667 4.85021C39.8682 5.04021 40.0346 5.38 40.1475 5.62746C40.1839 5.70715 40.2288 5.78316 40.2472 5.79637C40.2755 5.81665 40.9145 5.82036 44.3794 5.82036C48.4197 5.82036 48.4804 5.82086 48.6384 5.85516C48.8628 5.90389 48.9432 5.93284 49.1472 6.03842C49.5902 6.2677 49.9167 6.65742 50.0821 7.15425C50.2401 7.62925 50.2103 8.13871 49.9981 8.58684C49.8851 8.82552 49.7713 8.99079 49.612 9.14789C49.4307 9.32656 49.2132 9.48311 49.0962 9.51899C49.0728 9.52614 49.0184 9.55008 48.9752 9.57219C48.9321 9.59427 48.8198 9.63225 48.7257 9.65655L48.5545 9.70076L44.9265 9.70076C41.339 9.70076 41.2981 9.70114 41.2681 9.73487C41.2416 9.76482 41.2395 9.78755 41.2512 9.92109C41.2735 10.175 41.2686 11.9375 41.2451 12.1347C41.2337 12.2299 41.2172 12.3742 41.2083 12.4552C41.1793 12.7217 41.1596 12.878 41.1413 12.9878C41.1052 13.2035 41.0901 13.2975 41.0726 13.4143C41.0628 13.4797 41.0515 13.5385 41.0476 13.545C41.0436 13.5515 41.0205 13.6578 40.9961 13.7812C40.9718 13.9046 40.9283 14.0968 40.8996 14.2082L40.8473 14.4108L40.8824 14.4681C40.9331 14.5505 47.5074 21.2199 47.6163 21.2993L47.6749 21.342L53.3113 21.3376L58.9477 21.3333L58.9535 21.2916C58.9584 21.2564 58.4061 20.6862 55.3878 17.6104C52.7642 14.9368 51.8162 13.9605 51.8162 13.932C51.8162 13.9029 51.8468 13.8732 51.9395 13.8123C52.0073 13.7678 52.1248 13.6904 52.2006 13.6404C52.4704 13.4625 52.92 13.0754 53.238 12.7473C53.6073 12.3661 53.8805 12.0201 54.1661 11.5717C54.3134 11.3404 54.5494 10.9027 54.6131 10.7426C54.6345 10.6889 54.6805 10.5786 54.7152 10.4976C54.7951 10.3115 54.9636 9.81246 55.0193 9.59682C55.0954 9.30279 55.1858 8.78415 55.2277 8.40152C55.2484 8.21271 55.2422 7.24745 55.2193 7.07629C55.2077 6.99054 55.1914 6.86192 55.1829 6.79046C55.1448 6.46972 55.0953 6.22655 54.9927 5.85501C54.9466 5.68827 54.9021 5.53236 54.8938 5.50854C54.8748 5.45377 54.7821 5.20308 54.7305 5.0668C54.6709 4.90931 54.5021 4.53546 54.4684 4.48647C54.452 4.46265 54.4175 4.40029 54.3917 4.34789C54.1623 3.88127 53.7076 3.26281 53.2284 2.76563C52.812 2.33358 52.3743 1.98205 51.8502 1.65877C51.6891 1.55938 51.0108 1.21243 50.8642 1.15444C50.2855 0.925441 49.6195 0.759814 48.9942 0.68936C48.8855 0.677113 46.7933 0.669005 42.5889 0.664518C37.1568 0.658714 36.3439 0.661105 36.3357 0.68288ZM53.8817 0.675415C53.8621 0.707758 53.8903 0.756211 53.9628 0.814833C54.1946 1.00215 54.6696 1.47389 54.9482 1.79346C55.1555 2.03132 55.2792 2.19059 55.5052 2.51091C55.7133 2.80572 55.7518 2.86729 56.0585 3.39511C56.1236 3.50707 56.3423 3.96258 56.413 4.13353C56.4401 4.19903 56.4811 4.29548 56.5041 4.34789C56.6081 4.5849 56.7644 5.06358 56.8731 5.47805C56.9125 5.62804 56.9586 5.7664 56.9756 5.78554C57.0064 5.82022 57.0217 5.82036 61.0031 5.82036C64.32 5.82036 65.0186 5.8244 65.1103 5.84408C65.5637 5.94136 65.8285 6.08638 66.1317 6.40349C66.3441 6.6256 66.3819 6.67782 66.4937 6.90419C66.6142 7.14808 66.6612 7.33205 66.7029 7.72392C66.7169 7.85521 66.6635 8.18794 66.5949 8.39733C66.4694 8.7804 66.2098 9.12071 65.8397 9.3873C65.744 9.45626 65.5104 9.5703 65.3612 9.62092C65.1154 9.7043 65.3097 9.70073 61.0187 9.70074L57.0037 9.70076L56.9703 9.74402C56.9519 9.7678 56.9235 9.84382 56.9072 9.91292C56.8638 10.0965 56.7507 10.5036 56.7014 10.6535C56.5627 11.076 56.2176 11.8615 56.0242 12.1953C55.9938 12.2477 55.9357 12.349 55.8951 12.4205C55.7988 12.5897 55.5927 12.9052 55.4176 13.1513C55.2193 13.43 55.1992 13.4614 55.1992 13.4925C55.1992 13.5214 62.6761 21.1552 62.821 21.2744L62.9033 21.342L71.7477 21.342C80.2944 21.342 80.593 21.3409 80.6202 21.3103C80.6463 21.2809 80.6483 20.5398 80.6483 10.997C80.6483 1.05833 80.6473 0.71443 80.6172 0.686712C80.5885 0.660225 80.303 0.658042 76.8544 0.658042C73.2614 0.658042 73.1215 0.65922 73.0944 0.689709C73.0684 0.719071 73.066 1.44282 73.0621 10.6703C73.058 20.1293 73.0563 20.6202 73.028 20.6384C73.0022 20.655 72.5981 20.25 70.0143 17.6174C67.5084 15.0643 67.0311 14.5705 67.035 14.535C67.0391 14.4986 67.061 14.485 67.1928 14.4373C69.1398 13.7314 70.7435 12.0466 71.407 10.0098C71.4891 9.75805 71.6143 9.27271 71.6399 9.10744C71.6484 9.05265 71.6634 8.95912 71.6733 8.89956C71.7131 8.6599 71.7251 8.55426 71.7427 8.28892C71.7801 7.72617 71.7542 7.10067 71.6735 6.62156C71.6635 6.56202 71.6484 6.46847 71.6399 6.41368C71.5843 6.05462 71.3512 5.28639 71.1917 4.93688C71.1678 4.88447 71.1127 4.76364 71.0693 4.66837C71.0258 4.57309 70.959 4.44057 70.9207 4.37387C70.8825 4.30718 70.8201 4.19804 70.7822 4.13135C70.5321 3.69132 70.0295 3.03531 69.6808 2.69352C69.3378 2.35743 68.8851 1.98987 68.5698 1.79134C68.523 1.76191 68.4198 1.69667 68.3403 1.64637C68.1717 1.53965 67.6166 1.25358 67.4563 1.19082C67.3955 1.16703 67.2846 1.12369 67.2098 1.0945C67.061 1.03648 66.8817 0.980478 66.5553 0.890051C66.2056 0.793197 65.9895 0.752037 65.5013 0.689379C65.3037 0.664018 53.8969 0.650314 53.8817 0.675415ZM83.1122 0.683681C82.9381 0.722554 82.8171 0.766694 82.6538 0.850937C82.3537 1.00577 82.1439 1.22212 81.9829 1.54284C81.8923 1.72346 81.8784 1.77177 81.8208 2.10711C81.8089 2.17611 81.8045 2.26818 81.8108 2.31499C81.817 2.36121 81.8293 2.45359 81.838 2.52029C81.874 2.79406 81.955 2.98547 82.1433 3.2417C82.2851 3.43463 82.4369 3.56095 82.6715 3.68108C82.9064 3.80138 83.1722 3.86944 83.4023 3.86819C83.6244 3.867 83.9628 3.78786 84.1373 3.69634C84.2498 3.63732 84.4502 3.48992 84.5338 3.40476C84.6997 3.23574 84.8616 2.95597 84.9304 2.71951C84.9512 2.64805 84.9755 2.57167 84.9843 2.54979C85.0046 2.49936 85.0055 1.98715 84.9853 1.96508C84.977 1.95602 84.9511 1.88626 84.9277 1.81004C84.842 1.53027 84.7438 1.3565 84.5556 1.15146C84.3213 0.896306 84.077 0.759955 83.7168 0.683369C83.5751 0.653244 83.2478 0.6534 83.1122 0.683681ZM83.6148 0.897467C83.8744 0.931594 84.1237 1.06689 84.331 1.28615C84.5725 1.54144 84.6649 1.75623 84.7232 2.19723C84.7324 2.26723 84.7169 2.39587 84.6737 2.6069C84.6354 2.79426 84.4882 3.08348 84.3604 3.22273C84.2612 3.33079 84.0332 3.49531 83.9157 3.54364C83.6633 3.64744 83.3217 3.66793 83.0722 3.59424C82.8107 3.51701 82.685 3.43953 82.4924 3.23674C82.2975 3.03148 82.2219 2.90195 82.152 2.65371C82.1103 2.50555 82.1078 2.47695 82.1141 2.21329C82.1199 1.96804 82.1264 1.91401 82.1642 1.79862C82.2735 1.46548 82.5136 1.18188 82.8174 1.02725C82.91 0.980081 83.0317 0.93272 83.0878 0.921997C83.1439 0.911273 83.2243 0.894799 83.2663 0.885393C83.3446 0.867879 83.4062 0.87001 83.6148 0.897467ZM82.8194 1.34697C82.7928 1.37692 82.7903 1.45363 82.7903 2.25479C82.7903 3.24807 82.7813 3.18723 82.9293 3.18723C83.0586 3.18723 83.0623 3.17609 83.0623 2.79562C83.0623 2.39052 83.0624 2.39036 83.2295 2.39036C83.3012 2.39036 83.3567 2.39962 83.3786 2.41519C83.3977 2.42886 83.4618 2.51655 83.5211 2.61007C83.822 3.08487 83.8696 3.15588 83.8972 3.17093C83.9431 3.19598 84.0922 3.19085 84.1146 3.16345C84.1252 3.15035 84.1284 3.12502 84.1217 3.10715C84.1052 3.06313 83.9774 2.85257 83.8377 2.63918C83.6896 2.41304 83.6901 2.38695 83.8428 2.32485C84.0585 2.23714 84.1506 2.08742 84.1502 1.82469C84.1499 1.60341 84.0311 1.4334 83.8285 1.36429C83.7275 1.32985 83.6754 1.32564 83.2826 1.32024C82.8744 1.31461 82.8467 1.3162 82.8194 1.34697ZM83.7277 1.60716C83.8105 1.65104 83.8219 1.66435 83.8519 1.75247C83.8801 1.83542 83.8819 1.85946 83.8646 1.91836C83.8369 2.01268 83.7835 2.07688 83.7012 2.11499C83.6442 2.14136 83.5885 2.14715 83.3888 2.14746C83.1532 2.14782 83.1445 2.14654 83.1041 2.10531C83.0643 2.06477 83.0623 2.05287 83.0623 1.84933C83.0623 1.54601 83.0485 1.55885 83.3759 1.55885C83.6279 1.55885 83.6395 1.56044 83.7277 1.60716ZM17.8799 9.73107C17.8627 9.7508 17.8499 9.8128 17.843 9.90864C17.8373 9.98962 17.8241 10.1689 17.8137 10.3071C17.7892 10.6321 17.7891 11.3766 17.8136 11.6756C17.8241 11.8042 17.8398 12.003 17.8485 12.1173C17.864 12.3211 17.8806 12.455 17.918 12.6804C17.9283 12.7423 17.9437 12.8496 17.9521 12.9189C17.9606 12.9882 17.971 13.0507 17.9754 13.0578C17.9797 13.0649 18.0068 13.1876 18.0356 13.3303C18.1694 13.9937 18.4319 14.8175 18.7109 15.4498C18.8013 15.6546 19.0941 16.2569 19.1499 16.3529C19.1804 16.4053 19.2386 16.5066 19.2793 16.5781C19.3988 16.788 19.8151 17.4191 19.9764 17.6348C20.1149 17.82 20.3024 18.051 20.598 18.4006C20.7898 18.6274 21.2953 19.1216 21.6241 19.4038C21.956 19.6887 22.4758 20.0785 22.7646 20.2593C22.8407 20.3069 22.9499 20.3766 23.0073 20.4141C23.2274 20.558 23.952 20.9452 24.1996 21.0512C25.0163 21.4008 25.6305 21.6037 26.2903 21.7419C26.4303 21.7713 26.55 21.7984 26.5561 21.8023C26.5728 21.8128 26.8932 21.8621 27.1746 21.8975C27.2494 21.9069 27.368 21.9224 27.4381 21.9319C27.5082 21.9414 27.6536 21.9536 27.7611 21.959C27.8686 21.9644 27.9639 21.9759 27.9728 21.9845C27.994 22.0052 29.1263 22.0051 29.1475 21.9845C29.1563 21.9758 29.2592 21.9644 29.3761 21.959C29.493 21.9537 29.646 21.9416 29.7161 21.932C29.7862 21.9224 29.9048 21.9069 29.9796 21.8975C30.3297 21.8535 30.4566 21.8317 30.8126 21.7548C31.2423 21.662 31.5909 21.5656 32.0026 21.4259C32.5361 21.2449 32.8614 21.1078 33.3622 20.8526C34.211 20.4202 34.9447 19.9252 35.6659 19.2984C35.8392 19.1478 36.5236 18.4558 36.6581 18.2952C36.966 17.9275 37.0231 17.8561 37.1603 17.668C37.623 17.0335 37.7349 16.8553 38.0958 16.1788C38.1418 16.0926 38.1867 16.0127 38.1956 16.0012C38.2275 15.9603 38.532 15.2637 38.6286 15.0103C38.8047 14.5491 38.8802 14.3246 38.9538 14.0446C39.0641 13.6248 39.0834 13.5476 39.108 13.4296C39.1224 13.3605 39.1463 13.2475 39.1612 13.1784C39.176 13.1093 39.1951 13.008 39.2037 12.9532C39.2122 12.8984 39.2272 12.8049 39.237 12.7453C39.2809 12.4799 39.2944 12.3608 39.3412 11.8315C39.3663 11.5466 39.3659 10.446 39.3405 10.1598C39.3093 9.80799 39.3025 9.76345 39.2743 9.73107C39.2492 9.70227 38.7184 9.70076 28.5771 9.70076C18.4359 9.70076 17.905 9.70226 17.8799 9.73107Z" fill="#B1B1B1"/>
</svg>
