<svg width="85" height="22" viewBox="0 0 85 22" fill="none" xmlns="http://www.w3.org/2000/svg">
<path fill-rule="evenodd" clip-rule="evenodd" d="M0.0857092 0.0822912C0.00834719 0.15662 0 1.21471 0 10.9476C0 20.6805 0.00834719 21.7386 0.0857092 21.813C0.162689 21.8868 0.826922 21.8952 6.58161 21.8952C10.4403 21.8952 13.0296 21.8758 13.0868 21.8464C13.1809 21.798 13.3867 21.2335 14.0235 19.2762C14.1781 18.8008 14.4237 18.0466 14.5693 17.6C15.131 15.8766 15.0967 16.0211 14.9721 15.9013C14.8959 15.8283 14.5018 15.8191 11.457 15.8191C8.41216 15.8191 8.0181 15.8098 7.94194 15.7368C7.8715 15.6691 7.85623 15.512 7.85623 14.8568C7.85623 14.3061 7.87652 14.0396 7.9217 13.9962C7.97134 13.9485 8.90612 13.9333 11.7953 13.9333C15.3507 13.9333 15.6097 13.9273 15.6988 13.8416C15.7917 13.7524 15.9641 13.28 16.3156 12.1524C16.6291 11.1465 16.9194 10.2507 17.2551 9.2531C17.5072 8.50353 17.5736 8.24492 17.5305 8.17929C17.4786 8.1004 17.0618 8.09055 12.7424 8.06667C8.13845 8.04116 8.00899 8.03775 7.93364 7.93881C7.8763 7.86354 7.85623 7.66292 7.85623 7.16619C7.85623 6.56506 7.86757 6.48434 7.96534 6.39048C8.07287 6.28723 8.14718 6.28572 13.0689 6.28572H18.0634L18.1973 6.15712C18.2709 6.0864 18.3311 5.98625 18.3309 5.9345C18.3308 5.8828 18.407 5.60476 18.5003 5.31667C18.5937 5.02857 18.7429 4.55714 18.832 4.26905C18.9212 3.98095 19.0371 3.62738 19.0896 3.48333C19.3217 2.84743 19.3813 2.66593 19.528 2.14762C19.8348 1.06375 19.8644 0.965225 19.97 0.677444C20.0926 0.343515 20.1054 0.153005 20.0116 0.0628578C19.9611 0.0144054 17.6762 0 10.0588 0C1.14308 0 0.163017 0.00806742 0.0857092 0.0822912ZM31.4015 0.187053C31.3256 0.259915 31.3158 0.60521 31.3158 3.19524C31.3158 5.78527 31.3256 6.13056 31.4015 6.20343C31.4775 6.27634 31.849 6.28572 34.6665 6.28572C37.7632 6.28572 37.8482 6.28839 37.9433 6.38917C38.029 6.4802 38.0383 6.57632 38.0201 7.18798C38.0087 7.57041 37.9996 10.9123 37.9999 14.6143C38.0002 21.4215 38.0115 21.8398 38.1964 21.9527C38.2387 21.9785 40.4762 21.9932 43.2903 21.9863C49.0062 21.9721 48.6162 22.0103 47.9766 21.5277C47.5559 21.2103 47.0556 20.7378 46.7009 20.3229C46.5659 20.1649 46.4105 19.9886 46.3557 19.931C46.2198 19.788 45.6803 19.0523 45.4531 18.7C45.2276 18.3504 44.3915 16.7532 44.2691 16.4384C44.0715 15.9298 43.7136 14.6687 43.64 14.2214C43.5111 13.4375 43.4665 12.8387 43.4665 11.8905C43.4665 10.1712 43.6459 9.10858 44.1851 7.63196C44.5203 6.71414 44.5551 6.63295 44.8717 6.02675C45.457 4.90626 46.2019 3.9016 47.0828 3.04449C48.3575 1.80432 49.1876 1.26951 51.1882 0.399458C51.5095 0.259758 51.5676 0.192552 51.4156 0.136557C51.3682 0.119062 46.8648 0.104762 41.4083 0.104762C32.4619 0.104762 31.4788 0.112829 31.4015 0.187053ZM63.0446 0.187053C62.9673 0.261382 62.9589 1.31948 62.9589 11.0524C62.9589 20.7853 62.9673 21.8434 63.0446 21.9177C63.1206 21.9907 63.4951 22 66.3415 22C69.1879 22 69.5623 21.9907 69.6383 21.9177C69.7153 21.8438 69.7241 21.1711 69.7248 15.3046C69.7253 11.6765 69.7469 8.7417 69.7733 8.70163C69.8804 8.53935 69.8844 8.5492 70.4899 10.4372C70.6077 10.8047 70.8006 11.4057 70.9185 11.7729C71.0363 12.1401 71.163 12.5583 71.2 12.7024C71.237 12.8464 71.3596 13.2471 71.4726 13.5929C71.5855 13.9386 71.7265 14.3864 71.7859 14.5881C72.1706 15.8939 72.3346 16.4335 72.558 17.1286C72.6739 17.4887 72.8212 17.9601 72.8854 18.1762C72.9498 18.3923 73.0723 18.793 73.1579 19.0667C73.2434 19.3404 73.3662 19.7411 73.4307 19.9571C73.5564 20.3784 73.8358 21.2806 73.9336 21.581C73.9665 21.6818 74.0178 21.7938 74.0476 21.8298C74.0904 21.8814 75.2505 21.8952 79.5178 21.8952C84.4061 21.8952 84.937 21.8872 84.9669 21.8124C84.9851 21.7668 85 16.901 85 10.9995C85 1.31471 84.9917 0.261382 84.9143 0.187053C84.8382 0.114086 84.4655 0.104867 81.6272 0.105548C79.7057 0.106072 78.3931 0.126238 78.344 0.156043C78.273 0.199153 78.2569 0.752558 78.222 4.35878C78.16 10.7765 78.127 13.115 78.0973 13.1928C78.0564 13.2996 77.9247 13.1766 77.862 12.9732C77.8339 12.8819 77.737 12.5714 77.6466 12.2833C77.5563 11.9952 77.4297 11.5827 77.3653 11.3667C77.3008 11.1506 77.1534 10.6792 77.0377 10.319C76.9219 9.95893 76.7498 9.41679 76.6551 9.11429C76.3811 8.2389 76.1675 7.55485 76.0007 7.01905C75.9156 6.74536 75.7702 6.27964 75.6777 5.98416C75.2406 4.58799 75.163 4.33992 75.0142 3.86273C74.9265 3.5816 74.7792 3.11017 74.6868 2.81511C74.5945 2.51999 74.4455 2.04286 74.3559 1.75476C73.9957 0.596933 73.847 0.201196 73.7543 0.153581C73.6975 0.124353 71.5445 0.104762 68.3948 0.104762C63.6817 0.104762 63.1214 0.113406 63.0446 0.187053ZM27.3747 4.77368C27.3317 4.84189 27.2195 5.13333 27.1256 5.42143C26.9652 5.91297 26.877 6.20096 26.6124 7.09762C26.5528 7.29929 26.4097 7.75893 26.2942 8.11905C26.101 8.72185 25.9245 9.28233 25.651 10.1619C25.5927 10.3492 25.5135 10.6247 25.4749 10.7742C25.357 11.2307 25.2637 11.2095 27.3899 11.2095C28.404 11.2095 29.2725 11.1952 29.32 11.1777C29.4893 11.1153 29.4132 10.7527 28.8649 9.00953C28.7788 8.73583 28.6562 8.33512 28.5925 8.11905C28.5287 7.90298 28.4532 7.65548 28.4246 7.56905C28.3962 7.48262 28.3125 7.18798 28.2388 6.91429C27.9583 5.87327 27.6135 4.82151 27.5199 4.7213C27.4643 4.6619 27.4398 4.67076 27.3747 4.77368ZM55.8392 7.38289C55.7792 7.40923 55.6239 7.43239 55.4942 7.43443C55.1659 7.43956 54.5171 7.65904 54.0501 7.92299C53.8056 8.06122 53.447 8.3456 53.1018 8.67518C52.6025 9.15179 52.5172 9.26237 52.2526 9.77518C52.0908 10.0887 51.9265 10.4513 51.8875 10.581C51.8485 10.7106 51.7948 10.885 51.7683 10.9685C51.7419 11.0521 51.7202 11.5141 51.7202 11.9952C51.7202 12.4764 51.7419 12.9384 51.7683 13.022C51.7948 13.1055 51.8484 13.2799 51.8874 13.4095C52.0851 14.0679 52.6977 14.9463 53.2756 15.4001C54.0746 16.0276 54.9957 16.3429 56.0302 16.3429C56.7924 16.3429 57.2875 16.2295 57.9977 15.8924C58.7707 15.5255 59.1407 15.2137 59.7228 14.4387C60.0205 14.0423 60.1888 13.6701 60.3729 13.001C60.4656 12.6642 60.4763 11.3758 60.3894 11.0138C60.1797 10.1398 59.9271 9.58257 59.5048 9.06191C58.7692 8.15509 57.8369 7.5823 56.8485 7.43008C56.335 7.35099 55.9528 7.33312 55.8392 7.38289ZM23.805 16.2714C23.7699 16.2851 23.6056 16.7016 23.4398 17.197C23.1579 18.0393 23.0671 18.3226 22.6348 19.708C22.5426 20.0034 22.3713 20.5342 22.2541 20.8873C22.0445 21.5191 21.9952 21.8094 22.0883 21.8647C22.1143 21.8801 24.5019 21.894 27.394 21.8956L32.6524 21.8983L32.6444 21.6742C32.6399 21.5509 32.5873 21.2968 32.5274 21.1095C32.4675 20.9223 32.3676 20.5979 32.3053 20.3888C32.0274 19.4551 31.9562 19.2201 31.8096 18.7524C31.7238 18.4787 31.6232 18.1369 31.5861 17.9929C31.549 17.8488 31.4471 17.507 31.3597 17.2333C31.2723 16.9596 31.1732 16.6459 31.1394 16.5361C31.1055 16.4263 31.0348 16.3143 30.9822 16.2873C30.8859 16.2378 23.9299 16.2224 23.805 16.2714Z" fill="#B1B1B1"/>
</svg>
