<svg width="97" height="30" viewBox="0 0 97 30" fill="none" xmlns="http://www.w3.org/2000/svg">
<path fill-rule="evenodd" clip-rule="evenodd" d="M17.7514 0.0172398C17.618 0.0673949 17.4803 0.262035 16.9998 1.0797C16.7507 1.50358 16.4982 1.92466 16.4386 2.0154C16.3791 2.10615 16.2702 2.29175 16.1966 2.42786C16.123 2.56398 15.991 2.77314 15.9032 2.89267C15.8153 3.01216 15.66 3.28129 15.558 3.49073C15.4559 3.70014 15.2953 3.98284 15.2011 4.11895C15.1069 4.25506 14.9596 4.49635 14.8738 4.65515C14.7881 4.81395 14.6436 5.05524 14.5528 5.19135C14.3194 5.5412 13.7546 6.47398 13.0664 7.64631C12.873 7.9757 12.6314 8.37744 12.5294 8.53904C12.4275 8.70069 12.304 8.91376 12.2551 9.01259C12.2061 9.11137 12.0612 9.34998 11.9331 9.54281C11.8049 9.73563 11.6408 10.014 11.5682 10.1615C11.4957 10.309 11.3683 10.5224 11.2851 10.6358C11.1225 10.8575 10.7601 11.447 10.4991 11.9145C10.2793 12.3079 10.1872 12.4619 9.67244 13.2962C9.22381 14.0233 8.92562 14.5205 8.46039 15.3173C8.3213 15.5554 8.09702 15.9267 7.962 16.1422C7.82693 16.3577 7.55021 16.828 7.347 17.1873C7.14379 17.5466 6.87994 17.9828 6.76066 18.1566C6.64133 18.3304 6.46629 18.6299 6.37156 18.8223C6.27687 19.0146 6.09428 19.3302 5.96582 19.5235C5.83737 19.7168 5.69406 19.9521 5.64735 20.0464C5.60063 20.1407 5.40947 20.4563 5.2225 20.7476C5.03556 21.0389 4.78592 21.4444 4.66777 21.6485C4.54958 21.8527 4.37937 22.1404 4.28947 22.2878C4.19961 22.4353 3.96665 22.8171 3.7718 23.1364C3.57699 23.4557 3.35896 23.8362 3.28733 23.982C3.21565 24.1277 3.04901 24.3992 2.91698 24.5852C2.78496 24.7711 2.56149 25.1432 2.42037 25.412C2.27926 25.6808 2.06427 26.0391 1.94264 26.2081C1.66925 26.5881 1.54072 26.7999 1.22208 27.3951C1.08457 27.652 0.861514 28.0293 0.726404 28.2335C0.312186 28.8596 -3.49508e-08 29.4629 -3.51578e-08 29.6374C-3.53887e-08 29.832 0.115142 29.9479 0.340758 29.9803C0.43236 29.9934 8.36148 29.9988 17.961 29.9922C34.5904 29.9808 35.4199 29.9768 35.5245 29.9071C35.6917 29.7957 35.6779 29.5526 35.4863 29.2354C35.4049 29.1006 35.1977 28.749 35.0258 28.4541C34.8539 28.1592 34.6146 27.7563 34.494 27.5588C34.2289 27.1248 33.9411 26.646 33.6586 26.1692C33.1922 25.382 32.9231 24.9415 32.6793 24.5667C32.5385 24.3501 32.3764 24.0782 32.3192 23.9625C32.262 23.8468 32.1167 23.5979 31.9964 23.4095C31.876 23.2211 31.7235 22.9613 31.6573 22.8321C31.5912 22.7029 31.3364 22.2631 31.0911 21.8547C30.8458 21.4464 30.5232 20.9082 30.3742 20.6586C30.2252 20.4091 30.0174 20.075 29.9124 19.9162C29.8075 19.7574 29.6301 19.4604 29.5184 19.2562C29.4067 19.0521 29.1639 18.6345 28.9789 18.3282C28.7939 18.022 28.5758 17.6506 28.4942 17.503C28.2855 17.1254 27.8355 16.3912 27.5588 15.9772C27.43 15.7844 27.2559 15.4874 27.172 15.3173C27.0881 15.1471 26.9682 14.932 26.9056 14.8393C26.8429 14.7465 26.5834 14.3196 26.3288 13.8906C25.6271 12.708 24.4789 10.8093 24.2082 10.3839C24.1345 10.268 24.0062 10.036 23.9232 9.86832C23.8402 9.70061 23.7048 9.46135 23.6223 9.33658C23.5399 9.21181 23.3753 8.9334 23.2567 8.71789C23.138 8.50237 22.9553 8.19612 22.8506 8.03733C22.7459 7.87853 22.5814 7.6094 22.4851 7.43926C22.3887 7.26912 22.1367 6.87006 21.925 6.55247C21.7133 6.23487 21.4611 5.80798 21.3646 5.60381C21.268 5.39964 21.031 4.98203 20.8378 4.67577C20.6446 4.36952 20.3954 3.95191 20.284 3.74774C20.1726 3.54357 19.9762 3.22804 19.8476 3.04656C19.719 2.86507 19.5559 2.59994 19.4853 2.4574C19.3229 2.12961 19.0725 1.71315 18.8747 1.44204C18.7904 1.32635 18.6234 1.0394 18.5037 0.804338C18.2802 0.365274 18.0376 0.040008 17.9079 0.00556757C17.8675 -0.0051564 17.7971 8.14109e-05 17.7514 0.0172398ZM21.4496 11.9968C21.8465 12.0822 22.6935 12.3706 23.0324 12.5358C23.4228 12.7261 23.7261 12.9849 24.1349 13.4766C24.5168 13.936 24.6277 14.1475 24.873 14.8842C25.2514 16.0211 25.2539 16.9451 24.8824 18.362C24.6753 19.152 24.6737 19.2449 24.863 19.5305C25.0759 19.8517 25.1327 19.9789 25.3392 20.5967C25.5714 21.2917 25.6694 21.855 25.6377 22.3119C25.6078 22.7418 25.4333 23.5375 25.2797 23.9439C25.1336 24.3303 25.0376 24.4772 24.588 25.0021C24.2075 25.4465 23.8368 25.7269 23.1781 26.0687C22.5827 26.3777 22.3187 26.4291 21.3278 26.4291C20.3805 26.4291 20.148 26.3881 19.5533 26.1165C19.0959 25.9076 18.9439 25.9222 18.4447 26.2228C18.2223 26.3568 17.8989 26.5668 17.726 26.6896C17.5532 26.8123 17.2427 26.9837 17.0361 27.0704C16.8295 27.1571 16.5195 27.2943 16.3471 27.3754C15.8714 27.5993 15.4198 27.7507 14.6164 27.9555C13.686 28.1927 13.4992 28.2114 12.3178 28.1856L11.3437 28.1644L10.7958 27.9735C10.0247 27.705 9.85601 27.6199 9.39013 27.2649C8.82939 26.8376 8.46769 26.4286 8.18936 25.9069C7.77847 25.1369 7.63004 24.5497 7.63025 23.6951C7.63041 23.0221 7.69247 22.5545 7.86086 21.9579C8.14755 20.9419 8.73552 19.6483 9.2107 18.9881C9.31683 18.8407 9.48287 18.5994 9.57966 18.452C9.93361 17.9127 10.5876 17.1362 11.2584 16.4586C12.0484 15.6606 12.503 15.2734 13.8334 14.2655C14.1572 14.0201 15.3499 13.3209 15.8082 13.1076C15.9867 13.0245 16.3429 12.8584 16.5996 12.7385C17.3292 12.3977 18.7563 12.032 19.7288 11.9366C20.2206 11.8885 21.0866 11.9187 21.4496 11.9968ZM20.1272 13.6018C20.1179 13.6111 19.8911 13.6383 19.6232 13.6623C19.0479 13.7137 17.9359 14.0222 17.367 14.2881C17.1752 14.3777 17.0047 14.4511 16.9882 14.4511C16.9157 14.4511 16.3455 14.7265 16.0111 14.9231C15.8102 15.0412 15.5423 15.196 15.4157 15.2672C14.7499 15.6419 13.4814 16.6708 12.4048 17.7095C11.6769 18.4118 10.3977 20.2297 9.88223 21.2943C9.59391 21.8898 9.25356 23.1427 9.25356 23.6086C9.25356 24.3556 9.62731 25.1555 10.2544 25.7507C10.6595 26.1352 10.9852 26.2935 11.6532 26.4308C12.3704 26.5782 12.8599 26.5735 13.7226 26.4106C14.0884 26.3416 14.479 26.2554 14.5906 26.2191C15.4848 25.9285 17.0561 25.1524 17.3781 24.8424C17.609 24.6199 17.6281 24.4914 17.4784 24.1645C17.0685 23.2691 16.9335 22.1626 17.1223 21.2454C17.3482 20.1486 17.6225 19.6486 18.4378 18.848C18.6988 18.5916 18.885 18.4468 19.055 18.368C20.1132 17.8774 20.0939 17.8843 20.6092 17.8118C21.2589 17.7203 21.7869 17.7444 22.4363 17.8951C22.9167 18.0065 22.9416 18.0084 23.078 17.9422C23.1848 17.8905 23.2471 17.8147 23.3291 17.6368C23.4353 17.4066 23.4383 17.3794 23.438 16.6371C23.4378 15.8023 23.4171 15.6989 23.1242 15.0698C22.8915 14.57 22.1889 13.9625 21.6468 13.7924C21.2494 13.6676 20.1938 13.5353 20.1272 13.6018ZM42.977 15.6046C42.5963 15.6437 42.4388 15.6942 42.0266 15.909C41.7608 16.0476 41.6173 16.165 41.2351 16.5566C40.733 17.0712 40.5605 17.3247 40.3901 17.7988L40.2814 18.1014L40.2705 23.7982C40.2619 28.3091 40.2704 29.5284 40.3111 29.6552C40.3516 29.7812 40.4014 29.8352 40.5452 29.9094C40.7271 30.0031 40.7336 30.0035 42.2701 29.9919C43.9943 29.9789 43.9786 29.9814 44.1301 29.6937L44.2182 29.5265L44.2385 25.6906C44.2544 22.672 44.2699 21.835 44.3109 21.7619C44.3894 21.6223 44.5611 21.64 44.7108 21.8032C44.9162 22.027 45.3314 22.6147 45.4429 22.8393C45.5609 23.0768 46.1513 23.9519 46.5319 24.4532C46.6696 24.6347 46.9864 25.0895 47.2359 25.4638C47.4854 25.8381 47.7627 26.2464 47.8522 26.3712C48.0536 26.652 48.0939 26.8476 47.9799 26.9908L47.8986 27.093L46.8884 27.1136C45.4654 27.1427 45.5372 27.0664 45.5372 28.5472C45.5372 29.484 45.5415 29.5382 45.6286 29.7137C45.7771 30.0132 45.7094 30.0065 48.4174 29.9905C51.1036 29.9747 50.9414 29.9932 51.6286 29.6243C52.0906 29.3762 52.3906 29.0863 52.5722 28.7121C53.0438 27.7408 52.8842 26.6379 52.1533 25.8184C52.0272 25.677 51.8532 25.4419 51.7666 25.296C51.68 25.1501 51.4347 24.7843 51.2214 24.4831C51.0082 24.182 50.7435 23.8015 50.6334 23.6376C50.0679 22.7963 49.5961 22.1113 49.3914 21.8341C49.2657 21.664 48.9656 21.2278 48.7244 20.8648C48.2517 20.1531 48.0554 19.8817 47.6662 19.4006C47.5285 19.2305 47.2473 18.8221 47.0412 18.4932C46.3332 17.363 45.9667 16.8914 45.3926 16.3719C44.6789 15.7261 43.9736 15.5021 42.977 15.6046ZM93.1092 15.6281C92.7797 15.7044 92.1987 16.0151 91.8694 16.2912C91.6232 16.4975 91.1208 17.0634 90.9325 17.3465C90.8827 17.4214 90.7172 17.6776 90.5648 17.9158C90.4124 18.1539 90.1827 18.4832 90.0544 18.6475C89.9261 18.8117 89.754 19.076 89.672 19.2346C89.59 19.3932 89.4168 19.6486 89.2871 19.8021C89.0171 20.1216 87.8627 21.7419 87.663 22.0816C87.5896 22.2064 87.4356 22.4291 87.3207 22.5766C87.087 22.8764 86.5942 23.5711 86.3259 23.9789C86.229 24.1264 85.9001 24.5904 85.5952 25.0101C84.5116 26.5014 84.3386 26.8657 84.3376 27.6581C84.3369 28.1682 84.4487 28.4681 84.8291 28.976C85.1176 29.3613 85.2717 29.4937 85.6786 29.7057C86.2465 30.0016 86.2908 30.0055 88.9031 29.9921C91.4743 29.9789 91.3967 29.9874 91.5507 29.7011C91.6561 29.5051 91.6814 27.7234 91.5825 27.4603C91.4647 27.1469 91.429 27.137 90.3236 27.1136C89.1694 27.0892 89.1349 27.0787 89.1656 26.763C89.1786 26.6294 89.6901 25.8467 90.5941 24.577C90.7394 24.3728 91.0295 23.9459 91.2386 23.6283C91.4478 23.3107 91.6852 22.9649 91.7662 22.8598C91.8472 22.7547 92.0012 22.5166 92.1085 22.3307C92.4313 21.7711 92.6828 21.5679 92.8558 21.7269C92.9519 21.8153 92.9892 22.46 92.9908 24.0614C92.9915 24.7079 92.9926 25.4458 92.9934 25.7009C92.9963 26.6606 92.989 27.9056 92.9756 28.7499C92.9624 29.58 92.9659 29.6289 93.0458 29.7398C93.092 29.804 93.1924 29.8896 93.269 29.9301C93.3976 29.9982 93.5357 30.0025 95.0925 29.9873C96.0188 29.9782 96.827 29.9568 96.8884 29.9398L97 29.9087L97 24.0733C97 18.4001 96.9979 18.2347 96.9226 18.1274C96.8801 18.0667 96.8141 17.9061 96.776 17.7705C96.6433 17.298 96.4441 16.9766 96.0072 16.53C95.5664 16.0794 95.3338 15.9363 94.6663 15.705C94.3974 15.6118 94.258 15.5904 93.8546 15.5804C93.5341 15.5724 93.2792 15.5887 93.1092 15.6281ZM54.1269 15.8546C54.0631 15.874 53.9738 15.9235 53.9286 15.9645C53.728 16.1459 53.7356 15.8969 53.7356 22.3015C53.7356 26.1574 53.7502 28.3767 53.7765 28.5176C53.8628 28.9805 54.1402 29.4078 54.483 29.6064C54.5741 29.6593 54.8223 29.765 55.0343 29.8413L55.4199 29.9802L60.1075 29.9802L64.7952 29.9802L64.9637 29.8886C65.0565 29.8382 65.1895 29.7268 65.2594 29.6411C65.4759 29.3756 65.5119 29.1631 65.4977 28.2319C65.4837 27.3116 65.4672 27.2533 65.1779 27.1034C65.0486 27.0364 64.7929 27.0312 61.5848 27.0312C59.2268 27.0311 58.0912 27.0171 58.0058 26.9868C57.7435 26.8939 57.7347 26.8491 57.7202 25.5463C57.7066 24.3133 57.7245 24.1382 57.8792 23.996C57.9616 23.9201 58.0838 23.9163 61.022 23.8964C64.0434 23.8761 64.0804 23.8748 64.1936 23.7896C64.4191 23.6199 64.4299 23.5576 64.4299 22.4249C64.4299 21.4396 64.4256 21.3805 64.3459 21.27C64.1498 20.9984 64.2868 21.0093 61.0904 21.0093C57.9335 21.0092 57.9828 21.0128 57.8617 20.7748C57.8168 20.6867 57.7985 20.4573 57.7879 19.852C57.7753 19.1266 57.7812 19.035 57.848 18.9314C58.0019 18.6927 57.8916 18.6994 61.6295 18.6994C65.367 18.6994 65.257 18.7062 65.411 18.4676C65.4771 18.3652 65.4864 18.2381 65.4966 17.299C65.5095 16.1097 65.4924 16.0221 65.2213 15.8845C65.0881 15.8168 64.7422 15.8125 59.6611 15.8158C56.6811 15.8177 54.1907 15.8352 54.1269 15.8546ZM67.2483 15.8484C67.0399 15.9185 66.9581 15.9873 66.8828 16.1558C66.8085 16.322 66.806 16.5292 66.8057 22.3291C66.8054 28.8773 66.7964 28.6134 67.0355 29.0599C67.1807 29.3312 67.484 29.6102 67.7895 29.7536C68.3207 30.0029 68.2812 30.0009 72.6367 29.9998C74.8752 29.9993 76.6751 29.9825 76.765 29.9613C76.9929 29.9076 77.2338 29.7207 77.3758 29.4873L77.4985 29.2856L77.4985 28.3709C77.4985 27.6956 77.4846 27.4298 77.4454 27.3552C77.3247 27.1258 77.4624 27.1359 74.1502 27.1136C71.8799 27.0984 71.0641 27.0802 71.0015 27.0437C70.7904 26.9205 70.8034 27.2459 70.7816 21.5475C70.7626 16.568 70.7569 16.2348 70.6897 16.1306C70.5308 15.8842 70.4845 15.8742 69.4846 15.8723C68.9814 15.8714 68.2957 15.8577 67.9609 15.8421C67.626 15.8264 67.3054 15.8292 67.2483 15.8484ZM74.9242 15.8831C74.8477 15.9235 74.7472 16.0089 74.701 16.0729C74.6225 16.1816 74.6161 16.2542 74.6042 17.1723C74.5897 18.2878 74.6119 18.4398 74.8107 18.5839C74.9414 18.6786 74.9451 18.6788 76.709 18.6994C78.3323 18.7184 78.4856 18.7262 78.5895 18.7954C78.8284 18.9547 78.8174 18.6908 78.8198 24.2973C78.8216 28.1737 78.8341 29.4787 78.8706 29.5845C78.8972 29.6618 78.9706 29.7639 79.0335 29.8114C79.1435 29.8943 79.2016 29.8982 80.4873 29.9101C81.6148 29.9206 81.8614 29.9122 82.0476 29.8572C82.3266 29.7748 82.6047 29.5159 82.6688 29.279C82.7 29.1634 82.7134 27.6241 82.7136 24.1323C82.7138 18.705 82.7031 18.9546 82.9419 18.7954C83.0457 18.7262 83.1984 18.7184 84.8021 18.6994C86.6818 18.6772 86.6635 18.6795 86.7801 18.4579C86.8201 18.3819 86.8333 18.0878 86.8333 17.2731C86.8333 15.7767 86.8799 15.8308 85.5954 15.8365C85.1378 15.8385 84.5534 15.8407 84.2967 15.8413C84.0399 15.8419 83.6929 15.8496 83.5255 15.8583C83.3581 15.8669 82.8467 15.8706 82.3891 15.8664C75.812 15.8061 75.0668 15.8078 74.9242 15.8831Z" fill="#B1B1B1"/>
</svg>
