<svg width="90" height="29" viewBox="0 0 90 29" fill="none" xmlns="http://www.w3.org/2000/svg">
<path d="M15.2451 27.771H7.16241V8.1738H0V1.14913H22.3675V8.1738H15.2451V27.771Z" fill="#B1B1B1"/>
<path d="M46.4141 28.25C41.2923 28.25 37.1576 26.8397 34.0099 24.0192L38.2113 18.0323C40.6121 20.3206 43.4797 21.4648 46.8142 21.4648C48.7882 21.4648 49.7752 20.9859 49.7752 20.0279C49.7752 19.5756 49.255 19.2297 48.2147 18.9902C47.201 18.7507 45.9606 18.4979 44.4934 18.2319C43.0529 17.9658 41.5991 17.5799 40.132 17.0744C38.6915 16.5688 37.4511 15.6774 36.4107 14.4002C35.397 13.123 34.8902 11.5132 34.8902 9.57076C34.8902 7.14937 35.8638 5.0739 37.8112 3.34434C39.7852 1.61478 42.5061 0.75 45.9739 0.75C50.4821 0.75 54.2567 1.9873 57.2977 4.4619L52.9763 10.1695C50.6555 8.41328 48.0413 7.5352 45.1336 7.5352C43.7732 7.5352 43.0929 7.93433 43.0929 8.73258C43.0929 9.1051 43.4531 9.42441 44.1733 9.6905C44.9202 9.95658 45.8405 10.1695 46.9342 10.3291C48.0279 10.4621 49.215 10.7282 50.4954 11.1274C51.8026 11.4999 53.003 11.9522 54.0967 12.4844C55.1904 13.0166 56.0973 13.8547 56.8176 14.9989C57.5645 16.1165 57.938 17.4469 57.938 18.9902C57.938 21.9172 56.9109 24.1922 54.8569 25.8153C52.8296 27.4384 50.0153 28.25 46.4141 28.25Z" fill="#B1B1B1"/>
<path d="M90 27.771H71.7939V1.14913H79.8766V20.7464H90V27.771Z" fill="#B1B1B1"/>
</svg>
