<svg width="97" height="26" viewBox="0 0 97 26" fill="none" xmlns="http://www.w3.org/2000/svg">
<path fill-rule="evenodd" clip-rule="evenodd" d="M0 10.923V21.5906L0.0600008 21.651L0.120002 21.7115L3.44624 21.7062L6.7725 21.7008L6.81855 21.6544C6.8595 21.6131 6.86609 21.5799 6.87791 21.3553C6.90521 20.8367 7.00923 20.3177 7.20771 19.71C7.42363 19.0489 7.64947 18.5366 7.97487 17.9699C8.35655 17.3053 8.54975 17.0195 9.06481 16.3575C9.63194 15.6286 10.1602 15.0085 12.2389 12.6314C13.0255 11.7319 13.736 10.8736 14.1495 10.3231C15.0244 9.15847 15.4423 8.41794 15.6253 7.70773C15.6813 7.49032 15.6934 7.17226 15.6529 6.97679C15.5927 6.68557 15.3974 6.43162 15.059 6.20454C14.6676 5.94188 14.1563 5.77896 13.4234 5.6834C13.2096 5.65552 12.2054 5.65315 12.0164 5.68009C11.9411 5.69082 11.7873 5.71011 11.6748 5.72296C10.8578 5.81626 9.9653 5.99232 9.11677 6.22753C7.50457 6.67447 6.01768 7.224 4.26677 8.02005C3.95643 8.16115 3.91929 8.13162 3.8676 7.703C3.71219 6.41465 3.58861 5.80483 3.33244 5.06229C3.11853 4.44224 2.89162 4.00149 2.59459 3.62896C2.43591 3.42998 2.35577 3.36502 1.84728 3.02311C1.55697 2.82792 1.47115 2.76005 1.46048 2.71722C1.44082 2.63824 1.50375 2.59548 1.68315 2.56589C1.76477 2.55244 1.95126 2.51887 2.09757 2.49129C2.91837 2.3366 4.403 2.0963 4.95744 2.0284C5.15477 2.00422 5.3922 1.97433 5.61229 1.94592C5.70513 1.93394 5.8686 1.91572 5.97553 1.9054C6.08245 1.89511 6.25742 1.87679 6.36435 1.8647C7.98472 1.68142 10.3966 1.66172 11.6185 1.82181C11.7114 1.83398 11.8587 1.85261 11.9459 1.86321C12.5871 1.94116 13.3964 2.11922 13.9872 2.31234C15.727 2.88096 16.9439 3.85497 17.5906 5.19639C17.9135 5.86612 18.0864 6.55638 18.1356 7.37291C18.1628 7.82318 18.1627 7.87779 18.1343 8.32192C18.1007 8.84895 18.0782 9.05433 18.0107 9.44998C17.7938 10.7214 17.3699 12.0514 16.6934 13.5827C16.4739 14.0795 15.8871 15.2826 15.6792 15.6619C15.1609 16.6078 14.6802 17.434 14.1103 18.3587C13.6811 19.055 13.6244 19.1554 13.417 19.5862C13.1185 20.2061 12.9235 20.7815 12.8276 21.3256C12.7799 21.5964 12.7888 21.6547 12.8833 21.6909C12.9171 21.7039 14.4058 21.7112 17.0291 21.7112H21.1221L21.182 21.6509L21.2418 21.5906V10.923V0.255371H10.6209H0V10.923ZM32.9882 1.72173V3.18809L33.0484 3.2488L33.1086 3.30952L34.552 3.30395L35.9953 3.29838L36.0419 3.2514L36.0885 3.20441L36.094 1.7299L36.0995 0.255371H34.5438H32.9882V1.72173ZM49.5232 10.8611V21.4668L49.5834 21.5275L49.6437 21.5882L51.087 21.5826L52.5303 21.5771L52.5769 21.5301L52.6235 21.4831L52.6287 10.8692L52.6339 0.255371H51.0785H49.5232V10.8611ZM54.6802 10.8611V21.4668L54.74 21.5271L54.7998 21.5874H56.215H57.6302L57.69 21.5271L57.7498 21.4668V10.8611V0.255371H56.215H54.6802V10.8611ZM29.1716 6.38382C29.1266 6.39321 29.0287 6.40144 28.9541 6.40208C28.8794 6.40274 28.6953 6.42199 28.5448 6.44487C28.049 6.52021 27.6696 6.64536 27.2006 6.88814C26.6912 7.15192 26.2072 7.53588 25.8397 7.96778C25.3419 8.55282 25.0486 9.10869 24.8744 9.79701C24.8098 10.0523 24.7912 10.1691 24.7402 10.6429C24.7246 10.7875 24.7199 12.438 24.7244 16.1661L24.7309 21.4831L24.7775 21.5301L24.8241 21.5771L26.2647 21.5826L27.7052 21.5882L27.7631 21.538L27.821 21.4878L27.8312 16.0653L27.8415 10.6429L27.8991 10.4784C28.032 10.0993 28.3348 9.73282 28.6319 9.59157C28.9108 9.45893 28.9327 9.4566 29.904 9.4566H30.7812L30.841 9.3963L30.9008 9.336V7.90931V6.48262L30.841 6.42232L30.7812 6.36202L30.0173 6.36439C29.5972 6.36569 29.2166 6.37444 29.1716 6.38382ZM33.0484 6.42191L32.9882 6.48262V13.9747V21.4668L33.0484 21.5275L33.1086 21.5882L34.552 21.5826L35.9953 21.5771L36.0419 21.5301L36.0885 21.4831V13.9747V6.46633L36.0419 6.41933L35.9953 6.37233L34.552 6.36676L33.1086 6.36119L33.0484 6.42191ZM42.637 6.38263C42.592 6.39267 42.4849 6.40144 42.399 6.40208C42.3131 6.40274 42.1197 6.42199 41.9693 6.44487C40.8927 6.60849 39.859 7.17791 39.1644 7.98989C38.5753 8.67858 38.2896 9.37909 38.1663 10.4366C38.1321 10.7299 38.1468 17.6007 38.1821 17.8532C38.2161 18.0958 38.3383 18.5823 38.4306 18.8428C38.7174 19.6518 39.2486 20.3194 40.0189 20.8389C40.2994 21.028 40.515 21.1422 40.8135 21.2595C41.4344 21.5035 42.4058 21.64 43.0043 21.5674C43.095 21.5564 43.2566 21.5369 43.3635 21.5241C43.6287 21.4924 44.0436 21.383 44.3817 21.2557C45.4823 20.8412 46.4396 20.0006 46.9297 19.0179C47.0381 18.8005 47.1995 18.3504 47.2807 18.0389C47.3717 17.6898 47.4424 17.2338 47.4163 17.1645C47.3709 17.044 47.4309 17.0486 45.9081 17.0486C45.0705 17.0486 44.4916 17.0565 44.4607 17.0684C44.3849 17.0974 44.3455 17.1728 44.3236 17.3307C44.2793 17.6506 44.1575 17.8984 43.9471 18.0964C43.7687 18.2644 43.6423 18.3316 43.3736 18.4012C43.1851 18.45 43.1418 18.4536 42.8212 18.4467C42.4811 18.4394 42.4682 18.4374 42.2439 18.3606C41.8867 18.2382 41.6002 18.0311 41.4338 17.775C41.2389 17.4749 41.2104 17.2823 41.2189 16.322C41.225 15.6294 41.2252 15.626 41.2716 15.5793L41.3182 15.5323L44.3276 15.522L47.3371 15.5117L47.3865 15.4538L47.4359 15.3959V12.9449C47.4359 10.5836 47.4343 10.4835 47.394 10.2074C47.233 9.10423 46.7723 8.23414 45.9875 7.55151C45.3784 7.02162 44.8558 6.74183 44.1106 6.5466C43.7477 6.45153 43.6072 6.42808 43.2509 6.40305C43.1046 6.39278 42.9251 6.37988 42.8519 6.37435C42.7787 6.36885 42.682 6.37256 42.637 6.38263ZM64.2472 6.38263C64.2021 6.39267 64.0952 6.40144 64.0096 6.40208C63.6519 6.40483 62.9732 6.55089 62.5722 6.71148C62.1238 6.89109 61.6032 7.20692 61.2664 7.50375C60.4946 8.18407 60.0419 9.04213 59.8784 10.1347C59.8382 10.4032 59.8371 10.5058 59.8371 13.9747C59.8371 17.4436 59.8382 17.5462 59.8784 17.8147C59.9234 18.1156 60.0289 18.5444 60.1135 18.7702C60.1944 18.9859 60.4349 19.4522 60.5574 19.6309C60.8611 20.0736 61.3007 20.5068 61.7504 20.8064C61.9783 20.9582 62.3458 21.1485 62.6175 21.2552C63.2449 21.5017 64.278 21.6429 64.9009 21.5674C64.9916 21.5564 65.1532 21.5368 65.2601 21.5238C65.4734 21.4979 65.9365 21.3888 66.1725 21.3089C67.2406 20.9475 68.1614 20.167 68.6467 19.2119C68.8758 18.761 69.0219 18.2535 69.1063 17.616C69.121 17.5046 69.1281 16.3209 69.128 13.9725C69.1278 10.5767 69.1268 10.4872 69.086 10.2074C69.0066 9.66346 68.885 9.26259 68.665 8.81951C68.3495 8.18411 67.8574 7.63416 67.2066 7.18984C66.5405 6.73506 65.7291 6.46278 64.8611 6.40276C64.7148 6.39265 64.5352 6.37988 64.462 6.37435C64.3889 6.36885 64.2922 6.37256 64.2472 6.38263ZM65.0862 9.50537C65.6441 9.66466 65.9511 10.0521 66.0227 10.6873C66.0588 11.0072 66.059 16.9821 66.0229 17.3013C65.9565 17.8891 65.7101 18.2312 65.2248 18.4093C65.0493 18.4737 64.6892 18.534 64.4804 18.534C64.2885 18.534 63.9689 18.4818 63.7882 18.4208C63.2863 18.2517 63.0244 17.9168 62.9379 17.3338C62.891 17.0173 62.8911 10.9739 62.9381 10.6516C62.9762 10.3901 63.0126 10.2699 63.1044 10.1015C63.2216 9.8865 63.3749 9.73798 63.5897 9.63132C63.904 9.47529 64.0112 9.45607 64.5234 9.46374C64.8599 9.46877 64.9923 9.47857 65.0862 9.50537ZM43.21 9.53038C43.4179 9.56691 43.6518 9.6543 43.7792 9.74299C43.9318 9.84928 44.1181 10.0642 44.1833 10.2089C44.3013 10.4713 44.3095 10.5372 44.3291 11.3752C44.3391 11.8007 44.3492 12.1974 44.3516 12.2566C44.3552 12.3448 44.3475 12.3729 44.3094 12.4114L44.2628 12.4583H42.7905H41.3182L41.2716 12.4114C41.2253 12.3647 41.225 12.3604 41.2188 11.6893C41.2087 10.5822 41.2656 10.3473 41.6317 9.98198C41.7908 9.82321 41.8503 9.77953 42.0333 9.68729C42.1693 9.61878 42.3121 9.56473 42.4222 9.54018C42.6408 9.49136 42.9651 9.48732 43.21 9.53038ZM74.0579 11.2089L73.9978 11.2695L74.0046 14.9688C74.0095 17.6284 74.0181 18.7232 74.0353 18.8641C74.0797 19.2278 74.2038 19.6519 74.3532 19.9512C74.5105 20.266 74.8824 20.6902 75.2259 20.9465C75.4115 21.0851 75.7867 21.2842 76.0027 21.3589C76.0752 21.3839 76.2502 21.434 76.3915 21.4701C76.6484 21.5358 76.6485 21.5358 77.1907 21.5357C77.6809 21.5356 77.7537 21.531 77.9479 21.488C78.7558 21.3093 79.4137 20.8917 79.8704 20.2677C80.1494 19.8865 80.3287 19.3904 80.3881 18.8354C80.4031 18.6956 80.4128 17.4144 80.4175 14.9482L80.4246 11.2695L80.3645 11.2089L80.3044 11.1483H79.3395H78.3745L78.3147 11.2086L78.2549 11.2689V14.9818C78.2549 18.6896 78.2548 18.6949 78.2121 18.8362C78.1002 19.206 77.8681 19.3895 77.4358 19.4499C77.2527 19.4754 77.1965 19.4757 77.0506 19.4518C76.8276 19.4153 76.6107 19.3113 76.4612 19.1693C76.3223 19.0373 76.2642 18.9485 76.2092 18.7839C76.1679 18.6602 76.1675 18.627 76.1675 14.964V11.2689L76.1077 11.2086L76.0479 11.1483H75.0829H74.1179L74.0579 11.2089ZM84.8296 11.1914C84.0084 11.3454 83.3142 11.7864 82.8217 12.4671C82.7342 12.588 82.5509 12.9558 82.4926 13.1275C82.4287 13.3154 82.376 13.5551 82.3382 13.8303C82.3088 14.0437 82.3061 14.6479 82.3113 19.8488L82.317 25.63L82.3737 25.6872L82.4305 25.7444H83.4015H84.3725L84.4191 25.6975L84.4657 25.6505L84.4759 23.6504L84.4862 21.6504L84.5328 21.6034C84.579 21.5568 84.5846 21.5563 85.3002 21.5448L86.021 21.5332L86.2563 21.4688C86.8164 21.3155 87.2068 21.1059 87.6786 20.705C88.1993 20.2625 88.5139 19.7262 88.6513 19.0464C88.6915 18.8478 88.6923 18.7798 88.6862 16.2592C88.6804 13.9051 88.6768 13.6627 88.6449 13.5311C88.4953 12.9136 88.2203 12.4107 87.8369 12.0534C87.3607 11.6095 86.8056 11.3219 86.1882 11.1989C85.9689 11.1552 85.8854 11.1494 85.4889 11.1507C85.1385 11.1519 84.9924 11.1609 84.8296 11.1914ZM93.4085 11.1734C93.0141 11.2253 92.5738 11.357 92.2537 11.519C91.6131 11.8431 91.0517 12.5026 90.822 13.201C90.7062 13.5532 90.6725 13.7635 90.6619 14.2016C90.6534 14.5493 90.658 14.6369 90.6953 14.8468C90.8401 15.6609 91.2769 16.3761 91.9026 16.8233C92.1296 16.9855 92.274 17.0683 92.4882 17.1591C92.8315 17.3046 93.3614 17.42 93.6871 17.42C94.2238 17.4201 94.6083 17.6081 94.7615 17.9453C94.9462 18.3521 94.8848 18.9193 94.6254 19.203C94.4681 19.375 94.1763 19.4831 93.869 19.4831C93.5628 19.4831 93.3093 19.3911 93.1189 19.2108C92.9679 19.068 92.8966 18.9526 92.8345 18.7507C92.7694 18.5394 92.75 18.5024 92.6891 18.4744C92.6549 18.4587 92.3468 18.4515 91.7075 18.4515H90.7758L90.7159 18.5118C90.6646 18.5636 90.6561 18.5879 90.6561 18.6836C90.6561 18.984 90.8078 19.55 90.9755 19.875C91.2486 20.4045 91.7372 20.9082 92.283 21.2228C92.6199 21.417 93.2926 21.5874 93.7225 21.5874C93.9939 21.5874 94.4877 21.5088 94.8104 21.4143C95.4949 21.2138 96.0748 20.7745 96.502 20.1329C96.7019 19.8328 96.8105 19.5816 96.9079 19.1942C96.9378 19.0752 96.9711 18.9672 96.9818 18.9542C96.9935 18.94 96.9986 18.716 96.9946 18.397C96.9879 17.8722 96.9867 17.8597 96.9231 17.6263C96.7678 17.057 96.5307 16.6346 96.1522 16.2529C95.9192 16.0181 95.6784 15.8443 95.3936 15.7054C94.9823 15.5049 94.5938 15.3968 94.135 15.355C94.0168 15.3442 93.8327 15.3271 93.7257 15.3169C93.5406 15.2993 93.3734 15.254 93.243 15.186C93.1709 15.1484 92.9739 14.942 92.9112 14.8383C92.8519 14.7404 92.7844 14.4717 92.7844 14.3338C92.7844 14.178 92.8377 13.9415 92.9026 13.8098C92.9693 13.6741 93.2106 13.4201 93.3312 13.3584C93.5597 13.2417 93.9198 13.217 94.1578 13.3017C94.5117 13.4276 94.7846 13.7236 94.8531 14.0559C94.8684 14.1302 94.8957 14.1877 94.9338 14.2261L94.9914 14.2842H95.9957H97V14.0201C97 13.8748 96.9917 13.7472 96.9816 13.7364C96.9714 13.7256 96.9392 13.6275 96.91 13.5183C96.8086 13.1392 96.7058 12.9085 96.5022 12.603C96.2563 12.2338 95.9077 11.8751 95.5728 11.6467C95.3703 11.5086 94.9629 11.3187 94.7489 11.2627C94.3396 11.1554 93.812 11.1203 93.4085 11.1734ZM85.8298 13.2634C86.108 13.3195 86.3548 13.4941 86.4561 13.7065C86.5635 13.9315 86.5633 13.9266 86.5633 16.3339C86.5633 18.7373 86.5658 18.6773 86.4582 18.8905C86.434 18.9384 86.3431 19.0495 86.2561 19.1373C85.9693 19.4269 85.7406 19.4897 85.0133 19.4791C84.5931 19.4729 84.5778 19.4713 84.5328 19.4257L84.4862 19.3788L84.4807 16.6922C84.4753 14.0206 84.4755 14.0048 84.518 13.8612C84.6282 13.4884 84.8597 13.3124 85.3321 13.2424C85.5187 13.2148 85.6071 13.2185 85.8298 13.2634Z" fill="#B1B1B1"/>
</svg>
