<svg width="96" height="17" viewBox="0 0 96 17" fill="none" xmlns="http://www.w3.org/2000/svg">
<path fill-rule="evenodd" clip-rule="evenodd" d="M62.0967 0.128598C61.974 0.169053 61.7505 0.206291 61.6001 0.211347C61.1868 0.225231 59.4824 0.820206 58.8101 1.18541C57.4256 1.93734 56.2639 3.13832 55.5269 4.57965C55.1877 5.24294 54.7807 6.5983 54.7807 7.06427C54.7807 7.21332 54.7333 7.57144 54.6755 7.86015C54.5694 8.38911 54.5808 8.52702 54.8718 10.2425C55.1946 12.1449 56.2543 14.0088 57.6425 15.1154C58.3874 15.7093 59.6596 16.4292 60.2664 16.6003C61.3477 16.9052 61.8445 16.9545 63.8371 16.9545C65.7162 16.9545 65.9538 16.9363 66.6475 16.7387C68.5579 16.1946 69.5571 15.3335 70.4985 13.4199C70.9954 12.4099 71.1584 11.9265 71.2461 11.2028C71.2979 10.7757 71.2835 10.7072 71.123 10.6187C71.01 10.5563 70.3017 10.5184 69.2539 10.5184C67.7326 10.5184 67.5522 10.5349 67.419 10.6865C67.3378 10.779 67.2714 10.9767 67.2714 11.1258C67.2714 11.7924 66.2658 13.3633 65.55 13.815C65.09 14.1052 64.1582 14.38 63.6338 14.38C62.4543 14.38 61.3536 13.8681 60.4372 12.8932C59.6338 12.0385 59.4606 11.7731 59.195 10.9898C58.7037 9.54081 58.6243 8.56334 58.8729 7.02446C59.1373 5.38656 60.1251 3.92169 61.4314 3.22953C61.9208 2.97034 62.7777 2.795 63.5553 2.795C64.4276 2.795 65.1656 3.02302 65.9305 3.52881C66.6153 3.98173 67.2653 5.05721 67.2694 5.74422C67.2708 5.96709 67.3378 6.13728 67.4778 6.2729C67.674 6.46286 67.7643 6.47279 69.287 6.47279C71.2848 6.47279 71.323 6.45588 71.2322 5.61449C71.0975 4.3668 70.6225 3.41949 69.5842 2.32801C69.0243 1.73938 68.749 1.53508 67.981 1.13788C66.4524 0.347334 65.1412 0.0319642 63.4413 0.0458479C62.8244 0.0509048 62.2193 0.0881419 62.0967 0.128598ZM0.147658 0.5726C0.0127583 0.72624 0 1.40332 0 8.41963C0 15.742 0.00758318 16.1056 0.163182 16.2507C0.301918 16.38 0.560119 16.4028 1.88913 16.4028C3.28978 16.4028 3.46724 16.3854 3.59955 16.2347C3.73071 16.0853 3.74721 15.727 3.74721 13.0371C3.74721 10.444 3.7672 9.97819 3.88613 9.80331L4.02495 9.59892H7.77118H11.5174L11.7364 9.82464L11.9554 10.0503V13.0744C11.9554 15.8873 11.9668 16.1092 12.1186 16.2507C12.2565 16.3793 12.5094 16.4028 13.7553 16.4028C15.0695 16.4028 15.2448 16.3846 15.3765 16.2347C15.5114 16.081 15.5242 15.4039 15.5242 8.38763C15.5242 1.06524 15.5166 0.70169 15.361 0.556601C15.223 0.42797 14.9702 0.404432 13.7243 0.404432C12.4101 0.404432 12.2347 0.422638 12.103 0.5726C11.9726 0.721091 11.9554 1.05963 11.9554 3.473V6.20533L11.7364 6.43096L11.5174 6.65668H7.77118H4.02495L3.88613 6.45229C3.76782 6.27833 3.74721 5.83626 3.74721 3.47833C3.74721 0.911968 3.73526 0.697644 3.58403 0.556601C3.44529 0.427234 3.18709 0.404432 1.85808 0.404432C0.457428 0.404432 0.27997 0.421903 0.147658 0.5726ZM18.7053 0.5726C18.5704 0.72624 18.5576 1.40332 18.5576 8.41963C18.5576 15.742 18.5652 16.1056 18.7208 16.2507C18.8614 16.3819 19.1363 16.4028 20.7144 16.4028C22.3744 16.4028 22.5586 16.3872 22.6925 16.2347C22.8274 16.081 22.8401 15.4039 22.8401 8.38763C22.8401 1.06524 22.8326 0.70169 22.677 0.556601C22.5364 0.425396 22.2615 0.404432 20.6834 0.404432C19.0233 0.404432 18.8392 0.420064 18.7053 0.5726ZM24.2369 0.5726C24.1148 0.711621 24.0892 0.956102 24.0892 1.98349C24.0892 3.09695 24.1072 3.24304 24.2625 3.38777C24.4212 3.53589 24.6203 3.54499 26.6491 3.49709C27.8664 3.4684 29.0501 3.41774 29.2795 3.38455C29.6497 3.33104 29.7222 3.3509 29.9263 3.56118L30.1561 3.79802V9.94831C30.1561 15.7897 30.1643 16.1061 30.3193 16.2507C30.4579 16.3799 30.7146 16.4028 32.0203 16.4028C32.9098 16.4028 33.631 16.3627 33.7308 16.3077C33.8988 16.215 33.9033 16.048 33.9033 10.0052V3.79802L34.1224 3.57239L34.3413 3.34667H36.919C39.3027 3.34667 39.5076 3.33407 39.6442 3.1785C39.765 3.04095 39.7918 2.80134 39.7918 1.85955C39.7918 0.861489 39.7701 0.688542 39.6286 0.556601C39.4796 0.417488 38.8163 0.404432 31.925 0.404432C24.7332 0.404432 24.3777 0.412248 24.2369 0.5726ZM43.7462 0.611308C43.6467 0.725136 43.3764 1.25262 43.1454 1.78361C42.732 2.73395 42.5337 3.18135 41.3532 5.82918C41.0263 6.56244 40.5847 7.55544 40.372 8.03585C40.1593 8.51627 39.7838 9.36446 39.5375 9.92072C38.9566 11.2326 37.2312 15.1652 37.0652 15.5555C36.8969 15.9512 36.9022 16.2775 37.0779 16.347C37.1556 16.3777 38.0318 16.4028 39.0252 16.4028C41.1497 16.4028 41.0177 16.4662 41.516 15.2076C42.0377 13.8897 42.1987 13.5645 42.4018 13.4178C42.5692 13.297 43.0824 13.2767 45.9679 13.2767C49.8741 13.2767 49.4968 13.1754 50.0232 14.3657C50.1944 14.7529 50.4409 15.312 50.5712 15.6082C50.7014 15.9045 50.8876 16.2045 50.9851 16.2748C51.1223 16.374 51.5693 16.4028 52.9643 16.4028C53.9552 16.4028 54.8296 16.3777 54.9072 16.347C55.097 16.272 55.0851 15.9397 54.8756 15.4629C54.6049 14.8466 53.8974 13.1907 53.6665 12.6331C53.5513 12.355 53.233 11.6302 52.9591 11.0223C52.6851 10.4146 52.461 9.88992 52.461 9.85655C52.461 9.80258 51.7641 8.16789 50.9008 6.19696C50.5493 5.39446 49.8648 3.79839 49.56 3.07083C48.7682 1.18045 48.5093 0.620595 48.3802 0.519363C48.2722 0.434774 47.6652 0.404432 46.0803 0.404432C43.9603 0.404432 43.9242 0.40765 43.7462 0.611308ZM73.3075 0.5726C73.1726 0.72624 73.1599 1.40332 73.1599 8.41963C73.1599 15.742 73.1674 16.1056 73.323 16.2507C73.4642 16.3823 73.7448 16.4028 75.4059 16.4028C77.1805 16.4028 77.3371 16.3896 77.4794 16.2276C77.6188 16.0689 77.6285 15.8588 77.5827 13.9979C77.5549 12.868 77.5093 11.5164 77.4812 10.9945C77.4395 10.2183 77.4561 10.0048 77.5722 9.82216L77.7141 9.59892H81.1957H84.6773L84.8962 9.82464L85.1152 10.0503V13.0744C85.1152 15.8873 85.1267 16.1092 85.2784 16.2507C85.419 16.3819 85.6939 16.4028 87.272 16.4028C88.932 16.4028 89.1162 16.3872 89.2501 16.2347C89.385 16.081 89.3978 15.4039 89.3978 8.38763C89.3978 1.06524 89.3902 0.70169 89.2346 0.556601C89.094 0.425396 88.8191 0.404432 87.241 0.404432C85.581 0.404432 85.3968 0.420064 85.2629 0.5726C85.1327 0.720815 85.1152 1.05319 85.1152 3.38105V6.02144L84.8962 6.24707L84.6773 6.47279H81.1987H77.7201L77.5813 6.2684C77.4633 6.09481 77.4424 5.6611 77.4424 3.38639C77.4424 0.909118 77.4302 0.697368 77.2792 0.556601C77.1386 0.425396 76.8637 0.404432 75.2856 0.404432C73.6256 0.404432 73.4414 0.420064 73.3075 0.5726ZM92.5789 0.5726C92.444 0.72624 92.4312 1.40332 92.4312 8.41963C92.4312 15.742 92.4388 16.1056 92.5944 16.2507C92.7323 16.3793 92.9852 16.4028 94.2311 16.4028C95.5453 16.4028 95.7207 16.3846 95.8523 16.2347C95.9872 16.081 96 15.4039 96 8.38763C96 1.06524 95.9924 0.70169 95.8368 0.556601C95.6989 0.42797 95.446 0.404432 94.2001 0.404432C92.8859 0.404432 92.7106 0.422638 92.5789 0.5726ZM46.2775 4.47299C46.6774 5.38646 48.2677 9.61832 48.2677 9.76911C48.2677 9.8742 48.19 10.003 48.0951 10.0554C47.9103 10.1573 44.0171 10.1927 43.7694 10.0948C43.6918 10.0641 43.6283 9.9358 43.6283 9.80975C43.6283 9.56002 44.2156 7.9748 44.8476 6.51876C45.0672 6.01307 45.3528 5.35107 45.4824 5.04765C45.612 4.74423 45.7546 4.44431 45.7993 4.38105C45.9281 4.1989 46.1787 4.24708 46.2775 4.47299Z" fill="#B1B1B1"/>
</svg>
