<svg width="22" height="85" viewBox="0 0 22 85" fill="none" xmlns="http://www.w3.org/2000/svg">
<path fill-rule="evenodd" clip-rule="evenodd" d="M0.0822912 84.9143C0.15662 84.9917 1.21471 85 10.9476 85C20.6805 85 21.7386 84.9917 21.813 84.9143C21.8868 84.8373 21.8952 84.1731 21.8952 78.4184C21.8952 74.5597 21.8758 71.9704 21.8464 71.9132C21.798 71.8191 21.2335 71.6133 19.2762 70.9765C18.8008 70.8219 18.0466 70.5763 17.6 70.4307C15.8766 69.869 16.0211 69.9033 15.9013 70.0279C15.8283 70.1041 15.819 70.4982 15.819 73.543C15.819 76.5878 15.8098 76.9819 15.7368 77.0581C15.6691 77.1285 15.512 77.1438 14.8568 77.1438C14.3061 77.1438 14.0396 77.1235 13.9962 77.0783C13.9485 77.0287 13.9333 76.0939 13.9333 73.2047C13.9333 69.6493 13.9273 69.3903 13.8416 69.3012C13.7524 69.2083 13.28 69.0359 12.1524 68.6844C11.1465 68.3709 10.2507 68.0806 9.2531 67.7449C8.50353 67.4928 8.24492 67.4264 8.17929 67.4695C8.1004 67.5214 8.09055 67.9382 8.06667 72.2576C8.04116 76.8615 8.03775 76.991 7.93881 77.0664C7.86354 77.1237 7.66292 77.1438 7.16619 77.1438C6.56506 77.1438 6.48434 77.1324 6.39048 77.0347C6.28723 76.9271 6.28571 76.8528 6.28571 71.9311L6.28571 66.9366L6.15712 66.8027C6.0864 66.7291 5.98625 66.6689 5.9345 66.6691C5.8828 66.6692 5.60476 66.593 5.31667 66.4997C5.02857 66.4063 4.55714 66.2571 4.26905 66.168C3.98095 66.0788 3.62738 65.9629 3.48333 65.9104C2.84743 65.6783 2.66593 65.6187 2.14762 65.472C1.06375 65.1652 0.965224 65.1356 0.677443 65.03C0.343514 64.9074 0.153005 64.8946 0.0628569 64.9884C0.0144045 65.0389 -7.7265e-07 67.3238 -4.39682e-07 74.9412C-4.99656e-08 83.8569 0.00806741 84.837 0.0822912 84.9143ZM0.187052 53.5985C0.259914 53.6744 0.605208 53.6842 3.19524 53.6842C5.78527 53.6842 6.13056 53.6744 6.20342 53.5985C6.27634 53.5225 6.28571 53.151 6.28571 50.3335C6.28571 47.2368 6.28838 47.1518 6.38916 47.0567C6.4802 46.971 6.57632 46.9617 7.18797 46.9799C7.57041 46.9913 10.9123 47.0004 14.6143 47.0001C21.4215 46.9998 21.8398 46.9885 21.9527 46.8036C21.9785 46.7613 21.9932 44.5238 21.9863 41.7097C21.9721 35.9938 22.0103 36.3838 21.5277 37.0234C21.2103 37.4441 20.7378 37.9444 20.3229 38.2991C20.1649 38.4341 19.9886 38.5895 19.931 38.6443C19.788 38.7802 19.0523 39.3197 18.7 39.5469C18.3504 39.7724 16.7532 40.6085 16.4384 40.7309C15.9298 40.9285 14.6687 41.2864 14.2214 41.36C13.4375 41.4889 12.8387 41.5335 11.8905 41.5335C10.1712 41.5335 9.10857 41.3541 7.63196 40.8149C6.71414 40.4797 6.63295 40.4449 6.02674 40.1283C4.90626 39.543 3.90159 38.7981 3.04448 37.9172C1.80431 36.6425 1.2695 35.8124 0.399455 33.8118C0.259755 33.4905 0.19255 33.4324 0.136555 33.5844C0.119059 33.6318 0.10476 38.1352 0.10476 43.5917C0.104761 52.5381 0.112828 53.5212 0.187052 53.5985ZM0.18705 21.9554C0.261379 22.0327 1.31947 22.0411 11.0524 22.0411C20.7853 22.0411 21.8434 22.0327 21.9177 21.9554C21.9907 21.8794 22 21.5049 22 18.6585C22 15.8121 21.9907 15.4377 21.9177 15.3617C21.8437 15.2847 21.1711 15.2759 15.3046 15.2752C11.6764 15.2747 8.7417 15.2531 8.70163 15.2267C8.53935 15.1196 8.5492 15.1156 10.4372 14.5101C10.8047 14.3923 11.4057 14.1994 11.7729 14.0815C12.1401 13.9637 12.5583 13.837 12.7024 13.8C12.8464 13.763 13.2471 13.6404 13.5929 13.5274C13.9386 13.4145 14.3864 13.2735 14.5881 13.2141C15.8938 12.8294 16.4335 12.6654 17.1286 12.442C17.4887 12.3261 17.9601 12.1788 18.1762 12.1146C18.3923 12.0502 18.793 11.9277 19.0667 11.8421C19.3404 11.7566 19.7411 11.6338 19.9571 11.5693C20.3784 11.4436 21.2806 11.1642 21.581 11.0664C21.6818 11.0335 21.7938 10.9822 21.8298 10.9524C21.8814 10.9096 21.8952 9.74952 21.8952 5.48217C21.8952 0.593848 21.8872 0.0630102 21.8124 0.0331182C21.7668 0.0148916 16.901 -7.38765e-07 10.9995 -4.80802e-07C1.31471 -5.74677e-08 0.261378 0.00834655 0.187049 0.0857086C0.114083 0.161758 0.104864 0.5345 0.105545 3.37278C0.106069 5.29433 0.126235 6.60686 0.15604 6.65597C0.199149 6.727 0.752554 6.7431 4.35877 6.77795C10.7765 6.83999 13.115 6.87299 13.1928 6.90272C13.2996 6.94359 13.1766 7.07529 12.9732 7.13798C12.8819 7.16613 12.5714 7.26302 12.2833 7.35337C11.9952 7.44366 11.5827 7.57029 11.3667 7.63472C11.1506 7.69915 10.6792 7.84656 10.319 7.96233C9.95893 8.0781 9.41678 8.25024 9.11428 8.34495C8.23889 8.61888 7.55485 8.83253 7.01905 8.99925C6.74535 9.08442 6.27963 9.2298 5.98415 9.32228C4.58799 9.75939 4.33992 9.83697 3.86272 9.98581C3.5816 10.0735 3.11017 10.2208 2.81511 10.3132C2.51999 10.4055 2.04285 10.5545 1.75476 10.6441C0.59693 11.0043 0.201192 11.153 0.153578 11.2457C0.12435 11.3025 0.104759 13.4555 0.104759 16.6052C0.104759 21.3183 0.113403 21.8786 0.18705 21.9554ZM4.77368 57.6253C4.84188 57.6683 5.13333 57.7805 5.42143 57.8744C5.91297 58.0348 6.20096 58.123 7.09762 58.3876C7.29929 58.4472 7.75893 58.5903 8.11905 58.7058C8.72185 58.899 9.28232 59.0755 10.1619 59.349C10.3492 59.4073 10.6247 59.4865 10.7742 59.5251C11.2307 59.643 11.2095 59.7363 11.2095 57.6101C11.2095 56.596 11.1952 55.7275 11.1777 55.68C11.1153 55.5107 10.7527 55.5868 9.00952 56.1351C8.73583 56.2212 8.33512 56.3438 8.11905 56.4075C7.90298 56.4713 7.65548 56.5468 7.56905 56.5754C7.48262 56.6038 7.18798 56.6875 6.91429 56.7612C5.87327 57.0417 4.82151 57.3865 4.7213 57.4801C4.6619 57.5357 4.67076 57.5602 4.77368 57.6253ZM7.38288 29.1608C7.40923 29.2208 7.43238 29.3761 7.43443 29.5058C7.43956 29.8341 7.65904 30.4829 7.92299 30.9499C8.06122 31.1944 8.34559 31.553 8.67518 31.8982C9.15179 32.3975 9.26237 32.4828 9.77518 32.7474C10.0887 32.9092 10.4513 33.0735 10.581 33.1125C10.7106 33.1515 10.885 33.2052 10.9685 33.2317C11.0521 33.2581 11.5141 33.2798 11.9952 33.2798C12.4764 33.2798 12.9384 33.2581 13.022 33.2317C13.1055 33.2052 13.2799 33.1516 13.4095 33.1126C14.0679 32.9149 14.9463 32.3023 15.4001 31.7244C16.0276 30.9254 16.3429 30.0043 16.3429 28.9698C16.3429 28.2076 16.2295 27.7125 15.8924 27.0023C15.5255 26.2293 15.2137 25.8593 14.4387 25.2772C14.0423 24.9795 13.6701 24.8112 13.001 24.6271C12.6642 24.5344 11.3758 24.5237 11.0138 24.6106C10.1398 24.8203 9.58257 25.0729 9.0619 25.4952C8.15508 26.2308 7.5823 27.1631 7.43008 28.1515C7.35098 28.665 7.33312 29.0472 7.38288 29.1608ZM16.2714 61.195C16.2851 61.2301 16.7016 61.3944 17.197 61.5602C18.0393 61.8421 18.3226 61.9329 19.708 62.3652C20.0034 62.4574 20.5342 62.6287 20.8873 62.7459C21.5191 62.9555 21.8094 63.0048 21.8647 62.9117C21.8801 62.8857 21.894 60.4981 21.8956 57.606L21.8983 52.3476L21.6742 52.3556C21.5509 52.3601 21.2968 52.4127 21.1095 52.4726C20.9223 52.5325 20.5979 52.6324 20.3888 52.6947C19.4551 52.9726 19.2201 53.0438 18.7524 53.1904C18.4787 53.2762 18.1369 53.3768 17.9929 53.4139C17.8488 53.451 17.507 53.5529 17.2333 53.6403C16.9596 53.7277 16.6459 53.8268 16.5361 53.8606C16.4263 53.8945 16.3143 53.9652 16.2873 54.0178C16.2378 54.1141 16.2224 61.0701 16.2714 61.195Z" fill="#B1B1B1"/>
</svg>
