<svg width="36" height="137" viewBox="0 0 36 137" fill="none" xmlns="http://www.w3.org/2000/svg">
<path fill-rule="evenodd" clip-rule="evenodd" d="M15.0666 137L30.1332 137L30.2186 136.915L30.3041 136.831L30.2965 132.133L30.289 127.435L30.2234 127.37C30.1651 127.312 30.1182 127.303 29.8009 127.286C29.0684 127.247 28.3355 127.1 27.4771 126.82C26.5434 126.515 25.8199 126.196 25.0196 125.737C24.0808 125.197 23.6771 124.925 22.7422 124.197C21.7128 123.396 20.8369 122.65 17.4796 119.714C16.2092 118.603 14.9969 117.6 14.2193 117.016C12.5745 115.78 11.5286 115.19 10.5255 114.931C10.2184 114.852 9.76922 114.835 9.49313 114.892C9.08182 114.977 8.72316 115.253 8.40244 115.731C8.03145 116.284 7.80135 117.006 7.66638 118.041C7.62702 118.343 7.62367 119.761 7.66172 120.028C7.67687 120.135 7.70412 120.352 7.72227 120.511C7.85403 121.665 8.1027 122.925 8.4349 124.124C9.06614 126.401 9.84229 128.501 10.9666 130.974C11.1659 131.412 11.1242 131.465 10.5188 131.538C8.69918 131.757 7.83789 131.932 6.78916 132.293C5.91341 132.595 5.29091 132.916 4.76476 133.335C4.48373 133.56 4.39197 133.673 3.90907 134.391C3.63339 134.801 3.53753 134.922 3.47704 134.937C3.3655 134.965 3.30509 134.876 3.26331 134.623C3.24431 134.507 3.19691 134.244 3.15795 134.037C2.93947 132.878 2.60007 130.781 2.50418 129.998C2.47003 129.72 2.42781 129.384 2.38768 129.073C2.37076 128.942 2.34503 128.711 2.33046 128.56C2.31592 128.409 2.29004 128.162 2.27297 128.011C2.01411 125.723 1.98628 122.316 2.21239 120.59C2.22958 120.459 2.25589 120.251 2.27087 120.128C2.38095 119.222 2.63244 118.079 2.9052 117.245C3.70831 114.788 5.08397 113.069 6.97855 112.155C7.92446 111.699 8.89936 111.455 10.0526 111.386C10.6885 111.347 10.7657 111.348 11.393 111.388C12.1373 111.435 12.4274 111.467 12.9862 111.562C14.782 111.869 16.6603 112.467 18.8232 113.423C19.5249 113.733 21.2241 114.562 21.7597 114.855C23.0957 115.587 24.2626 116.266 25.5686 117.071C26.5521 117.677 26.6939 117.757 27.3023 118.05C28.1778 118.472 28.9905 118.747 29.759 118.883C30.1415 118.95 30.2238 118.938 30.275 118.804C30.2933 118.756 30.3035 116.654 30.3035 112.949L30.3035 107.168L30.2184 107.083L30.1332 106.999L15.0666 106.999L-1.3114e-06 106.999L-6.55699e-07 121.999L0 137L15.0666 137ZM2.07104 90.4084L4.14208 90.4084L4.22784 90.3234L4.31359 90.2383L4.30572 88.1998L4.29785 86.1613L4.23151 86.0955L4.16513 86.0296L2.08258 86.0219L-2.22867e-06 86.0141L-2.13262e-06 88.2113L-2.03658e-06 90.4084L2.07104 90.4084ZM14.9792 67.0549L29.9584 67.0549L30.0441 66.9698L30.1299 66.8847L30.122 64.8462L30.1141 62.8077L30.0478 62.7419L29.9814 62.6761L14.9907 62.6687L-3.24944e-06 62.6614L-3.15342e-06 64.8581L-3.0574e-06 67.0549L14.9792 67.0549ZM14.9792 59.7713L29.9584 59.7713L30.0435 59.6868L30.1287 59.6023L30.1287 57.6036L30.1287 55.6048L30.0435 55.5204L29.9584 55.4359L14.9792 55.4359L-3.56528e-06 55.4359L-3.47053e-06 57.6036L-3.37577e-06 59.7713L14.9792 59.7713ZM8.65565 95.7988C8.66891 95.8624 8.68053 96.0007 8.68143 96.1061C8.68237 96.2115 8.70955 96.4716 8.74187 96.6842C8.84828 97.3843 9.02503 97.9203 9.36793 98.5826C9.74048 99.3022 10.2828 99.9857 10.8928 100.505C11.7191 101.208 12.5042 101.622 13.4763 101.868C13.8369 101.959 14.0019 101.986 14.671 102.058C14.8753 102.08 17.2064 102.086 22.4719 102.08L29.9814 102.071L30.0478 102.005L30.1141 101.939L30.122 99.9045L30.1298 97.8699L30.0589 97.7882L29.988 97.7064L22.3295 97.692L14.671 97.6775L14.4386 97.5961C13.9032 97.4084 13.3857 96.9807 13.1862 96.5612C12.9988 96.1672 12.9955 96.1362 12.9955 94.7645L12.9955 93.5255L12.9104 93.441L12.8252 93.3565L10.8102 93.3565L8.79519 93.3565L8.71002 93.441L8.62485 93.5255L8.6282 94.6044C8.63003 95.1977 8.64239 95.7353 8.65565 95.7988ZM8.70944 90.3234L8.79519 90.4084L19.3768 90.4084L29.9584 90.4084L30.0441 90.3234L30.1299 90.2383L30.122 88.1998L30.1141 86.1613L30.0478 86.0955L29.9814 86.0296L19.3768 86.0296L8.77217 86.0296L8.70579 86.0955L8.63942 86.1613L8.63155 88.1998L8.62368 90.2383L8.70944 90.3234ZM8.65396 76.7807C8.66815 76.8443 8.68053 76.9956 8.68143 77.1169C8.68237 77.2382 8.70955 77.5113 8.74187 77.7238C8.97296 79.2443 9.7772 80.7043 10.924 81.6853C11.8967 82.5173 12.8861 82.9209 14.3796 83.095C14.7939 83.1433 24.4981 83.1226 24.8547 83.0726C25.1972 83.0247 25.8844 82.8521 26.2523 82.7217C27.3949 82.3166 28.3378 81.5664 29.0716 80.4784C29.3387 80.0823 29.4999 79.7777 29.6656 79.3561C30.0102 78.4792 30.203 77.1073 30.1005 76.2619C30.085 76.1339 30.0575 75.9057 30.0394 75.7546C29.9945 75.3801 29.84 74.7941 29.6602 74.3166C29.0749 72.7621 27.8875 71.4101 26.4996 70.7178C26.1926 70.5647 25.5569 70.3367 25.117 70.2221C24.6239 70.0935 23.9798 69.9937 23.8819 70.0306C23.7118 70.0947 23.7183 70.01 23.7183 72.1608C23.7183 73.3438 23.7295 74.1614 23.7462 74.205C23.7872 74.3121 23.8936 74.3677 24.1167 74.3986C24.5686 74.4612 24.9184 74.6332 25.1982 74.9303C25.4354 75.1823 25.5303 75.3608 25.6286 75.7404C25.6976 76.0066 25.7026 76.0677 25.6928 76.5206C25.6825 77.0009 25.6798 77.0192 25.5713 77.336C25.3985 77.8404 25.106 78.2451 24.7442 78.4801C24.3204 78.7554 24.0483 78.7957 22.692 78.7837C21.7138 78.775 21.7091 78.7747 21.643 78.7092L21.5767 78.6433L21.5621 74.3929L21.5476 70.1425L21.4658 70.0727L21.384 70.003L17.9224 70.003C14.5874 70.003 14.4459 70.0051 14.0559 70.062C12.4979 70.2894 11.269 70.9402 10.3049 72.0486C9.55645 72.9089 9.16128 73.647 8.88554 74.6995C8.75128 75.212 8.71815 75.4104 8.6828 75.9136C8.66829 76.1203 8.65008 76.3739 8.64227 76.4772C8.63449 76.5805 8.63974 76.7171 8.65396 76.7807ZM8.65396 46.2592C8.66815 46.3228 8.68053 46.4738 8.68143 46.5947C8.68531 47.1 8.8916 48.0584 9.11841 48.6248C9.37209 49.2582 9.81816 49.9934 10.2374 50.4691C11.1983 51.5592 12.4102 52.1986 13.9533 52.4295C14.3324 52.4862 14.4774 52.4878 19.3768 52.4878C24.2762 52.4878 24.4211 52.4862 24.8003 52.4295C25.2253 52.3659 25.8309 52.2169 26.1498 52.0974C26.4544 51.9832 27.1131 51.6435 27.3654 51.4704C27.9907 51.0415 28.6025 50.4206 29.0257 49.7855C29.2401 49.4637 29.5088 48.9446 29.6596 48.5608C30.0077 47.6748 30.2072 46.2156 30.1005 45.3358C30.085 45.2078 30.0572 44.9795 30.0389 44.8285C30.0023 44.5273 29.8482 43.8732 29.7354 43.5398C29.2249 42.0313 28.1226 40.7308 26.7736 40.0454C26.1368 39.7218 25.4201 39.5154 24.5196 39.3963C24.3623 39.3754 22.6904 39.3655 19.3736 39.3656C14.5775 39.3658 14.4511 39.3672 14.0559 39.4249C13.2877 39.537 12.7215 39.7088 12.0957 40.0195C11.1983 40.4651 10.4216 41.1602 9.79404 42.0794C9.15172 43.0201 8.76716 44.1662 8.68239 45.3921C8.66812 45.5987 8.65008 45.8524 8.64227 45.9557C8.63449 46.059 8.63974 46.1956 8.65396 46.2592ZM13.0644 45.0742C13.2894 44.2862 13.8366 43.8526 14.7338 43.7514C15.1856 43.7004 23.6243 43.7002 24.0752 43.7511C24.9054 43.8449 25.3885 44.1929 25.6401 44.8784C25.731 45.1262 25.8163 45.6349 25.8163 45.9297C25.8163 46.2007 25.7425 46.6522 25.6564 46.9074C25.4174 47.6163 24.9445 47.9862 24.1211 48.1083C23.6741 48.1746 15.1385 48.1744 14.6834 48.108C14.314 48.0542 14.1442 48.0029 13.9064 47.8732C13.6027 47.7076 13.393 47.4911 13.2423 47.1877C13.0219 46.7438 12.9948 46.5925 13.0056 45.869C13.0127 45.3937 13.0266 45.2068 13.0644 45.0742ZM13.0997 75.9714C13.1513 75.6778 13.2748 75.3475 13.4 75.1676C13.5502 74.952 13.8537 74.6888 14.0581 74.5968C14.4287 74.4302 14.5218 74.4185 15.7054 74.3908C16.3064 74.3767 16.8665 74.3624 16.9502 74.359C17.0748 74.354 17.1145 74.3648 17.1688 74.4187L17.2351 74.4845L17.2351 76.5639L17.2351 78.6433L17.1688 78.7092C17.1028 78.7746 17.0968 78.7751 16.149 78.7837C14.5853 78.798 14.2536 78.7177 13.7376 78.2006C13.5133 77.9759 13.4516 77.8918 13.3214 77.6333C13.2246 77.4414 13.1483 77.2396 13.1136 77.0842C13.0446 76.7753 13.0389 76.3173 13.0997 75.9714ZM15.4704 32.4028L15.556 32.4877L20.7808 32.4781C24.5372 32.4712 26.0835 32.459 26.2825 32.4347C26.7961 32.372 27.3951 32.1968 27.8178 31.9856C28.2624 31.7635 28.8615 31.2383 29.2236 30.7532C29.4193 30.491 29.7006 29.9611 29.806 29.656C29.8413 29.5536 29.9121 29.3065 29.9631 29.1069C30.0559 28.744 30.0559 28.7439 30.0557 27.9781C30.0556 27.2858 30.0491 27.1829 29.9884 26.9086C29.7359 25.7675 29.1461 24.8384 28.2648 24.1934C27.7265 23.7993 27.0258 23.546 26.2419 23.4621C26.0445 23.441 24.235 23.4273 20.7517 23.4206L15.556 23.4106L15.4704 23.4955L15.3849 23.5804L15.3849 24.9433L15.3849 26.3061L15.47 26.3906L15.5552 26.4751L20.7992 26.4751C26.0359 26.4751 26.0435 26.4752 26.243 26.5356C26.7653 26.6935 27.0245 27.0214 27.1097 27.6319C27.1458 27.8905 27.1462 27.9699 27.1125 28.176C27.0609 28.4909 26.9141 28.7972 26.7135 29.0084C26.5271 29.2046 26.4016 29.2866 26.1691 29.3643C25.9945 29.4227 25.9476 29.4232 20.7741 29.4232L15.5552 29.4232L15.47 29.5077L15.3849 29.5922L15.3849 30.9551L15.3849 32.318L15.4704 32.4028ZM15.4457 17.1891C15.6632 18.349 16.286 19.3294 17.2475 20.0251C17.4182 20.1486 17.9377 20.4075 18.1802 20.4899C18.4456 20.5801 18.7841 20.6544 19.1728 20.7079C19.4742 20.7494 20.3276 20.7533 27.6731 20.746L35.8384 20.7379L35.9192 20.6577L36 20.5776L36 19.2062L36 17.8347L35.9337 17.7689L35.8673 17.7031L33.0425 17.6886L30.2177 17.6742L30.1513 17.6084C30.0855 17.5431 30.0849 17.5351 30.0686 16.5245L30.0522 15.5064L29.9613 15.174C29.7448 14.383 29.4487 13.8316 28.8825 13.1653C28.2575 12.4298 27.5 11.9855 26.54 11.7914C26.2593 11.7347 26.1634 11.7335 22.6033 11.7422C19.2784 11.7503 18.9361 11.7555 18.7503 11.8005C17.8782 12.0119 17.1679 12.4002 16.6631 12.9418C16.0363 13.6143 15.63 14.3983 15.4563 15.2703C15.3946 15.5801 15.3865 15.698 15.3883 16.2579C15.3899 16.7529 15.4026 16.9592 15.4457 17.1891ZM15.4203 5.07246C15.4936 5.62964 15.6797 6.25145 15.9084 6.70352C16.3661 7.60837 17.2977 8.40126 18.2841 8.72563C18.7814 8.88919 19.0785 8.93672 19.6973 8.95175C20.1884 8.9637 20.312 8.95729 20.6085 8.90457C21.7583 8.70013 22.7685 8.08311 23.4 7.19943C23.6291 6.87884 23.7461 6.67494 23.8743 6.3724C24.0799 5.88747 24.2428 5.13904 24.2428 4.67908C24.243 3.92097 24.5085 3.37793 24.9848 3.16165C25.5592 2.90077 26.3603 2.98744 26.7611 3.35383C27.004 3.57596 27.1566 3.98814 27.1566 4.42215C27.1566 4.85463 27.0267 5.21258 26.7721 5.48158C26.5704 5.69481 26.4075 5.79549 26.1222 5.88328C25.8238 5.97514 25.7716 6.00264 25.7321 6.08862C25.7099 6.13695 25.6997 6.57199 25.6997 7.475L25.6997 8.79094L25.7849 8.87544C25.858 8.94797 25.8923 8.95991 26.0275 8.95991C26.4518 8.95991 27.2512 8.74567 27.7102 8.50889C28.4581 8.12318 29.1695 7.43297 29.6138 6.66212C29.8881 6.18626 30.1287 5.23627 30.1287 4.6291C30.1287 4.24573 30.0177 3.54837 29.8842 3.09256C29.601 2.12576 28.9806 1.30667 28.0745 0.703292C27.6507 0.421065 27.2958 0.267607 26.7486 0.130065C26.5806 0.0878132 26.4281 0.0408466 26.4097 0.0256641C26.3896 0.0091999 26.0732 0.00196724 25.6227 0.00768931C24.8815 0.0171498 24.8639 0.018752 24.5342 0.108642C23.7301 0.32791 23.1335 0.66281 22.5945 1.19746C22.2628 1.52643 22.0173 1.86656 21.8212 2.26889C21.5381 2.84968 21.3853 3.39844 21.3262 4.04642C21.311 4.21333 21.2868 4.47345 21.2725 4.62447C21.2476 4.88599 21.1836 5.12204 21.0875 5.30621C21.0344 5.4081 20.743 5.68634 20.5965 5.77496C20.4583 5.85863 20.0787 5.95401 19.8839 5.95401C19.664 5.95401 19.3299 5.87869 19.1438 5.78709C18.9523 5.69284 18.5934 5.35203 18.5064 5.18172C18.3415 4.85904 18.3066 4.35039 18.4262 4.01425C18.6041 3.5144 19.0222 3.12898 19.4915 3.03224C19.5964 3.01059 19.6776 2.97211 19.7319 2.91824L19.8138 2.83694L19.8138 1.41847L19.8138 -8.66091e-07L19.4409 -8.49788e-07C19.2357 -8.40821e-07 19.0555 0.0117332 19.0402 0.0260307C19.025 0.0403739 18.8864 0.0858451 18.7322 0.12709C18.1967 0.270354 17.8709 0.415511 17.4394 0.703017C16.918 1.05037 16.4114 1.54277 16.0888 2.01576C15.8938 2.30176 15.6255 2.87709 15.5464 3.17932C15.3949 3.75752 15.3453 4.50262 15.4203 5.07246ZM18.3721 15.7765C18.4514 15.3836 18.698 15.035 18.998 14.8918C19.3157 14.7402 19.3088 14.7405 22.7088 14.7405C26.1033 14.7405 26.0185 14.737 26.3198 14.889C26.3874 14.9231 26.5443 15.0515 26.6683 15.1744C27.0772 15.5794 27.1661 15.9024 27.151 16.9296C27.1423 17.5231 27.14 17.5447 27.0757 17.6084L27.0093 17.6742L23.2149 17.6819C19.4415 17.6895 19.4193 17.6892 19.2165 17.6292C18.69 17.4736 18.4414 17.1466 18.3425 16.4794C18.3035 16.2158 18.3087 16.091 18.3721 15.7765Z" fill="#B1B1B1"/>
</svg>
