<svg width="31" height="176" viewBox="0 0 31 176" fill="none" xmlns="http://www.w3.org/2000/svg">
<path fill-rule="evenodd" clip-rule="evenodd" d="M0.152505 62.1561C0.226674 62.381 0.294942 62.7908 0.304213 63.0666C0.329667 63.8242 1.42045 66.9489 2.09 68.1815C3.46853 70.7198 5.67033 72.8494 8.31277 74.2007C9.5288 74.8226 12.0136 75.5688 12.8679 75.5688C13.1412 75.5688 13.7977 75.6556 14.327 75.7616C15.2968 75.9561 15.5496 75.9352 18.6947 75.4016C22.1823 74.81 25.5995 72.8671 27.6284 70.3221C28.7171 68.9563 30.037 66.624 30.3507 65.5116C30.9097 63.5291 31 62.6184 31 58.9654C31 55.5203 30.9666 55.0847 30.6044 53.813C29.6068 50.3105 28.0282 48.4787 24.5198 46.7527C22.6683 45.8418 21.782 45.5429 20.4552 45.3822C19.6722 45.2871 19.5466 45.3136 19.3843 45.6079C19.27 45.815 19.2004 47.1135 19.2004 49.0345C19.2004 51.8235 19.2308 52.1544 19.5087 52.3984C19.6783 52.5473 20.0407 52.6691 20.3141 52.6691C21.5361 52.6691 24.4162 54.5127 25.2442 55.825C25.7763 56.6684 26.2802 58.3767 26.2802 59.338C26.2802 61.5004 25.3416 63.5183 23.5543 65.1985C21.9873 66.6714 21.5008 66.9889 20.0647 67.4759C17.4082 68.3765 15.6162 68.5221 12.7949 68.0664C9.7921 67.5815 7.10651 65.7707 5.83755 63.3757C5.36236 62.4785 5.04091 60.9076 5.04091 59.4819C5.04091 57.8827 5.45895 56.5297 6.38623 55.1274C7.21658 53.8719 9.18829 52.6803 10.4478 52.6727C10.8564 52.6703 11.1684 52.5473 11.4171 52.2906C11.7653 51.9309 11.7835 51.7654 11.7835 48.9738C11.7835 45.3112 11.7525 45.2412 10.21 45.4077C7.92254 45.6547 6.1858 46.5255 4.18476 48.4289C3.1056 49.4555 2.73105 49.9601 2.00285 51.3681C0.553521 54.1705 -0.0246561 56.5745 0.0007974 59.691C0.0100686 60.8219 0.0783366 61.9312 0.152505 62.1561ZM0.966515 175.729C1.24819 175.977 2.48951 176 15.3527 176C28.7771 176 29.4436 175.986 29.7096 175.701C29.9468 175.446 29.9886 174.973 29.9886 172.537C29.9886 169.969 29.9566 169.643 29.6803 169.401C29.4066 169.16 28.7497 169.13 23.8181 169.13C19.0641 169.13 18.2101 169.093 17.8895 168.875L17.5148 168.621L17.5148 161.753L17.5148 154.885L17.9286 154.483L18.3422 154.082L23.8865 154.082C29.0435 154.082 29.4502 154.061 29.7096 153.783C29.9455 153.53 29.9886 153.066 29.9886 150.782C29.9886 148.373 29.9552 148.051 29.6803 147.81C29.3986 147.562 28.1573 147.539 15.2941 147.539C1.86968 147.539 1.20318 147.553 0.937182 147.838C0.701358 148.091 0.658206 148.555 0.658206 150.839C0.658206 153.248 0.691584 153.57 0.966514 153.811C1.23875 154.05 1.8594 154.082 6.28391 154.082L11.2932 154.082L11.7068 154.483L12.1207 154.885L12.1207 161.753L12.1207 168.621L11.7459 168.875C11.427 169.092 10.6166 169.13 6.29369 169.13C1.58869 169.13 1.19576 169.152 0.937183 169.429C0.700011 169.684 0.658207 170.157 0.658207 172.594C0.658207 175.161 0.690236 175.487 0.966515 175.729ZM0.966514 141.707C1.24819 141.954 2.4895 141.978 15.3527 141.978C28.7771 141.978 29.4436 141.964 29.7096 141.679C29.9502 141.421 29.9886 140.917 29.9886 138.024C29.9886 134.98 29.96 134.643 29.6803 134.397C29.3986 134.15 28.1573 134.126 15.2941 134.126C1.86968 134.126 1.20318 134.14 0.937181 134.426C0.696638 134.683 0.658205 135.187 0.658205 138.081C0.658206 141.124 0.686863 141.461 0.966514 141.707ZM0.966513 131.566C1.22138 131.789 1.6696 131.836 3.55315 131.836C5.59448 131.836 5.86233 131.803 6.12765 131.519C6.39921 131.228 6.4159 130.863 6.32807 127.143C6.27548 124.912 6.1826 122.742 6.12175 122.321C6.02364 121.642 6.06006 121.509 6.44557 121.135L6.87979 120.714L18.1553 120.714C28.8646 120.714 29.4447 120.699 29.7096 120.415C29.9465 120.161 29.9886 119.69 29.9886 117.296C29.9886 115.665 29.9151 114.343 29.8141 114.16C29.6442 113.852 29.3381 113.844 18.2597 113.844L6.87979 113.844L6.46613 113.442L6.0523 113.041L6.0523 108.315C6.0523 103.945 6.02921 103.569 5.74399 103.319C5.49182 103.098 5.05254 103.048 3.32592 103.048C1.49614 103.048 1.17907 103.088 0.93718 103.347C0.68214 103.621 0.658204 104.837 0.658205 117.471C0.658205 130.656 0.672535 131.308 0.966513 131.566ZM1.03748 95.7986C1.24616 95.981 2.21322 96.4766 3.18669 96.9001C4.92898 97.6581 5.74922 98.0215 10.6036 100.186C11.9479 100.785 13.7684 101.595 14.6491 101.985C15.5299 102.375 17.0849 103.063 18.1047 103.515C20.5098 104.579 27.7196 107.743 28.4351 108.047C29.1606 108.356 29.7589 108.346 29.8863 108.024C29.9426 107.881 29.9886 106.275 29.9886 104.454C29.9886 100.559 30.1048 100.801 27.7973 99.8874C25.3812 98.9308 24.785 98.6357 24.5161 98.2633C24.2946 97.9564 24.2574 97.0156 24.2574 91.7256C24.2574 84.5641 24.0716 85.2558 26.2539 84.2907C26.9637 83.9769 27.9887 83.5249 28.5319 83.2861C29.075 83.0475 29.625 82.7061 29.754 82.5273C29.9357 82.2757 29.9886 81.4563 29.9886 78.8989C29.9886 77.0821 29.9426 75.4791 29.8863 75.3368C29.7487 74.9889 29.1395 75.0107 28.2654 75.3947C27.1355 75.891 24.0998 77.1881 23.0774 77.6114C22.5675 77.8226 21.2387 78.4062 20.1243 78.9083C19.0101 79.4107 18.0483 79.8216 17.9871 79.8216C17.8881 79.8216 14.8912 81.0992 11.2778 82.6819C9.80659 83.3263 6.88046 84.5812 5.5466 85.14C2.0809 86.5917 1.0545 87.0663 0.86891 87.303C0.71383 87.501 0.658203 88.6137 0.658203 91.5195C0.658204 95.4061 0.664103 95.4723 1.03748 95.7986ZM0.966509 41.6029C1.24818 41.8502 2.4895 41.8736 15.3527 41.8736C28.7771 41.8736 29.4436 41.8597 29.7096 41.5744C29.951 41.3157 29.9886 40.8012 29.9886 37.7559C29.9886 34.5024 29.9643 34.2153 29.6673 33.9544C29.3764 33.6989 28.9912 33.6811 25.5796 33.765C23.5081 33.816 21.0302 33.8996 20.0732 33.9511C18.6502 34.0275 18.2588 33.9971 17.924 33.7843L17.5148 33.5241L17.5148 27.1411L17.5148 20.7583L17.9286 20.3569L18.3422 19.9554L23.8865 19.9554C29.0435 19.9554 29.4502 19.9344 29.7096 19.6562C29.9502 19.3984 29.9886 18.8945 29.9886 16.0013C29.9886 12.9579 29.9599 12.6203 29.6803 12.3748C29.3986 12.1275 28.1573 12.1041 15.2941 12.1041C1.86968 12.1041 1.20317 12.118 0.937176 12.4032C0.696633 12.661 0.6582 13.165 0.6582 16.0582C0.6582 19.1015 0.686858 19.4392 0.966508 19.6847C1.23824 19.9233 1.8476 19.9554 6.11534 19.9554L10.956 19.9554L11.3697 20.3569L11.7835 20.7583L11.7835 27.1357L11.7835 33.5131L11.4088 33.7676C11.0906 33.984 10.2954 34.0223 6.12512 34.0223C1.58346 34.0223 1.19525 34.0447 0.937177 34.3215C0.696634 34.5793 0.658201 35.0832 0.658201 37.9764C0.658201 41.0198 0.686859 41.3574 0.966509 41.6029ZM0.966508 6.27203C1.24818 6.51935 2.4895 6.54274 15.3527 6.54274C28.7771 6.54274 29.4436 6.52884 29.7096 6.24357C29.9455 5.99071 29.9886 5.52716 29.9886 3.24292C29.9886 0.833541 29.9552 0.512129 29.6803 0.270705C29.3986 0.0233904 28.1573 -1.2308e-06 15.2941 -6.68525e-07C1.86968 -8.17266e-08 1.20317 0.0138854 0.937175 0.299164C0.701352 0.552032 0.658199 1.01558 0.6582 3.29982C0.6582 5.70918 0.691577 6.03061 0.966508 6.27203ZM8.11723 91.1579C9.79193 90.4247 17.5503 87.5093 17.8268 87.5093C18.0194 87.5093 18.2556 87.6516 18.3517 87.8256C18.5385 88.1644 18.6034 95.302 18.4238 95.7561C18.3675 95.8984 18.1324 96.0149 17.9013 96.0149C17.4435 96.0149 14.5372 94.9381 11.8678 93.7794C10.9407 93.3768 9.72703 92.8532 9.17076 92.6156C8.6145 92.3781 8.06464 92.1165 7.94866 92.0346C7.61474 91.7986 7.70306 91.3391 8.11723 91.1579Z" fill="#B1B1B1"/>
</svg>
