<svg width="22" height="85" viewBox="0 0 22 85" fill="none" xmlns="http://www.w3.org/2000/svg">
<path fill-rule="evenodd" clip-rule="evenodd" d="M0.0154492 57.0272C0.0240762 57.0361 0.0355788 57.1314 0.0410009 57.2389C0.0464404 57.3464 0.0590517 57.4956 0.0690645 57.5704C0.07906 57.6452 0.0942525 57.7714 0.102793 57.8509C0.123061 58.0393 0.138773 58.1296 0.224021 58.5479C0.37915 59.309 0.643173 60.1285 0.946243 60.7896C1.06709 61.0532 1.31971 61.5438 1.40266 61.6759C1.45255 61.7554 1.51595 61.8643 1.54355 61.9179C1.61807 62.0627 1.94526 62.551 2.10924 62.7621C2.14995 62.8145 2.20788 62.8918 2.238 62.9339C2.40735 63.1705 2.79695 63.617 3.11793 63.9422C3.5987 64.4294 4.09711 64.8413 4.75662 65.2967C5.00715 65.4697 5.20119 65.5905 5.62661 65.8383C5.72752 65.8971 5.79356 65.9067 5.80984 65.865C5.82359 65.8299 5.8236 47.0159 5.80984 46.9807C5.80405 46.966 5.77946 46.9538 5.75519 46.9538C5.65121 46.9538 4.62573 47.6001 4.23528 47.9117C4.00767 48.0933 3.83745 48.2344 3.65495 48.3927C3.44274 48.5769 2.89043 49.1218 2.74412 49.2914C2.17283 49.9536 1.76218 50.5199 1.43138 51.1019C1.33711 51.2677 0.933164 52.0671 0.880744 52.1916C0.615612 52.8212 0.3941 53.502 0.270135 54.0684C0.255809 54.1338 0.231297 54.2447 0.215654 54.3149C0.200028 54.385 0.180418 54.4844 0.172069 54.5359C0.163719 54.5873 0.148214 54.6791 0.137613 54.7399C0.127011 54.8007 0.111351 54.9154 0.102793 54.9949C0.0942526 55.0744 0.0790601 55.2006 0.0690646 55.2754C0.0590518 55.3502 0.0464405 55.4994 0.041001 55.6069C0.0355788 55.7144 0.0240762 55.8097 0.0154493 55.8185C-0.00514805 55.8397 -0.0051481 57.006 0.0154492 57.0272ZM3.23909 85L5.82035 85L5.82035 80.1393C5.82035 76.8035 5.82607 75.2502 5.8386 75.188C5.87972 74.984 5.89685 74.9246 5.95972 74.7682C6.06494 74.5064 6.15819 74.3667 6.37368 74.1479C6.5644 73.9542 6.67583 73.8705 6.86841 73.7761C7.1874 73.6198 7.38293 73.576 7.76056 73.576C8.13798 73.576 8.33317 73.6197 8.6527 73.776C9.08469 73.9873 9.45058 74.4019 9.61114 74.8622C9.70633 75.1351 9.70072 74.8066 9.70074 80.1082L9.70076 85L15.5215 85L21.3421 85L21.3357 79.1477C21.3314 75.2451 21.3233 73.2558 21.3114 73.1765C21.3016 73.111 21.2853 72.9886 21.2751 72.9045C21.265 72.8203 21.2448 72.7094 21.2303 72.658C21.2157 72.6065 21.2037 72.5444 21.2036 72.52C21.2032 72.4333 21.0106 71.8078 20.9025 71.542C20.419 70.3538 19.6659 69.4263 18.5575 68.654C18.1265 68.3537 17.5159 68.0563 16.9562 67.8741C16.7452 67.8055 16.2563 67.6816 16.1017 67.6577C16.0445 67.6488 15.9549 67.6342 15.9025 67.6251C15.4474 67.5464 14.4579 67.5465 13.9969 67.6253C13.9445 67.6342 13.8549 67.6487 13.7977 67.6574C13.7405 67.6661 13.6626 67.6813 13.6245 67.6913C13.5864 67.7012 13.4979 67.7209 13.428 67.735C13.2246 67.7762 12.9023 67.8767 12.5418 68.0115C12.3815 68.0714 11.8212 68.3512 11.6063 68.4786C11.3779 68.6141 11.0738 68.8278 10.8661 68.9988C10.3894 69.3914 10.3834 69.3974 9.95115 69.9167C9.83058 70.0616 9.72802 70.1695 9.70826 70.1724C9.68432 70.1758 9.6091 70.1148 9.45787 69.9694C9.14721 69.6707 8.81313 69.4125 8.48813 69.22C8.32728 69.1247 7.91174 68.9201 7.76056 68.8617C7.36825 68.7102 6.84054 68.5737 6.52195 68.5414C5.96393 68.4848 5.78157 68.4788 5.47389 68.5071C5.01614 68.549 4.8577 68.574 4.5471 68.6531C3.95535 68.8036 3.3999 69.0465 2.92253 69.3634C2.72118 69.4971 2.2038 69.9228 2.12098 70.0229C2.09392 70.0557 2.02411 70.1322 1.96587 70.1929C1.7873 70.3792 1.48913 70.7831 1.34469 71.0344C1.16694 71.3437 1.1457 71.3868 0.992721 71.7484C0.898846 71.9704 0.75567 72.4884 0.724852 72.7174C0.716051 72.7829 0.700062 72.8862 0.689339 72.947C0.675186 73.027 0.66817 74.7013 0.663822 79.0287L0.657845 85L3.23909 85ZM0.682878 48.6643C0.722497 48.6792 0.748551 48.6561 0.896162 48.4753C0.972505 48.3819 1.07683 48.2578 1.128 48.1997C1.17917 48.1417 1.27679 48.0308 1.34494 47.9532C1.48169 47.7977 2.26019 47.0397 2.45239 46.875C2.83363 46.5482 3.24185 46.2339 3.58566 46.0026C3.69523 45.9289 3.81216 45.8501 3.84551 45.8275C4.09796 45.6564 4.47448 45.4338 4.8502 45.2332C5.04021 45.1318 5.38 44.9654 5.62746 44.8525C5.70715 44.8161 5.78316 44.7712 5.79636 44.7528C5.81665 44.7245 5.82036 44.0855 5.82036 40.6206C5.82036 36.5803 5.82086 36.5196 5.85516 36.3616C5.90389 36.1372 5.93284 36.0568 6.03842 35.8528C6.26769 35.4098 6.65741 35.0833 7.15424 34.9179C7.62925 34.7599 8.13871 34.7897 8.58684 35.0019C8.82552 35.1149 8.99078 35.2287 9.14789 35.388C9.32656 35.5693 9.48311 35.7868 9.51899 35.9038C9.52614 35.9272 9.55008 35.9816 9.57218 36.0248C9.59427 36.0679 9.63224 36.1802 9.65655 36.2743L9.70076 36.4455L9.70076 40.0735C9.70076 43.661 9.70114 43.7019 9.73487 43.7319C9.76482 43.7584 9.78755 43.7605 9.92109 43.7488C10.175 43.7265 11.9375 43.7314 12.1347 43.7549C12.2299 43.7663 12.3742 43.7828 12.4551 43.7917C12.7217 43.8207 12.878 43.8404 12.9878 43.8587C13.2035 43.8948 13.2975 43.9099 13.4142 43.9274C13.4797 43.9372 13.5385 43.9485 13.545 43.9524C13.5515 43.9564 13.6578 43.9795 13.7812 44.0039C13.9046 44.0282 14.0968 44.0717 14.2082 44.1004L14.4108 44.1527L14.4681 44.1176C14.5505 44.0669 21.2199 37.4926 21.2993 37.3837L21.342 37.3251L21.3376 31.6887L21.3333 26.0523L21.2916 26.0465C21.2564 26.0416 20.6862 26.5939 17.6104 29.6122C14.9368 32.2358 13.9605 33.1838 13.932 33.1838C13.9029 33.1838 13.8732 33.1532 13.8123 33.0605C13.7678 32.9927 13.6904 32.8752 13.6404 32.7994C13.4625 32.5296 13.0754 32.08 12.7473 31.762C12.3661 31.3927 12.0201 31.1195 11.5717 30.8339C11.3404 30.6866 10.9027 30.4506 10.7426 30.3869C10.6889 30.3655 10.5786 30.3195 10.4976 30.2848C10.3115 30.2049 9.81246 30.0364 9.59682 29.9807C9.30279 29.9046 8.78415 29.8142 8.40152 29.7723C8.21271 29.7516 7.24744 29.7578 7.07629 29.7807C6.99054 29.7923 6.86192 29.8086 6.79046 29.8171C6.46972 29.8552 6.22655 29.9047 5.855 30.0073C5.68827 30.0534 5.53236 30.0979 5.50854 30.1062C5.45376 30.1252 5.20308 30.2179 5.0668 30.2695C4.90931 30.3291 4.53546 30.4979 4.48647 30.5316C4.46265 30.548 4.40029 30.5825 4.34788 30.6083C3.88127 30.8377 3.26281 31.2924 2.76563 31.7716C2.33357 32.188 1.98205 32.6257 1.65877 33.1498C1.55938 33.3109 1.21243 33.9892 1.15443 34.1358C0.925439 34.7145 0.759811 35.3805 0.689358 36.0058C0.67711 36.1145 0.669003 38.2067 0.664516 42.4111C0.658713 47.8432 0.661103 48.6561 0.682878 48.6643ZM0.675413 31.1183C0.707755 31.1379 0.756208 31.1097 0.81483 31.0372C1.00215 30.8054 1.47389 30.3304 1.79345 30.0518C2.03132 29.8445 2.19059 29.7208 2.51091 29.4948C2.80572 29.2867 2.86729 29.2482 3.39511 28.9415C3.50707 28.8764 3.96258 28.6577 4.13353 28.587C4.19903 28.5599 4.29548 28.5189 4.34788 28.4959C4.5849 28.3919 5.06357 28.2356 5.47805 28.1269C5.62803 28.0875 5.76639 28.0414 5.78554 28.0244C5.82022 27.9936 5.82036 27.9783 5.82036 23.9969C5.82036 20.68 5.82439 19.9814 5.84407 19.8897C5.94136 19.4363 6.08637 19.1715 6.40349 18.8682C6.62559 18.6559 6.67782 18.6181 6.90418 18.5063C7.14808 18.3858 7.33205 18.3388 7.72392 18.2971C7.85521 18.2831 8.18794 18.3365 8.39732 18.4051C8.78039 18.5306 9.12071 18.7902 9.3873 19.1603C9.45626 19.256 9.5703 19.4896 9.62092 19.6388C9.70429 19.8846 9.70072 19.6903 9.70074 23.9813L9.70076 27.9963L9.74401 28.0297C9.7678 28.0481 9.84381 28.0765 9.91292 28.0928C10.0965 28.1362 10.5036 28.2493 10.6535 28.2986C11.076 28.4373 11.8615 28.7824 12.1953 28.9758C12.2477 29.0062 12.349 29.0643 12.4205 29.1049C12.5897 29.2012 12.9052 29.4073 13.1513 29.5824C13.43 29.7807 13.4614 29.8008 13.4925 29.8008C13.5214 29.8008 21.1552 22.3239 21.2744 22.179L21.342 22.0967L21.342 13.2523C21.342 4.70561 21.3409 4.40698 21.3103 4.3798C21.2809 4.35369 20.5398 4.35167 10.997 4.35167C1.05833 4.35167 0.714426 4.35271 0.686709 4.38277C0.660222 4.41149 0.658039 4.69702 0.658039 8.14564C0.658039 11.7386 0.659217 11.8785 0.689705 11.9055C0.719068 11.9316 1.44282 11.934 10.6703 11.9379C20.1293 11.942 20.6202 11.9437 20.6384 11.972C20.655 11.9978 20.25 12.4019 17.6174 14.9857C15.0643 17.4916 14.5705 17.9689 14.535 17.965C14.4986 17.9609 14.485 17.939 14.4373 17.8072C13.7314 15.8602 12.0466 14.2565 10.0098 13.593C9.75805 13.5109 9.2727 13.3857 9.10744 13.3601C9.05265 13.3516 8.95912 13.3366 8.89956 13.3267C8.65989 13.2869 8.55426 13.2749 8.28892 13.2573C7.72617 13.2199 7.10066 13.2458 6.62156 13.3265C6.56202 13.3365 6.46847 13.3516 6.41368 13.3601C6.05462 13.4157 5.28639 13.6488 4.93687 13.8083C4.88447 13.8322 4.76364 13.8873 4.66836 13.9307C4.57309 13.9742 4.44056 14.041 4.37387 14.0793C4.30717 14.1175 4.19804 14.1799 4.13134 14.2178C3.69132 14.4679 3.0353 14.9705 2.69352 15.3192C2.35743 15.6622 1.98986 16.1149 1.79134 16.4302C1.76191 16.477 1.69667 16.5802 1.64636 16.6597C1.53965 16.8283 1.25358 17.3834 1.19081 17.5437C1.16703 17.6045 1.12369 17.7154 1.0945 17.7902C1.03648 17.939 0.980475 18.1183 0.890048 18.4447C0.793194 18.7944 0.752034 19.0105 0.689376 19.4987C0.664015 19.6963 0.650312 31.1031 0.675413 31.1183ZM0.683677 1.88785C0.722551 2.06194 0.76669 2.18291 0.850933 2.34621C1.00577 2.64631 1.22212 2.85607 1.54284 3.01707C1.72345 3.10773 1.77177 3.12161 2.10711 3.17921C2.17611 3.19106 2.26818 3.19548 2.31499 3.18921C2.36121 3.183 2.45359 3.17075 2.52028 3.16197C2.79406 3.12596 2.98547 3.04498 3.24169 2.8567C3.43462 2.71494 3.56094 2.5631 3.68108 2.32853C3.80137 2.09362 3.86943 1.82777 3.86819 1.59766C3.86699 1.3756 3.78786 1.03723 3.69634 0.862747C3.63732 0.750237 3.48992 0.549774 3.40476 0.466179C3.23573 0.300308 2.95596 0.138382 2.7195 0.0695649C2.64804 0.0487596 2.57167 0.0245362 2.54979 0.0156938C2.49936 -0.00463856 1.98715 -0.00547782 1.96508 0.0147324C1.95602 0.0230332 1.88626 0.048935 1.81003 0.0722886C1.53026 0.158043 1.35649 0.256233 1.15146 0.444443C0.896303 0.678688 0.759952 0.922974 0.683366 1.28316C0.653241 1.42489 0.653396 1.7522 0.683677 1.88785ZM0.897463 1.38515C0.93159 1.1256 1.06688 0.876343 1.28614 0.668961C1.54144 0.427528 1.75623 0.335083 2.19722 0.27681C2.26723 0.267555 2.39587 0.283089 2.6069 0.326271C2.79425 0.364624 3.08348 0.511765 3.22272 0.639588C3.33079 0.738777 3.49531 0.966774 3.54364 1.08433C3.64744 1.33675 3.66793 1.67827 3.59424 1.9278C3.51701 2.18932 3.43952 2.31499 3.23674 2.50757C3.03148 2.70249 2.90195 2.77812 2.65371 2.84799C2.50554 2.88971 2.47694 2.89217 2.21328 2.88593C1.96804 2.88014 1.91401 2.87362 1.79862 2.83578C1.46547 2.72652 1.18188 2.48639 1.02725 2.18265C0.980078 2.08998 0.932716 1.96826 0.921993 1.91216C0.91127 1.85606 0.894795 1.77573 0.885389 1.73366C0.867875 1.65537 0.870006 1.59383 0.897463 1.38515ZM1.34697 2.18061C1.37692 2.20721 1.45363 2.20966 2.25479 2.20966C3.24807 2.20966 3.18723 2.21873 3.18723 2.0707C3.18723 1.94144 3.17609 1.93766 2.79562 1.93766C2.39052 1.93766 2.39036 1.93759 2.39036 1.77048C2.39036 1.69879 2.39961 1.64326 2.41519 1.62144C2.42885 1.6023 2.51654 1.53816 2.61007 1.47888C3.08487 1.17802 3.15587 1.13039 3.17093 1.10279C3.19598 1.05685 3.19085 0.907761 3.16344 0.885437C3.15035 0.874779 3.12502 0.871567 3.10714 0.878281C3.06313 0.894806 2.85256 1.02261 2.63917 1.16232C2.41304 1.31037 2.38695 1.30994 2.32484 1.15718C2.23714 0.941467 2.08741 0.849449 1.82469 0.849823C1.6034 0.850128 1.43339 0.968926 1.36429 1.17152C1.32985 1.2725 1.32564 1.3246 1.32024 1.71735C1.31461 2.12558 1.3162 2.15329 1.34697 2.18061ZM1.60716 1.27234C1.65104 1.1895 1.66434 1.17813 1.75247 1.14814C1.83541 1.11993 1.85946 1.11807 1.91836 1.13539C2.01268 1.16312 2.07688 1.21648 2.11499 1.29881C2.14136 1.3558 2.14714 1.41145 2.14745 1.61117C2.14782 1.84678 2.14654 1.85548 2.10531 1.89592C2.06477 1.93572 2.05287 1.93766 1.84932 1.93766C1.54601 1.93766 1.55885 1.95152 1.55885 1.62413C1.55885 1.3721 1.56044 1.36053 1.60716 1.27234ZM9.73107 67.1201C9.7508 67.1373 9.8128 67.1501 9.90863 67.157C9.98962 67.1627 10.1689 67.1759 10.3071 67.1863C10.6321 67.2108 11.3766 67.2109 11.6756 67.1864C11.8042 67.1759 12.003 67.1602 12.1173 67.1515C12.3211 67.136 12.455 67.1194 12.6804 67.082C12.7423 67.0717 12.8496 67.0563 12.9189 67.0479C12.9882 67.0394 13.0507 67.029 13.0578 67.0246C13.0649 67.0203 13.1876 66.9932 13.3303 66.9644C13.9937 66.8306 14.8175 66.5681 15.4498 66.2891C15.6546 66.1987 16.2569 65.9059 16.3529 65.8501C16.4053 65.8196 16.5066 65.7614 16.5781 65.7207C16.788 65.6012 17.4191 65.1849 17.6348 65.0236C17.82 64.8851 18.051 64.6976 18.4006 64.402C18.6274 64.2102 19.1216 63.7047 19.4038 63.3759C19.6887 63.044 20.0785 62.5242 20.2593 62.2354C20.3069 62.1593 20.3766 62.0501 20.4141 61.9927C20.558 61.7726 20.9452 61.048 21.0512 60.8004C21.4008 59.9836 21.6037 59.3695 21.7419 58.7097C21.7713 58.5697 21.7984 58.45 21.8023 58.4439C21.8128 58.4272 21.8621 58.1068 21.8975 57.8254C21.9069 57.7506 21.9224 57.632 21.9319 57.5619C21.9414 57.4918 21.9536 57.3464 21.959 57.2389C21.9644 57.1314 21.9759 57.0361 21.9845 57.0272C22.0052 57.006 22.0051 55.8737 21.9845 55.8525C21.9758 55.8437 21.9644 55.7408 21.959 55.6239C21.9537 55.507 21.9416 55.354 21.932 55.2839C21.9224 55.2138 21.9069 55.0952 21.8975 55.0204C21.8535 54.6703 21.8317 54.5434 21.7548 54.1874C21.662 53.7577 21.5656 53.4091 21.4259 52.9974C21.2449 52.4639 21.1077 52.1386 20.8526 51.6378C20.4202 50.789 19.9252 50.0553 19.2984 49.3341C19.1478 49.1608 18.4558 48.4764 18.2952 48.3419C17.9275 48.034 17.8561 47.9769 17.668 47.8397C17.0335 47.377 16.8553 47.2651 16.1788 46.9042C16.0926 46.8582 16.0127 46.8133 16.0012 46.8044C15.9603 46.7725 15.2637 46.468 15.0103 46.3714C14.5491 46.1953 14.3246 46.1198 14.0446 46.0462C13.6248 45.9359 13.5476 45.9166 13.4296 45.892C13.3605 45.8776 13.2475 45.8537 13.1784 45.8388C13.1093 45.824 13.008 45.8049 12.9532 45.7963C12.8984 45.7878 12.8049 45.7728 12.7453 45.763C12.4799 45.7191 12.3608 45.7056 11.8315 45.6588C11.5466 45.6337 10.446 45.6341 10.1598 45.6595C9.80799 45.6907 9.76345 45.6975 9.73107 45.7257C9.70226 45.7508 9.70076 46.2816 9.70076 56.4229C9.70076 66.5641 9.70226 67.095 9.73107 67.1201Z" fill="#B1B1B1"/>
</svg>
