<svg width="33" height="108" viewBox="0 0 33 108" fill="none" xmlns="http://www.w3.org/2000/svg">
<path d="M32.4253 89.7058L32.4253 99.4051L8.90856 99.4051L8.90856 108L0.478955 108L0.478953 81.159L8.90856 81.159L8.90856 89.7058L32.4253 89.7058Z" fill="#B1B1B1"/>
<path d="M33 52.3031C33 58.4492 31.3077 63.4109 27.9231 67.1881L20.7388 62.1464C23.4848 59.2655 24.8578 55.8243 24.8578 51.823C24.8578 49.4542 24.283 48.2698 23.1335 48.2698C22.5907 48.2698 22.1756 48.894 21.8882 50.1424C21.6009 51.3588 21.2975 52.8473 20.9782 54.6079C20.6589 56.3365 20.1959 58.0811 19.5893 59.8417C18.9826 61.5702 17.9129 63.0587 16.3803 64.3072C14.8476 65.5236 12.9158 66.1318 10.5849 66.1318C7.67924 66.1318 5.18868 64.9634 3.11321 62.6266C1.03773 60.2578 -2.2296e-06 56.9927 -2.4115e-06 52.8313C-2.64797e-06 47.4215 1.48476 42.8919 4.45428 39.2427L11.3033 44.4285C9.19593 47.2134 8.14223 50.3505 8.14223 53.8396C8.14223 55.4722 8.62119 56.2885 9.5791 56.2885C10.0261 56.2885 10.4093 55.8563 10.7286 54.992C11.0479 54.0957 11.3033 52.9913 11.4949 51.6789C11.6546 50.3665 11.9739 48.942 12.4528 47.4055C12.8999 45.8369 13.4427 44.3965 14.0813 43.084C14.7199 41.7716 15.7257 40.6832 17.0987 39.8189C18.4398 38.9226 20.0363 38.4745 21.8882 38.4745C25.4006 38.4745 28.1306 39.7069 30.0784 42.1717C32.0261 44.6045 33 47.9817 33 52.3031Z" fill="#B1B1B1"/>
<path d="M32.4253 -1.41735e-06L32.4253 21.8474L0.478951 21.8474L0.47895 12.1481L23.9956 12.1481L23.9956 -1.04888e-06L32.4253 -1.41735e-06Z" fill="#B1B1B1"/>
</svg>
